{"glyphs":{"0":{"ha":876,"x_min":60,"x_max":838,"o":"m 838 658 q 799 378 838 517 q 691 128 760 239 q 528 -52 622 17 q 325 -121 435 -121 q 206 -91 256 -121 q 124 -11 156 -61 q 76 104 92 39 q 60 242 60 169 q 76 408 60 321 q 124 579 93 494 q 200 740 156 664 q 300 874 244 815 q 422 966 356 932 q 563 1000 488 1000 q 676 976 625 1000 q 763 907 728 951 q 818 799 799 863 q 838 658 838 736 m 564 963 q 448 924 501 963 q 351 824 394 886 q 276 683 308 763 q 221 519 243 603 q 188 356 199 436 q 176 213 176 276 q 188 94 176 147 q 222 4 200 42 q 274 -53 243 -33 q 344 -74 306 -74 q 446 -38 397 -74 q 538 56 494 -3 q 617 192 581 115 q 678 354 653 269 q 718 525 704 439 q 732 688 732 611 q 723 797 732 746 q 694 884 714 847 q 642 942 674 921 q 564 963 610 963 z "},"1":{"ha":508,"x_min":-78,"x_max":426,"o":"m 414 1000 q 424 981 421 993 q 426 957 426 968 q 414 883 426 922 q 394 801 401 843 q 360 591 381 706 q 312 362 339 476 q 253 142 285 247 q 183 -42 221 36 q 239 -37 213 -37 q 328 -52 292 -37 q 374 -115 364 -67 q 319 -110 346 -112 q 264 -108 292 -108 q 141 -115 197 -108 q 28 -121 85 -121 q -28 -106 3 -121 q -78 -64 -58 -92 q -56 -66 -67 -65 q -33 -67 -44 -67 q 42 -62 3 -67 q 117 -51 81 -58 q 157 66 138 -3 q 194 213 176 135 q 229 375 213 292 q 261 538 246 458 q 290 688 276 618 q 317 811 304 758 q 249 765 276 783 q 203 737 222 747 q 174 723 185 726 q 157 719 163 719 q 131 727 140 719 q 122 760 122 735 q 176 793 142 769 q 250 849 210 817 q 333 919 290 881 q 414 1000 376 958 z "},"2":{"ha":778,"x_min":-40,"x_max":681,"o":"m 254 588 q 181 626 206 600 q 157 711 157 653 q 178 819 157 767 q 240 911 200 871 q 335 976 279 951 q 457 1000 390 1000 q 549 981 508 1000 q 619 926 590 961 q 664 846 649 892 q 679 747 679 800 q 661 608 679 676 q 614 474 643 539 q 549 351 586 413 q 467 233 511 290 q 375 124 424 175 q 276 32 326 72 l 315 24 q 456 -6 388 7 q 575 -19 525 -19 q 624 -12 601 -19 q 681 15 647 -4 q 628 -88 663 -56 q 539 -121 594 -121 q 414 -95 486 -121 q 272 -40 342 -69 q 242 -27 257 -33 q 213 -15 228 -21 q 129 -59 168 -43 q 54 -75 90 -75 q -14 -54 13 -75 q -40 0 -40 -33 q -15 49 -40 32 q 64 67 10 67 q 131 61 94 67 q 210 47 168 56 q 340 188 274 103 q 460 370 406 272 q 548 571 514 468 q 582 765 582 674 q 540 916 582 869 q 435 963 499 963 q 353 941 389 963 q 294 882 318 919 q 257 793 269 844 q 244 682 244 742 q 248 634 244 654 q 261 588 251 614 l 254 588 m 53 -37 q 101 -26 75 -37 q 157 6 128 -14 q 98 24 125 17 q 51 31 71 31 q 13 19 24 31 q 3 -3 3 7 q 18 -28 3 -18 q 53 -37 33 -37 z "},"3":{"ha":710,"x_min":-6,"x_max":636,"o":"m 531 828 q 520 891 531 865 q 492 933 510 917 q 452 956 475 949 q 406 963 429 963 q 348 953 376 963 q 297 924 319 943 q 261 876 275 904 q 247 813 247 849 q 253 767 247 792 q 269 719 258 743 q 246 692 263 704 q 214 681 229 681 q 192 691 201 681 q 176 717 182 701 q 166 753 169 733 q 163 790 163 772 q 185 880 163 840 q 245 946 208 919 q 328 986 282 972 q 422 1000 375 1000 q 503 989 464 1000 q 571 956 542 978 q 618 900 600 933 q 636 821 636 867 q 617 724 636 775 q 566 628 599 674 q 489 549 533 583 q 393 501 444 515 q 493 456 453 486 q 557 388 533 425 q 591 310 581 350 q 601 233 601 269 q 573 104 601 168 q 493 -10 544 40 q 372 -90 442 -60 q 222 -121 303 -121 q 115 -102 158 -121 q 44 -54 71 -83 q 6 10 18 -25 q -6 76 -6 44 q 1 130 -6 103 q 23 178 8 157 q 58 213 38 200 q 107 226 79 226 q 120 226 114 226 q 132 225 126 226 q 100 170 113 208 q 88 96 88 132 q 98 32 88 63 q 127 -23 108 1 q 174 -62 146 -47 q 235 -76 201 -76 q 317 -54 276 -76 q 389 9 357 -32 q 440 107 421 50 q 460 233 460 164 q 452 315 460 274 q 426 390 444 356 q 378 450 408 424 q 306 488 349 476 q 399 549 357 510 q 469 636 440 589 q 515 733 499 683 q 531 828 531 783 z "},"4":{"ha":665,"x_min":-25,"x_max":617,"o":"m 586 1000 q 597 989 592 997 q 601 964 601 981 q 575 888 601 932 q 559 817 569 864 q 535 706 549 769 q 507 564 522 642 q 475 400 492 486 l 533 400 q 578 401 560 400 q 617 408 597 403 q 554 349 590 372 q 492 326 518 326 l 461 326 q 453 285 457 306 q 446 243 449 264 q 432 158 440 211 q 417 51 424 106 q 404 -52 410 -4 q 399 -121 399 -100 q 322 -101 351 -117 q 292 -56 292 -86 q 299 -7 293 -39 q 310 65 303 21 q 331 181 318 110 q 340 229 332 189 q 361 328 349 269 q 299 328 329 328 q 246 329 269 329 q 90 324 154 329 q -25 307 25 318 q 0 365 -25 344 q 135 506 56 431 q 299 663 215 582 q 460 830 383 744 q 586 1000 538 915 m 378 404 q 420 589 397 493 q 465 757 443 685 q 383 677 426 718 q 295 596 339 636 q 210 516 251 556 q 135 440 168 476 q 115 419 124 429 q 97 400 106 408 q 163 406 128 404 q 238 407 199 407 q 312 406 278 407 q 378 404 346 406 z "},"5":{"ha":672,"x_min":-18,"x_max":649,"o":"m 217 -76 q 315 -48 272 -76 q 388 26 358 -19 q 434 129 418 72 q 450 242 450 186 q 440 324 450 285 q 407 392 429 363 q 349 440 385 422 q 264 458 314 458 q 136 443 213 458 q 163 569 143 492 q 206 729 183 647 q 250 883 229 811 q 281 990 271 954 q 359 976 322 979 q 428 972 396 972 q 537 981 486 972 q 643 1000 588 989 q 649 963 649 979 q 633 912 649 932 q 593 880 618 892 q 538 863 568 868 q 478 858 507 858 q 389 867 425 858 q 326 876 353 876 q 308 872 314 876 q 294 849 303 867 q 274 792 285 826 q 251 719 263 758 q 229 639 240 679 q 210 566 218 599 q 196 510 201 533 q 189 483 190 488 q 248 494 218 490 q 310 497 278 497 q 432 477 381 497 q 517 422 483 457 q 568 339 551 388 q 585 235 585 290 q 557 94 585 160 q 481 -19 529 29 q 365 -94 432 -67 q 217 -121 297 -121 q 103 -102 149 -121 q 31 -55 58 -83 q -7 8 4 -26 q -18 75 -18 43 q -11 128 -18 101 q 10 178 -4 156 q 46 213 25 200 q 94 226 67 226 q 108 226 101 226 q 119 225 114 226 q 88 171 100 208 q 75 90 75 133 q 83 28 75 58 q 107 -24 90 -1 q 151 -62 124 -47 q 217 -76 178 -76 z "},"6":{"ha":781,"x_min":54,"x_max":719,"o":"m 582 968 q 457 919 515 968 q 351 793 399 871 q 267 619 303 715 q 208 429 231 524 q 316 496 254 472 q 443 519 378 519 q 541 503 494 519 q 622 455 588 488 q 677 372 657 422 q 697 250 697 321 q 671 103 697 171 q 597 -14 644 36 q 483 -92 549 -64 q 338 -121 417 -121 q 206 -94 260 -121 q 118 -20 151 -67 q 69 89 85 26 q 54 222 54 151 q 72 390 54 301 q 122 565 89 478 q 201 730 154 651 q 307 869 247 808 q 438 965 367 929 q 589 1000 508 1000 q 683 981 646 1000 q 719 919 719 961 q 707 882 719 900 q 656 853 694 864 q 657 871 656 864 q 658 892 658 878 q 644 945 658 922 q 582 968 629 968 m 178 194 q 184 108 178 156 q 209 20 190 61 q 260 -49 228 -21 q 344 -76 292 -76 q 440 -47 397 -76 q 513 31 483 -17 q 560 139 543 79 q 576 258 576 199 q 562 355 576 314 q 524 422 547 396 q 469 460 500 447 q 403 472 438 472 q 297 449 340 472 q 228 388 254 426 q 190 299 201 349 q 178 194 178 249 z "},"7":{"ha":561,"x_min":68,"x_max":667,"o":"m 68 401 q 88 450 69 432 q 133 478 106 468 q 196 490 161 488 q 264 492 231 492 l 297 492 q 415 697 353 596 q 526 882 478 799 q 478 881 507 882 q 419 878 450 879 q 357 875 388 876 q 303 874 326 874 q 191 892 221 874 q 161 939 161 911 q 179 997 161 964 q 234 988 208 993 q 288 979 260 983 q 351 972 317 975 q 433 969 386 969 q 561 976 499 969 q 667 997 624 982 q 634 949 656 981 q 592 893 613 917 q 483 715 539 817 q 369 488 426 613 q 440 483 408 485 q 507 481 472 481 q 535 481 526 481 q 551 485 543 482 q 501 433 528 451 q 442 414 475 414 q 397 414 422 414 q 336 415 371 414 q 297 322 318 372 q 256 218 275 271 q 225 113 238 165 q 213 15 213 61 q 216 -17 213 -3 q 229 -37 219 -31 q 203 -77 218 -61 q 172 -103 188 -93 q 142 -117 157 -112 q 118 -121 128 -121 q 85 -106 99 -121 q 71 -58 71 -90 q 85 21 71 -28 q 126 132 100 69 q 185 267 151 194 q 257 415 219 339 q 213 414 238 415 q 161 410 188 413 q 110 406 135 408 q 68 401 85 404 z "},"8":{"ha":733,"x_min":26,"x_max":638,"o":"m 26 107 q 53 215 26 167 q 123 306 81 264 q 219 388 165 349 q 326 467 272 426 q 269 533 297 499 q 219 603 240 567 q 184 681 197 640 q 171 769 171 722 q 194 875 171 832 q 253 946 217 918 q 336 986 290 974 q 428 999 382 999 q 580 948 522 999 q 638 799 638 897 q 622 704 638 747 q 578 623 606 661 q 515 551 551 585 q 439 485 479 517 q 502 415 471 450 q 558 340 533 379 q 599 259 583 301 q 614 169 614 217 q 584 49 614 103 q 506 -43 554 -6 q 396 -101 458 -81 q 269 -121 333 -121 q 152 -99 199 -121 q 78 -42 106 -76 q 38 31 50 -8 q 26 107 26 71 m 111 111 q 126 37 111 69 q 165 -19 140 4 q 220 -54 189 -42 q 283 -67 251 -67 q 360 -50 321 -67 q 430 -3 399 -33 q 481 69 461 26 q 500 164 500 111 q 489 238 500 203 q 458 304 478 272 q 414 367 439 336 q 363 426 389 397 q 269 356 314 392 q 189 283 224 321 q 133 203 154 246 q 111 111 111 161 m 279 788 q 316 647 279 708 q 403 526 353 585 q 513 648 468 582 q 557 800 557 714 q 519 922 557 882 q 429 961 481 961 q 379 952 406 961 q 331 922 353 943 q 294 868 308 901 q 279 788 279 835 z "},"9":{"ha":788,"x_min":106,"x_max":749,"o":"m 246 -89 q 369 -40 313 -89 q 471 86 426 8 q 548 260 515 164 q 600 450 581 356 q 494 383 556 406 q 369 360 433 360 q 269 376 317 360 q 185 427 221 393 q 127 515 149 461 q 106 642 106 568 q 131 783 106 718 q 201 897 156 849 q 311 972 247 944 q 453 1000 375 1000 q 590 972 533 1000 q 682 893 647 943 q 733 777 717 843 q 749 636 749 711 q 733 472 749 558 q 686 301 717 385 q 612 140 656 217 q 512 6 568 64 q 387 -87 456 -53 q 240 -121 318 -121 q 144 -101 182 -121 q 107 -37 107 -82 q 119 -1 107 -18 q 168 26 132 15 q 167 9 168 15 q 167 -8 167 3 q 182 -65 167 -40 q 246 -89 197 -89 m 408 407 q 570 475 519 407 q 621 651 621 543 q 614 757 621 703 q 588 855 607 811 q 534 927 568 899 q 447 956 500 956 q 355 927 396 956 q 285 853 314 899 q 242 749 257 807 q 226 633 226 692 q 242 531 226 574 q 282 460 257 488 q 340 420 307 433 q 408 407 372 407 z "},"A":{"ha":824,"x_min":-24,"x_max":796,"o":"m -11 393 q 42 449 4 433 q 133 465 81 465 q 181 463 157 465 q 233 456 206 460 q 342 613 286 535 q 449 758 397 690 q 547 878 501 825 q 625 961 593 931 q 692 1000 665 1000 q 765 956 721 1000 q 730 896 751 944 q 684 776 708 847 q 636 617 660 704 q 593 442 613 531 q 561 273 574 354 q 549 131 549 192 q 560 49 549 78 q 600 19 572 19 q 682 69 636 19 q 782 225 728 119 l 796 211 q 748 109 775 156 q 690 29 721 63 q 624 -23 658 -4 q 556 -42 590 -42 q 472 9 497 -42 q 447 144 447 60 q 471 351 447 233 q 358 367 408 361 q 265 379 308 374 q 138 130 199 257 q 24 -121 76 3 q -16 -83 -8 -103 q -24 -49 -24 -62 q -7 26 -24 -19 q 38 128 10 71 q 105 251 67 185 q 188 386 143 317 q 100 392 136 390 q 38 393 64 393 l -11 393 m 647 913 q 575 849 615 893 q 490 744 535 806 q 398 606 446 683 q 301 443 350 529 q 394 421 349 432 q 481 400 440 410 q 516 539 496 468 q 558 677 536 610 q 603 804 579 744 q 647 913 626 864 z "},"Æ":{"ha":1039,"x_min":-24,"x_max":1121,"o":"m -11 393 q 42 449 4 433 q 133 465 81 465 q 181 463 157 465 q 233 456 206 460 q 376 661 304 563 q 511 835 449 760 q 621 955 574 910 q 692 1000 668 1000 q 810 997 747 1000 q 933 988 874 993 q 1042 978 992 983 q 1121 968 1092 972 q 1093 943 1115 953 q 1039 928 1071 933 q 967 920 1007 922 q 885 918 926 918 q 810 919 847 918 q 742 921 774 919 q 715 861 729 897 q 686 781 701 825 q 655 684 671 736 q 625 576 639 632 q 794 563 721 574 q 914 544 867 551 q 886 519 908 529 q 832 504 864 510 q 760 497 800 499 q 678 494 719 494 q 637 494 654 494 q 604 496 619 494 q 565 297 581 393 q 549 131 549 201 q 553 74 549 96 q 652 62 596 67 q 763 52 708 57 q 862 42 817 47 q 931 32 907 38 q 903 7 925 17 q 849 -8 881 -3 q 776 -16 817 -14 q 694 -18 736 -18 q 582 -17 636 -18 q 488 -12 528 -17 q 457 50 467 8 q 447 144 447 92 q 471 351 447 233 q 358 367 408 361 q 265 379 308 374 q 138 130 199 257 q 24 -121 76 3 q -16 -83 -8 -103 q -24 -49 -24 -62 q -7 26 -24 -19 q 38 128 10 71 q 105 251 67 185 q 188 386 143 317 q 100 392 136 390 q 38 393 64 393 l -11 393 m 647 913 q 575 849 615 893 q 490 744 535 806 q 398 606 446 683 q 301 443 350 529 q 394 421 349 432 q 481 400 440 410 q 516 539 496 468 q 558 677 536 610 q 603 804 579 744 q 647 913 626 864 z "},"Á":{"ha":824,"x_min":-24,"x_max":892,"o":"m -11 393 q 42 449 4 433 q 133 465 81 465 q 181 463 157 465 q 233 456 206 460 q 342 613 286 535 q 449 758 397 690 q 547 878 501 825 q 625 961 593 931 q 692 1000 665 1000 q 765 956 721 1000 q 730 896 751 944 q 684 776 708 847 q 636 617 660 704 q 593 442 613 531 q 561 273 574 354 q 549 131 549 192 q 560 49 549 78 q 600 19 572 19 q 682 69 636 19 q 782 225 728 119 l 796 211 q 748 109 775 156 q 690 29 721 63 q 624 -23 658 -4 q 556 -42 590 -42 q 472 9 497 -42 q 447 144 447 60 q 471 351 447 233 q 358 367 408 361 q 265 379 308 374 q 138 130 199 257 q 24 -121 76 3 q -16 -83 -8 -103 q -24 -49 -24 -62 q -7 26 -24 -19 q 38 128 10 71 q 105 251 67 185 q 188 386 143 317 q 100 392 136 390 q 38 393 64 393 l -11 393 m 647 913 q 575 849 615 893 q 490 744 535 806 q 398 606 446 683 q 301 443 350 529 q 394 421 349 432 q 481 400 440 410 q 516 539 496 468 q 558 677 536 610 q 603 804 579 744 q 647 913 626 864 m 892 1200 q 804 1117 842 1156 q 736 1039 767 1079 q 721 1056 725 1044 q 717 1075 717 1068 q 731 1115 717 1088 q 768 1172 746 1143 q 815 1222 790 1200 q 861 1243 840 1243 q 881 1234 872 1243 q 892 1200 889 1225 z "},"Â":{"ha":824,"x_min":-24,"x_max":864,"o":"m -11 393 q 42 449 4 433 q 133 465 81 465 q 181 463 157 465 q 233 456 206 460 q 342 613 286 535 q 449 758 397 690 q 547 878 501 825 q 625 961 593 931 q 692 1000 665 1000 q 765 956 721 1000 q 730 896 751 944 q 684 776 708 847 q 636 617 660 704 q 593 442 613 531 q 561 273 574 354 q 549 131 549 192 q 560 49 549 78 q 600 19 572 19 q 682 69 636 19 q 782 225 728 119 l 796 211 q 748 109 775 156 q 690 29 721 63 q 624 -23 658 -4 q 556 -42 590 -42 q 472 9 497 -42 q 447 144 447 60 q 471 351 447 233 q 358 367 408 361 q 265 379 308 374 q 138 130 199 257 q 24 -121 76 3 q -16 -83 -8 -103 q -24 -49 -24 -62 q -7 26 -24 -19 q 38 128 10 71 q 105 251 67 185 q 188 386 143 317 q 100 392 136 390 q 38 393 64 393 l -11 393 m 647 913 q 575 849 615 893 q 490 744 535 806 q 398 606 446 683 q 301 443 350 529 q 394 421 349 432 q 481 400 440 410 q 516 539 496 468 q 558 677 536 610 q 603 804 579 744 q 647 913 626 864 m 594 1082 q 583 1094 586 1088 q 581 1108 581 1101 q 600 1151 581 1129 q 646 1190 619 1172 q 699 1219 672 1207 q 739 1231 725 1231 q 777 1215 756 1231 q 818 1176 799 1199 q 851 1126 838 1153 q 864 1076 864 1099 q 858 1051 864 1063 q 840 1033 853 1040 q 796 1101 821 1074 q 738 1161 771 1129 q 660 1128 694 1146 q 594 1082 626 1110 z "},"Ä":{"ha":824,"x_min":-24,"x_max":904,"o":"m -11 393 q 42 449 4 433 q 133 465 81 465 q 181 463 157 465 q 233 456 206 460 q 342 613 286 535 q 449 758 397 690 q 547 878 501 825 q 625 961 593 931 q 692 1000 665 1000 q 765 956 721 1000 q 730 896 751 944 q 684 776 708 847 q 636 617 660 704 q 593 442 613 531 q 561 273 574 354 q 549 131 549 192 q 560 49 549 78 q 600 19 572 19 q 682 69 636 19 q 782 225 728 119 l 796 211 q 748 109 775 156 q 690 29 721 63 q 624 -23 658 -4 q 556 -42 590 -42 q 472 9 497 -42 q 447 144 447 60 q 471 351 447 233 q 358 367 408 361 q 265 379 308 374 q 138 130 199 257 q 24 -121 76 3 q -16 -83 -8 -103 q -24 -49 -24 -62 q -7 26 -24 -19 q 38 128 10 71 q 105 251 67 185 q 188 386 143 317 q 100 392 136 390 q 38 393 64 393 l -11 393 m 647 913 q 575 849 615 893 q 490 744 535 806 q 398 606 446 683 q 301 443 350 529 q 394 421 349 432 q 481 400 440 410 q 516 539 496 468 q 558 677 536 610 q 603 804 579 744 q 647 913 626 864 m 622 1075 q 586 1085 601 1075 q 571 1117 571 1094 q 579 1141 571 1129 q 601 1162 588 1153 q 631 1176 615 1171 q 663 1182 647 1182 q 693 1174 682 1182 q 704 1143 704 1165 q 697 1119 704 1131 q 678 1097 690 1107 q 652 1081 667 1088 q 622 1075 638 1075 m 822 1046 q 786 1056 801 1046 q 771 1088 771 1065 q 779 1112 771 1100 q 801 1133 788 1124 q 831 1147 815 1142 q 863 1153 847 1153 q 893 1144 882 1153 q 904 1114 904 1136 q 897 1090 904 1101 q 878 1068 890 1078 q 852 1052 867 1058 q 822 1046 838 1046 z "},"À":{"ha":824,"x_min":-24,"x_max":796,"o":"m -11 393 q 42 449 4 433 q 133 465 81 465 q 181 463 157 465 q 233 456 206 460 q 342 613 286 535 q 449 758 397 690 q 547 878 501 825 q 625 961 593 931 q 692 1000 665 1000 q 765 956 721 1000 q 730 896 751 944 q 684 776 708 847 q 636 617 660 704 q 593 442 613 531 q 561 273 574 354 q 549 131 549 192 q 560 49 549 78 q 600 19 572 19 q 682 69 636 19 q 782 225 728 119 l 796 211 q 748 109 775 156 q 690 29 721 63 q 624 -23 658 -4 q 556 -42 590 -42 q 472 9 497 -42 q 447 144 447 60 q 471 351 447 233 q 358 367 408 361 q 265 379 308 374 q 138 130 199 257 q 24 -121 76 3 q -16 -83 -8 -103 q -24 -49 -24 -62 q -7 26 -24 -19 q 38 128 10 71 q 105 251 67 185 q 188 386 143 317 q 100 392 136 390 q 38 393 64 393 l -11 393 m 647 913 q 575 849 615 893 q 490 744 535 806 q 398 606 446 683 q 301 443 350 529 q 394 421 349 432 q 481 400 440 410 q 516 539 496 468 q 558 677 536 610 q 603 804 579 744 q 647 913 626 864 m 604 1200 q 615 1234 607 1225 q 635 1243 624 1243 q 681 1222 656 1243 q 728 1172 706 1200 q 765 1115 750 1143 q 779 1075 779 1088 q 775 1056 779 1068 q 760 1039 771 1044 q 692 1117 729 1079 q 604 1200 654 1156 z "},"Å":{"ha":824,"x_min":-24,"x_max":903,"o":"m -11 393 q 42 449 4 433 q 133 465 81 465 q 181 463 157 465 q 233 456 206 460 q 342 613 286 535 q 449 758 397 690 q 547 878 501 825 q 625 961 593 931 q 692 1000 665 1000 q 765 956 721 1000 q 730 896 751 944 q 684 776 708 847 q 636 617 660 704 q 593 442 613 531 q 561 273 574 354 q 549 131 549 192 q 560 49 549 78 q 600 19 572 19 q 682 69 636 19 q 782 225 728 119 l 796 211 q 748 109 775 156 q 690 29 721 63 q 624 -23 658 -4 q 556 -42 590 -42 q 472 9 497 -42 q 447 144 447 60 q 471 351 447 233 q 358 367 408 361 q 265 379 308 374 q 138 130 199 257 q 24 -121 76 3 q -16 -83 -8 -103 q -24 -49 -24 -62 q -7 26 -24 -19 q 38 128 10 71 q 105 251 67 185 q 188 386 143 317 q 100 392 136 390 q 38 393 64 393 l -11 393 m 647 913 q 575 849 615 893 q 490 744 535 806 q 398 606 446 683 q 301 443 350 529 q 394 421 349 432 q 481 400 440 410 q 516 539 496 468 q 558 677 536 610 q 603 804 579 744 q 647 913 626 864 m 797 1278 q 879 1256 856 1278 q 903 1203 903 1235 q 889 1150 903 1178 q 851 1099 875 1122 q 794 1062 826 1076 q 728 1047 763 1047 q 651 1069 674 1047 q 628 1122 628 1090 q 641 1174 628 1147 q 677 1224 654 1201 q 731 1263 700 1247 q 797 1278 761 1278 m 790 1246 q 750 1235 769 1246 q 715 1207 731 1224 q 691 1170 700 1190 q 682 1132 682 1150 q 696 1094 682 1113 q 740 1075 710 1075 q 781 1087 761 1075 q 816 1117 800 1099 q 842 1156 832 1135 q 851 1194 851 1176 q 837 1230 851 1214 q 790 1246 822 1246 z "},"Ã":{"ha":824,"x_min":-24,"x_max":944,"o":"m -11 393 q 42 449 4 433 q 133 465 81 465 q 181 463 157 465 q 233 456 206 460 q 342 613 286 535 q 449 758 397 690 q 547 878 501 825 q 625 961 593 931 q 692 1000 665 1000 q 765 956 721 1000 q 730 896 751 944 q 684 776 708 847 q 636 617 660 704 q 593 442 613 531 q 561 273 574 354 q 549 131 549 192 q 560 49 549 78 q 600 19 572 19 q 682 69 636 19 q 782 225 728 119 l 796 211 q 748 109 775 156 q 690 29 721 63 q 624 -23 658 -4 q 556 -42 590 -42 q 472 9 497 -42 q 447 144 447 60 q 471 351 447 233 q 358 367 408 361 q 265 379 308 374 q 138 130 199 257 q 24 -121 76 3 q -16 -83 -8 -103 q -24 -49 -24 -62 q -7 26 -24 -19 q 38 128 10 71 q 105 251 67 185 q 188 386 143 317 q 100 392 136 390 q 38 393 64 393 l -11 393 m 647 913 q 575 849 615 893 q 490 744 535 806 q 398 606 446 683 q 301 443 350 529 q 394 421 349 432 q 481 400 440 410 q 516 539 496 468 q 558 677 536 610 q 603 804 579 744 q 647 913 626 864 m 518 1054 q 574 1104 546 1090 q 633 1118 601 1118 q 694 1108 663 1118 q 758 1088 725 1099 q 828 1067 792 1076 q 903 1057 864 1057 q 944 1061 924 1057 q 892 1022 919 1033 q 836 1011 865 1011 q 776 1019 807 1011 q 713 1038 744 1028 q 648 1057 681 1049 q 582 1065 615 1065 q 518 1054 546 1065 z "},"B":{"ha":846,"x_min":26,"x_max":783,"o":"m 783 779 q 753 663 783 711 q 678 584 724 615 q 576 535 632 553 q 465 508 519 517 q 631 478 568 501 q 726 423 693 456 q 771 354 760 390 q 782 285 782 318 q 752 160 782 217 q 672 59 722 104 q 559 -19 622 14 q 428 -76 496 -53 q 297 -110 361 -99 q 181 -121 232 -121 q 65 -95 104 -121 q 26 -10 26 -69 q 33 -6 26 -6 q 45 -8 38 -6 q 67 -12 53 -10 q 105 -17 82 -15 q 164 -19 128 -19 q 385 8 283 -19 q 560 82 486 36 q 675 188 633 128 q 717 310 717 247 q 684 401 717 367 q 601 453 651 435 q 488 478 550 472 q 367 485 426 485 q 313 484 339 485 q 263 483 286 483 q 200 258 231 371 q 138 36 169 144 q 79 56 103 36 q 56 103 56 75 q 63 142 56 119 q 75 182 69 164 q 98 255 82 204 q 137 372 114 306 q 187 517 160 439 q 244 674 214 594 q 307 827 275 753 q 369 961 339 901 q 292 940 325 953 q 237 916 260 928 q 199 895 214 904 q 178 886 185 886 q 150 899 167 886 q 133 924 133 913 q 203 951 168 938 q 278 976 239 965 q 363 994 318 988 q 463 1000 408 1000 q 565 992 508 1000 q 669 962 621 985 q 751 895 718 939 q 783 779 783 851 m 465 971 q 452 971 458 971 q 439 969 446 971 q 348 756 389 871 q 271 515 307 640 q 424 533 347 518 q 561 579 500 547 q 661 663 622 611 q 700 790 700 714 q 680 879 700 844 q 627 935 660 914 q 552 963 594 956 q 465 971 510 971 z "},"C":{"ha":743,"x_min":31,"x_max":735,"o":"m 606 957 q 502 922 556 957 q 397 828 449 888 q 299 692 344 769 q 217 531 253 615 q 162 359 182 446 q 142 194 142 272 q 153 94 142 143 q 188 8 164 46 q 248 -51 211 -29 q 338 -74 285 -74 q 449 -49 393 -74 q 554 16 504 -25 q 646 111 604 57 q 715 225 688 165 l 735 211 q 654 83 700 143 q 554 -23 608 22 q 437 -94 500 -68 q 304 -121 374 -121 q 178 -92 231 -121 q 94 -15 126 -62 q 46 94 61 33 q 31 218 31 154 q 55 403 31 310 q 120 583 79 497 q 217 746 161 669 q 336 878 272 822 q 467 966 400 933 q 601 999 535 999 q 694 972 658 999 q 729 879 729 944 q 715 788 729 839 q 677 691 700 736 q 626 615 654 646 q 568 583 597 583 q 545 590 557 583 q 525 615 533 597 q 572 674 546 639 q 621 749 599 710 q 658 826 643 788 q 674 894 674 865 q 658 940 674 922 q 606 957 642 957 z "},"Ç":{"ha":782,"x_min":31,"x_max":735,"o":"m 606 957 q 502 922 556 957 q 397 828 449 888 q 299 692 344 769 q 217 531 253 615 q 162 359 182 446 q 142 194 142 272 q 153 94 142 143 q 188 8 164 46 q 248 -51 211 -29 q 338 -74 285 -74 q 449 -49 393 -74 q 554 16 504 -25 q 646 111 604 57 q 715 225 688 165 l 735 211 q 675 111 707 158 q 604 24 643 64 l 550 -60 q 588 -37 565 -49 q 643 -26 610 -26 q 706 -85 706 -26 q 692 -142 706 -114 q 657 -192 679 -171 q 605 -227 635 -214 q 543 -240 575 -240 q 481 -225 503 -240 q 458 -190 458 -210 q 489 -144 458 -167 q 513 -192 496 -178 q 547 -207 529 -207 q 588 -195 567 -207 q 625 -165 608 -183 q 652 -126 642 -147 q 663 -86 663 -104 q 658 -63 663 -75 q 639 -51 653 -51 q 607 -60 625 -51 q 572 -80 589 -69 q 541 -99 556 -90 q 521 -108 526 -108 q 506 -99 511 -108 q 501 -83 501 -90 q 508 -70 501 -81 q 526 -44 515 -60 q 421 -101 476 -81 q 304 -121 365 -121 q 178 -92 231 -121 q 94 -15 126 -62 q 46 94 61 33 q 31 218 31 154 q 55 403 31 310 q 120 583 79 497 q 217 746 161 669 q 336 878 272 822 q 467 966 400 933 q 601 999 535 999 q 694 972 658 999 q 729 879 729 944 q 715 788 729 839 q 677 691 700 736 q 626 615 654 646 q 568 583 597 583 q 545 590 557 583 q 525 615 533 597 q 572 674 546 639 q 621 749 599 710 q 658 826 643 788 q 674 894 674 865 q 658 940 674 922 q 606 957 642 957 z "},"D":{"ha":908,"x_min":78,"x_max":893,"o":"m 790 635 q 769 781 790 719 q 711 883 749 843 q 621 943 674 924 q 506 963 568 963 q 379 942 438 963 q 278 884 321 921 q 212 798 236 847 q 188 692 188 749 q 194 640 188 661 q 130 663 149 640 q 111 718 111 686 q 146 817 111 767 q 240 908 181 867 q 378 974 299 949 q 547 1000 457 1000 q 706 971 640 1000 q 814 890 772 942 q 874 769 856 839 q 893 619 893 700 q 866 426 893 519 q 792 249 839 332 q 682 99 746 167 q 544 -18 618 31 q 388 -94 469 -67 q 226 -121 307 -121 q 144 -109 182 -121 q 78 -58 106 -97 q 112 85 92 7 q 156 244 132 164 q 203 403 179 325 q 250 549 228 482 q 290 669 272 617 q 318 747 308 721 q 332 780 322 758 q 356 824 342 801 q 388 862 369 846 q 426 878 406 878 q 465 864 446 878 q 378 642 422 764 q 294 394 333 521 q 221 144 254 267 q 165 -79 188 21 q 198 -83 185 -82 q 225 -85 211 -85 q 369 -56 299 -85 q 503 25 440 -26 q 618 146 565 76 q 709 295 671 215 q 769 462 747 375 q 790 635 790 549 z "},"E":{"ha":693,"x_min":-21,"x_max":683,"o":"m 533 967 q 448 944 485 967 q 386 884 411 922 q 348 795 361 846 q 335 688 335 744 q 338 635 335 663 q 350 579 342 607 q 374 525 358 551 q 415 478 390 499 q 289 431 346 467 q 192 347 232 396 q 130 240 151 297 q 108 128 108 183 q 118 58 108 93 q 149 -7 128 22 q 203 -55 169 -36 q 286 -74 238 -74 q 397 -49 342 -74 q 503 16 453 -25 q 594 111 553 57 q 664 225 636 165 l 683 211 q 601 80 647 140 q 500 -26 554 19 q 383 -96 446 -71 q 250 -121 319 -121 q 138 -101 188 -121 q 52 -46 88 -81 q -2 35 17 -11 q -21 132 -21 81 q 7 258 -21 196 q 84 369 35 319 q 199 451 133 418 q 339 492 264 485 q 259 594 285 536 q 233 711 233 653 q 255 818 233 767 q 315 910 276 869 q 405 974 353 950 q 519 999 457 999 q 638 960 597 999 q 678 849 678 921 q 667 772 678 810 q 639 705 656 735 q 603 657 622 675 q 567 639 583 639 q 538 652 551 639 q 515 683 524 665 q 598 774 564 726 q 632 876 632 822 q 607 943 632 919 q 533 967 582 967 z "},"É":{"ha":693,"x_min":-21,"x_max":751,"o":"m 533 967 q 448 944 485 967 q 386 884 411 922 q 348 795 361 846 q 335 688 335 744 q 338 635 335 663 q 350 579 342 607 q 374 525 358 551 q 415 478 390 499 q 289 431 346 467 q 192 347 232 396 q 130 240 151 297 q 108 128 108 183 q 118 58 108 93 q 149 -7 128 22 q 203 -55 169 -36 q 286 -74 238 -74 q 397 -49 342 -74 q 503 16 453 -25 q 594 111 553 57 q 664 225 636 165 l 683 211 q 601 80 647 140 q 500 -26 554 19 q 383 -96 446 -71 q 250 -121 319 -121 q 138 -101 188 -121 q 52 -46 88 -81 q -2 35 17 -11 q -21 132 -21 81 q 7 258 -21 196 q 84 369 35 319 q 199 451 133 418 q 339 492 264 485 q 259 594 285 536 q 233 711 233 653 q 255 818 233 767 q 315 910 276 869 q 405 974 353 950 q 519 999 457 999 q 638 960 597 999 q 678 849 678 921 q 667 772 678 810 q 639 705 656 735 q 603 657 622 675 q 567 639 583 639 q 538 652 551 639 q 515 683 524 665 q 598 774 564 726 q 632 876 632 822 q 607 943 632 919 q 533 967 582 967 m 751 1200 q 664 1117 701 1156 q 596 1039 626 1079 q 581 1056 585 1044 q 576 1075 576 1068 q 591 1115 576 1088 q 628 1172 606 1143 q 675 1222 650 1200 q 721 1243 700 1243 q 740 1234 732 1243 q 751 1200 749 1225 z "},"Ê":{"ha":693,"x_min":-21,"x_max":749,"o":"m 533 967 q 448 944 485 967 q 386 884 411 922 q 348 795 361 846 q 335 688 335 744 q 338 635 335 663 q 350 579 342 607 q 374 525 358 551 q 415 478 390 499 q 289 431 346 467 q 192 347 232 396 q 130 240 151 297 q 108 128 108 183 q 118 58 108 93 q 149 -7 128 22 q 203 -55 169 -36 q 286 -74 238 -74 q 397 -49 342 -74 q 503 16 453 -25 q 594 111 553 57 q 664 225 636 165 l 683 211 q 601 80 647 140 q 500 -26 554 19 q 383 -96 446 -71 q 250 -121 319 -121 q 138 -101 188 -121 q 52 -46 88 -81 q -2 35 17 -11 q -21 132 -21 81 q 7 258 -21 196 q 84 369 35 319 q 199 451 133 418 q 339 492 264 485 q 259 594 285 536 q 233 711 233 653 q 255 818 233 767 q 315 910 276 869 q 405 974 353 950 q 519 999 457 999 q 638 960 597 999 q 678 849 678 921 q 667 772 678 810 q 639 705 656 735 q 603 657 622 675 q 567 639 583 639 q 538 652 551 639 q 515 683 524 665 q 598 774 564 726 q 632 876 632 822 q 607 943 632 919 q 533 967 582 967 m 479 1082 q 468 1094 471 1088 q 465 1108 465 1101 q 485 1151 465 1129 q 531 1190 504 1172 q 583 1219 557 1207 q 624 1231 610 1231 q 662 1215 640 1231 q 703 1176 683 1199 q 735 1126 722 1153 q 749 1076 749 1099 q 743 1051 749 1063 q 725 1033 738 1040 q 681 1101 706 1074 q 622 1161 656 1129 q 545 1128 579 1146 q 479 1082 511 1110 z "},"Ë":{"ha":693,"x_min":-21,"x_max":768,"o":"m 533 967 q 448 944 485 967 q 386 884 411 922 q 348 795 361 846 q 335 688 335 744 q 338 635 335 663 q 350 579 342 607 q 374 525 358 551 q 415 478 390 499 q 289 431 346 467 q 192 347 232 396 q 130 240 151 297 q 108 128 108 183 q 118 58 108 93 q 149 -7 128 22 q 203 -55 169 -36 q 286 -74 238 -74 q 397 -49 342 -74 q 503 16 453 -25 q 594 111 553 57 q 664 225 636 165 l 683 211 q 601 80 647 140 q 500 -26 554 19 q 383 -96 446 -71 q 250 -121 319 -121 q 138 -101 188 -121 q 52 -46 88 -81 q -2 35 17 -11 q -21 132 -21 81 q 7 258 -21 196 q 84 369 35 319 q 199 451 133 418 q 339 492 264 485 q 259 594 285 536 q 233 711 233 653 q 255 818 233 767 q 315 910 276 869 q 405 974 353 950 q 519 999 457 999 q 638 960 597 999 q 678 849 678 921 q 667 772 678 810 q 639 705 656 735 q 603 657 622 675 q 567 639 583 639 q 538 652 551 639 q 515 683 524 665 q 598 774 564 726 q 632 876 632 822 q 607 943 632 919 q 533 967 582 967 m 486 1075 q 450 1085 465 1075 q 435 1117 435 1094 q 443 1141 435 1129 q 465 1162 451 1153 q 495 1176 479 1171 q 526 1182 511 1182 q 557 1174 546 1182 q 568 1143 568 1165 q 561 1119 568 1131 q 542 1097 554 1107 q 516 1081 531 1088 q 486 1075 501 1075 m 686 1046 q 650 1056 665 1046 q 635 1088 635 1065 q 643 1112 635 1100 q 665 1133 651 1124 q 695 1147 679 1142 q 726 1153 711 1153 q 757 1144 746 1153 q 768 1114 768 1136 q 761 1090 768 1101 q 742 1068 754 1078 q 716 1052 731 1058 q 686 1046 701 1046 z "},"È":{"ha":693,"x_min":-21,"x_max":683,"o":"m 533 967 q 448 944 485 967 q 386 884 411 922 q 348 795 361 846 q 335 688 335 744 q 338 635 335 663 q 350 579 342 607 q 374 525 358 551 q 415 478 390 499 q 289 431 346 467 q 192 347 232 396 q 130 240 151 297 q 108 128 108 183 q 118 58 108 93 q 149 -7 128 22 q 203 -55 169 -36 q 286 -74 238 -74 q 397 -49 342 -74 q 503 16 453 -25 q 594 111 553 57 q 664 225 636 165 l 683 211 q 601 80 647 140 q 500 -26 554 19 q 383 -96 446 -71 q 250 -121 319 -121 q 138 -101 188 -121 q 52 -46 88 -81 q -2 35 17 -11 q -21 132 -21 81 q 7 258 -21 196 q 84 369 35 319 q 199 451 133 418 q 339 492 264 485 q 259 594 285 536 q 233 711 233 653 q 255 818 233 767 q 315 910 276 869 q 405 974 353 950 q 519 999 457 999 q 638 960 597 999 q 678 849 678 921 q 667 772 678 810 q 639 705 656 735 q 603 657 622 675 q 567 639 583 639 q 538 652 551 639 q 515 683 524 665 q 598 774 564 726 q 632 876 632 822 q 607 943 632 919 q 533 967 582 967 m 426 1200 q 438 1234 429 1225 q 457 1243 446 1243 q 503 1222 478 1243 q 550 1172 528 1200 q 587 1115 572 1143 q 601 1075 601 1088 q 597 1056 601 1068 q 582 1039 593 1044 q 514 1117 551 1079 q 426 1200 476 1156 z "},"Ð":{"ha":910,"x_min":44,"x_max":894,"o":"m 44 381 q 103 427 56 413 q 218 446 150 442 q 278 631 250 550 q 319 747 306 711 q 333 780 324 758 q 357 824 343 801 q 389 862 371 846 q 428 878 407 878 q 467 864 447 878 q 388 668 428 775 q 313 449 349 561 q 447 444 385 449 q 540 436 510 439 q 466 403 506 411 q 397 396 426 396 l 296 396 q 222 144 256 267 q 167 -79 189 22 q 199 -83 186 -82 q 226 -85 213 -85 q 371 -56 300 -85 q 504 25 442 -26 q 619 146 567 76 q 710 295 672 215 q 770 462 749 375 q 792 635 792 549 q 771 781 792 719 q 713 883 750 843 q 622 943 675 924 q 507 963 569 963 q 381 942 439 963 q 280 884 322 921 q 213 798 238 847 q 189 692 189 749 q 196 640 189 661 q 131 663 150 640 q 113 718 113 686 q 147 817 113 767 q 241 908 182 867 q 379 974 300 949 q 549 1000 458 1000 q 708 971 642 1000 q 815 890 774 942 q 876 769 857 839 q 894 619 894 700 q 867 426 894 519 q 794 249 840 332 q 683 99 747 167 q 545 -18 619 31 q 390 -94 471 -67 q 228 -121 308 -121 q 145 -109 183 -121 q 79 -58 107 -97 q 103 46 89 -10 q 133 160 117 101 q 166 278 149 218 q 201 394 183 338 q 127 391 161 394 q 44 381 93 388 z "},"€":{"ha":954,"x_min":11,"x_max":863,"o":"m 39 354 q 85 424 42 403 q 194 450 129 444 q 286 658 228 558 q 417 833 344 757 q 569 953 489 908 q 729 999 650 999 q 822 972 786 999 q 857 879 857 944 q 842 788 857 839 q 805 691 828 736 q 753 615 782 646 q 696 583 725 583 q 673 590 685 583 q 653 615 661 597 q 700 674 674 639 q 749 749 726 710 q 786 826 771 788 q 801 894 801 865 q 785 940 801 922 q 733 957 769 957 q 616 914 676 957 q 499 799 556 871 q 394 636 443 728 q 315 449 346 544 q 441 437 382 444 q 549 428 500 429 q 524 402 538 411 q 483 389 510 393 q 413 383 457 385 q 294 379 368 381 q 287 345 290 363 q 281 311 283 328 q 410 299 350 307 q 521 289 471 290 q 496 263 510 272 q 456 250 482 254 q 387 244 431 246 q 271 242 343 243 q 269 217 269 229 q 269 194 269 206 q 281 94 269 143 q 315 8 292 46 q 376 -51 339 -29 q 465 -74 413 -74 q 576 -49 521 -74 q 682 16 632 -25 q 774 111 732 57 q 843 225 815 165 l 863 211 q 782 83 828 143 q 682 -23 736 22 q 565 -94 628 -68 q 432 -121 501 -121 q 306 -92 358 -121 q 222 -15 254 -62 q 174 94 189 33 q 158 218 158 154 l 158 235 q 111 229 135 232 q 58 222 88 226 l 11 215 q 57 285 14 264 q 164 310 100 306 q 169 341 167 325 q 175 372 172 357 l 39 354 z "},"F":{"ha":671,"x_min":92,"x_max":853,"o":"m 99 424 q 115 468 100 450 q 153 498 129 486 q 210 515 178 510 q 281 521 243 519 q 360 730 319 628 q 442 917 401 832 q 415 919 428 918 q 388 919 401 919 q 278 909 321 919 q 210 878 235 899 q 175 825 185 857 q 165 750 165 793 q 169 693 165 718 q 183 640 174 668 q 113 676 135 649 q 92 749 92 704 q 122 848 92 803 q 203 925 151 893 q 325 975 256 957 q 474 993 394 993 q 615 983 547 993 q 750 972 683 972 q 853 986 806 972 q 767 908 801 928 q 696 889 732 889 q 613 897 664 889 q 499 913 563 906 q 469 833 485 878 q 435 736 453 788 q 400 629 418 685 q 365 519 382 574 q 497 507 436 515 q 608 497 558 499 q 583 472 597 481 q 542 458 569 463 q 468 452 515 454 q 344 449 421 450 l 283 242 q 227 15 242 101 q 211 -121 213 -71 q 160 -109 179 -118 q 132 -86 142 -100 q 119 -53 122 -72 q 117 -11 117 -35 q 129 77 117 26 q 161 188 142 128 q 205 313 181 247 q 253 443 229 378 q 203 438 228 440 q 146 431 178 435 l 99 424 z "},"G":{"ha":771,"x_min":31,"x_max":746,"o":"m 618 -121 q 563 -83 583 -107 q 543 -21 543 -58 q 553 43 543 10 q 438 -74 503 -26 q 290 -121 372 -121 q 188 -98 236 -121 q 106 -31 140 -75 q 51 78 71 14 q 31 224 31 142 q 55 405 31 313 q 120 583 79 497 q 217 745 161 669 q 336 877 272 821 q 467 966 400 933 q 601 999 535 999 q 668 985 640 999 q 713 951 696 972 q 738 901 731 929 q 746 842 746 872 q 736 769 746 806 q 710 704 726 733 q 671 657 693 675 q 624 639 649 639 q 601 646 613 639 q 581 671 589 653 q 613 705 594 681 q 649 759 632 729 q 677 822 665 789 q 689 883 689 856 q 670 936 689 915 q 606 957 651 957 q 502 922 556 957 q 397 828 449 888 q 299 692 344 769 q 217 531 253 615 q 162 359 182 446 q 142 196 142 272 q 194 -2 142 69 q 328 -74 247 -74 q 431 -33 382 -74 q 516 69 479 7 q 576 205 553 131 q 606 347 600 279 q 522 362 554 358 q 463 365 490 365 q 424 365 443 365 q 378 364 404 364 q 412 420 388 404 q 472 436 436 436 q 533 428 501 436 q 595 409 564 419 q 655 388 626 399 q 707 371 683 376 l 697 326 q 654 205 671 257 q 628 113 638 153 q 616 42 619 72 q 613 -12 613 13 q 615 -67 613 -40 q 618 -121 617 -93 z "},"H":{"ha":858,"x_min":76,"x_max":878,"o":"m 878 1000 q 845 906 863 961 q 808 785 828 850 q 769 648 789 719 q 732 506 750 576 q 785 502 760 504 q 836 500 811 500 q 776 462 804 468 q 719 456 747 456 q 696 356 707 404 q 676 265 685 308 q 641 63 651 146 q 631 -71 631 -19 q 631 -99 631 -87 q 633 -121 632 -111 q 558 -90 579 -115 q 538 -12 538 -65 q 546 78 538 24 q 571 197 554 132 q 601 307 582 239 q 644 454 621 375 q 534 453 581 454 q 450 451 488 453 q 382 449 413 450 q 321 444 351 447 q 271 285 296 364 q 225 140 246 206 q 190 28 204 74 q 172 -32 176 -18 q 128 -101 157 -81 q 76 -121 99 -121 q 96 -23 85 -74 q 124 92 107 28 q 167 239 142 156 q 229 436 192 322 l 138 426 q 170 481 139 461 q 253 511 201 500 q 306 671 276 585 q 371 860 335 757 q 383 898 376 875 q 390 942 390 921 q 387 957 390 953 q 371 961 383 961 q 306 933 338 961 q 251 865 275 906 q 213 780 226 825 q 199 700 199 735 q 206 653 199 674 q 141 676 160 653 q 122 732 122 699 q 151 827 122 779 q 222 913 179 875 q 313 976 264 951 q 400 1000 361 1000 q 451 979 438 1000 q 464 933 464 958 q 460 903 464 918 q 453 874 457 888 l 344 521 q 384 523 364 522 q 425 524 404 524 q 550 520 492 524 q 661 511 608 517 q 703 644 682 578 q 742 766 724 710 q 776 865 761 822 q 801 928 792 908 q 812 948 806 936 q 828 972 818 960 q 850 992 838 983 q 878 1000 863 1000 z "},"I":{"ha":639,"x_min":-53,"x_max":761,"o":"m 114 890 q 190 970 124 943 q 397 997 256 997 q 503 994 449 997 q 606 986 557 990 q 696 977 656 982 q 761 968 736 972 q 691 927 728 935 q 626 919 654 919 q 544 919 582 919 q 475 918 507 919 q 462 845 471 893 q 442 736 453 797 q 417 605 431 675 q 390 465 403 535 q 363 333 376 396 q 338 225 349 271 q 287 74 314 135 q 221 -12 260 14 q 296 -19 257 -15 q 374 -28 335 -24 q 451 -35 414 -32 q 522 -39 489 -39 q 438 -89 482 -79 q 365 -99 394 -99 q 151 -101 253 -100 q -53 -122 49 -103 q -29 -62 -49 -85 q 21 -28 -10 -40 q 90 -14 51 -17 q 174 -11 129 -11 q 224 122 199 43 q 272 291 249 201 q 317 474 294 381 q 358 653 339 568 q 395 808 378 739 q 426 918 413 878 q 331 915 372 917 q 255 910 290 914 q 186 902 219 907 q 114 890 153 897 z "},"Í":{"ha":639,"x_min":-53,"x_max":761,"o":"m 114 890 q 190 970 124 943 q 397 997 256 997 q 503 994 449 997 q 606 986 557 990 q 696 977 656 982 q 761 968 736 972 q 691 927 728 935 q 626 919 654 919 q 544 919 582 919 q 475 918 507 919 q 462 845 471 893 q 442 736 453 797 q 417 605 431 675 q 390 465 403 535 q 363 333 376 396 q 338 225 349 271 q 287 74 314 135 q 221 -12 260 14 q 296 -19 257 -15 q 374 -28 335 -24 q 451 -35 414 -32 q 522 -39 489 -39 q 438 -89 482 -79 q 365 -99 394 -99 q 151 -101 253 -100 q -53 -122 49 -103 q -29 -62 -49 -85 q 21 -28 -10 -40 q 90 -14 51 -17 q 174 -11 129 -11 q 224 122 199 43 q 272 291 249 201 q 317 474 294 381 q 358 653 339 568 q 395 808 378 739 q 426 918 413 878 q 331 915 372 917 q 255 910 290 914 q 186 902 219 907 q 114 890 153 897 m 650 1200 q 563 1117 600 1156 q 494 1039 525 1079 q 479 1056 483 1044 q 475 1075 475 1068 q 490 1115 475 1088 q 526 1172 504 1143 q 574 1222 549 1200 q 619 1243 599 1243 q 639 1234 631 1243 q 650 1200 647 1225 z "},"Î":{"ha":639,"x_min":-53,"x_max":761,"o":"m 114 890 q 190 970 124 943 q 397 997 256 997 q 503 994 449 997 q 606 986 557 990 q 696 977 656 982 q 761 968 736 972 q 691 927 728 935 q 626 919 654 919 q 544 919 582 919 q 475 918 507 919 q 462 845 471 893 q 442 736 453 797 q 417 605 431 675 q 390 465 403 535 q 363 333 376 396 q 338 225 349 271 q 287 74 314 135 q 221 -12 260 14 q 296 -19 257 -15 q 374 -28 335 -24 q 451 -35 414 -32 q 522 -39 489 -39 q 438 -89 482 -79 q 365 -99 394 -99 q 151 -101 253 -100 q -53 -122 49 -103 q -29 -62 -49 -85 q 21 -28 -10 -40 q 90 -14 51 -17 q 174 -11 129 -11 q 224 122 199 43 q 272 291 249 201 q 317 474 294 381 q 358 653 339 568 q 395 808 378 739 q 426 918 413 878 q 331 915 372 917 q 255 910 290 914 q 186 902 219 907 q 114 890 153 897 m 381 1082 q 369 1094 372 1088 q 367 1108 367 1101 q 386 1151 367 1129 q 432 1190 406 1172 q 485 1219 458 1207 q 525 1231 511 1231 q 563 1215 542 1231 q 604 1176 585 1199 q 637 1126 624 1153 q 650 1076 650 1099 q 644 1051 650 1063 q 626 1033 639 1040 q 582 1101 607 1074 q 524 1161 557 1129 q 447 1128 481 1146 q 381 1082 413 1110 z "},"Ï":{"ha":639,"x_min":-53,"x_max":761,"o":"m 114 890 q 190 970 124 943 q 397 997 256 997 q 503 994 449 997 q 606 986 557 990 q 696 977 656 982 q 761 968 736 972 q 691 927 728 935 q 626 919 654 919 q 544 919 582 919 q 475 918 507 919 q 462 845 471 893 q 442 736 453 797 q 417 605 431 675 q 390 465 403 535 q 363 333 376 396 q 338 225 349 271 q 287 74 314 135 q 221 -12 260 14 q 296 -19 257 -15 q 374 -28 335 -24 q 451 -35 414 -32 q 522 -39 489 -39 q 438 -89 482 -79 q 365 -99 394 -99 q 151 -101 253 -100 q -53 -122 49 -103 q -29 -62 -49 -85 q 21 -28 -10 -40 q 90 -14 51 -17 q 174 -11 129 -11 q 224 122 199 43 q 272 291 249 201 q 317 474 294 381 q 358 653 339 568 q 395 808 378 739 q 426 918 413 878 q 331 915 372 917 q 255 910 290 914 q 186 902 219 907 q 114 890 153 897 m 386 1075 q 350 1085 365 1075 q 335 1117 335 1094 q 343 1141 335 1129 q 365 1162 351 1153 q 395 1176 379 1171 q 426 1182 411 1182 q 457 1174 446 1182 q 468 1143 468 1165 q 461 1119 468 1131 q 442 1097 454 1107 q 416 1081 431 1088 q 386 1075 401 1075 m 586 1046 q 550 1056 565 1046 q 535 1088 535 1065 q 543 1112 535 1100 q 565 1133 551 1124 q 595 1147 579 1142 q 626 1153 611 1153 q 657 1144 646 1153 q 668 1114 668 1136 q 661 1090 668 1101 q 642 1068 654 1078 q 616 1052 631 1058 q 586 1046 601 1046 z "},"Ì":{"ha":639,"x_min":-53,"x_max":761,"o":"m 114 890 q 190 970 124 943 q 397 997 256 997 q 503 994 449 997 q 606 986 557 990 q 696 977 656 982 q 761 968 736 972 q 691 927 728 935 q 626 919 654 919 q 544 919 582 919 q 475 918 507 919 q 462 845 471 893 q 442 736 453 797 q 417 605 431 675 q 390 465 403 535 q 363 333 376 396 q 338 225 349 271 q 287 74 314 135 q 221 -12 260 14 q 296 -19 257 -15 q 374 -28 335 -24 q 451 -35 414 -32 q 522 -39 489 -39 q 438 -89 482 -79 q 365 -99 394 -99 q 151 -101 253 -100 q -53 -122 49 -103 q -29 -62 -49 -85 q 21 -28 -10 -40 q 90 -14 51 -17 q 174 -11 129 -11 q 224 122 199 43 q 272 291 249 201 q 317 474 294 381 q 358 653 339 568 q 395 808 378 739 q 426 918 413 878 q 331 915 372 917 q 255 910 290 914 q 186 902 219 907 q 114 890 153 897 m 325 1200 q 336 1234 328 1225 q 356 1243 344 1243 q 401 1222 376 1243 q 449 1172 426 1200 q 485 1115 471 1143 q 500 1075 500 1088 q 496 1056 500 1068 q 481 1039 492 1044 q 413 1117 450 1079 q 325 1200 375 1156 z "},"J":{"ha":572,"x_min":-43,"x_max":708,"o":"m 192 899 q 252 972 199 946 q 418 997 306 997 q 503 994 460 997 q 585 986 546 990 q 657 977 625 982 q 708 968 689 972 q 687 947 700 956 q 658 935 674 939 q 628 929 643 931 q 601 928 613 928 q 549 927 574 928 q 503 926 525 926 q 525 896 518 915 q 532 861 532 876 q 525 799 532 846 q 506 687 518 753 q 475 542 493 621 q 435 381 457 463 q 388 223 413 300 q 335 85 363 146 q 279 -17 307 22 q 224 -80 251 -57 q 167 -111 196 -103 q 107 -119 138 -119 q 56 -113 82 -119 q 8 -87 29 -107 q -28 -33 -14 -68 q -43 61 -43 3 q -35 143 -43 101 q -15 218 -28 185 q 18 273 -1 251 q 63 294 38 294 q 101 283 79 294 q 51 61 51 156 q 74 -36 51 -1 q 139 -71 96 -71 q 172 -64 157 -71 q 203 -40 188 -57 q 233 4 218 -24 q 263 75 247 32 q 301 195 281 125 q 342 345 321 265 q 382 508 363 425 q 419 669 401 592 q 450 814 436 747 q 472 926 464 881 q 383 924 421 926 q 313 919 344 922 q 253 912 282 917 q 192 899 225 907 z "},"K":{"ha":821,"x_min":42,"x_max":840,"o":"m 828 1000 q 838 971 835 992 q 840 939 840 950 q 815 862 840 904 q 747 774 789 819 q 652 683 706 729 q 542 595 599 638 q 432 515 486 553 q 335 447 378 476 q 415 313 376 376 q 501 188 454 250 q 611 62 549 126 q 763 -75 674 -3 q 732 -108 753 -94 q 688 -121 711 -121 q 629 -94 663 -121 q 560 -25 596 -68 q 486 74 524 18 q 414 188 449 129 q 350 302 379 246 q 300 404 321 358 l 165 -32 q 144 -69 158 -56 q 113 -88 131 -82 q 77 -95 96 -94 q 42 -96 58 -96 q 72 -24 56 -64 q 107 68 88 15 q 151 192 126 121 q 208 358 175 263 q 283 576 240 453 q 379 860 325 700 q 390 891 383 871 q 397 928 397 911 q 390 952 397 943 q 364 961 383 961 q 299 933 331 961 q 244 865 268 906 q 206 780 219 825 q 192 700 192 735 q 199 653 192 674 q 134 676 153 653 q 115 732 115 699 q 144 827 115 779 q 215 913 172 875 q 306 976 257 951 q 393 1000 354 1000 q 444 979 431 1000 q 457 933 457 958 q 453 903 457 918 q 446 874 450 888 l 329 496 q 380 547 349 524 q 449 601 411 571 q 548 686 494 639 q 653 786 601 733 q 750 894 704 839 q 828 1000 796 949 z "},"L":{"ha":793,"x_min":-103,"x_max":786,"o":"m 36 -74 q -24 -61 3 -74 q -67 -31 -50 -49 q -94 9 -85 -12 q -103 47 -103 31 q -81 90 -103 72 q -1 108 -58 108 q 78 100 35 108 q 169 79 122 92 q 217 178 194 122 q 260 295 239 233 q 301 424 281 357 q 343 556 322 490 q 242 617 278 576 q 206 704 206 657 q 212 742 206 722 q 229 777 218 761 q 256 803 240 793 q 292 814 272 814 q 277 773 281 799 q 274 728 274 747 q 296 640 274 675 q 353 585 318 604 q 410 743 379 668 q 476 875 440 818 q 556 966 513 932 q 651 1000 599 1000 q 696 994 672 1000 q 740 971 719 988 q 773 927 760 954 q 786 858 786 900 q 766 754 786 810 q 705 651 746 699 q 601 571 664 603 q 453 539 539 539 l 431 539 q 387 409 410 475 q 340 281 364 343 q 288 163 315 219 q 231 61 261 107 q 327 31 278 46 q 424 3 376 15 q 515 -17 471 -10 q 599 -25 560 -25 q 697 -3 654 -25 q 638 -94 674 -68 q 551 -121 601 -121 q 470 -108 514 -121 q 380 -77 426 -96 q 285 -35 333 -58 q 190 8 238 -12 q 118 -52 156 -31 q 36 -74 81 -74 m 661 965 q 600 933 629 965 q 544 845 571 900 q 491 718 517 790 q 439 565 465 646 q 552 602 501 565 q 638 690 603 639 q 692 798 674 742 q 711 896 711 854 q 696 951 711 936 q 661 965 681 965 m 31 -33 q 88 -17 61 -33 q 138 31 114 0 q 53 60 93 49 q -21 72 13 72 q -57 65 -47 72 q -67 46 -67 58 q -60 19 -67 33 q -40 -6 -53 6 q -8 -26 -26 -18 q 31 -33 10 -33 z "},"M":{"ha":1061,"x_min":-24,"x_max":1032,"o":"m 1032 972 q 1004 898 1021 947 q 969 778 988 849 q 925 583 947 692 q 885 366 903 475 q 855 158 867 257 q 843 -7 843 60 q 844 -44 843 -31 q 849 -70 846 -58 q 856 -93 851 -82 q 864 -121 860 -104 q 806 -112 828 -121 q 771 -85 783 -104 q 754 -37 758 -67 q 750 35 750 -8 q 792 390 750 201 q 889 783 835 578 q 819 678 856 740 q 746 543 782 615 q 674 393 710 471 q 609 243 639 315 q 555 108 579 171 q 517 4 531 46 q 506 0 508 1 q 496 -1 503 -1 q 447 43 458 -1 q 435 168 435 88 q 438 304 435 225 q 446 465 442 383 q 453 625 450 547 q 457 758 457 703 q 456 803 457 786 q 454 836 456 821 q 269 396 343 578 q 142 99 194 214 q 52 -68 90 -15 q -24 -121 14 -121 q 23 -19 -15 -103 q 120 197 61 65 q 256 497 179 328 q 417 856 332 665 q 426 881 421 865 q 431 913 431 897 q 422 938 431 928 q 383 949 413 949 q 306 925 339 949 q 253 865 274 901 q 222 783 232 828 q 211 696 211 738 q 212 672 211 682 q 214 653 213 663 q 181 664 194 653 q 158 692 167 675 q 144 730 149 710 q 140 767 140 750 q 165 855 140 813 q 230 929 190 897 q 317 981 269 961 q 411 1000 365 1000 q 471 987 444 1000 q 515 939 497 974 q 542 844 533 904 q 551 689 551 783 q 548 552 551 624 q 539 408 544 481 q 528 268 533 336 q 522 142 524 200 q 573 292 540 213 q 644 450 606 371 q 724 605 682 529 q 804 744 767 681 q 872 854 842 807 q 918 925 903 901 q 951 967 938 953 q 988 982 964 982 q 1032 972 1007 982 z "},"N":{"ha":890,"x_min":64,"x_max":921,"o":"m 921 1000 q 867 843 896 936 q 807 644 838 750 q 747 425 776 538 q 696 209 718 313 q 659 19 674 106 q 644 -121 644 -67 q 574 -96 600 -121 q 536 -8 547 -71 q 519 92 529 28 q 497 233 508 156 q 472 394 485 310 q 448 558 460 479 q 426 706 436 638 q 410 818 415 774 q 313 470 354 618 q 240 218 271 322 q 185 48 208 114 q 142 -56 161 -18 q 103 -107 122 -93 q 64 -121 85 -121 q 106 27 81 -54 q 166 223 131 108 q 249 492 201 338 q 358 860 296 647 q 365 884 361 867 q 368 917 368 901 q 363 940 368 931 q 347 949 358 949 q 284 923 314 949 q 233 859 254 897 q 199 778 211 821 q 186 701 186 735 q 193 653 186 674 q 128 676 147 653 q 110 732 110 699 q 138 827 110 779 q 208 913 167 875 q 299 976 250 951 q 388 1000 347 1000 q 456 964 429 1000 q 501 867 483 928 q 528 728 518 807 q 549 567 539 650 q 565 428 557 497 q 582 298 574 360 q 597 185 590 236 q 610 100 604 133 q 638 249 619 165 q 680 420 657 332 q 728 594 703 508 q 774 751 753 681 q 812 871 796 822 q 833 932 828 919 q 846 952 838 940 q 865 974 854 964 q 891 992 876 985 q 921 1000 906 1000 z "},"Ñ":{"ha":890,"x_min":64,"x_max":921,"o":"m 921 1000 q 867 843 896 936 q 807 644 838 750 q 747 425 776 538 q 696 209 718 313 q 659 19 674 106 q 644 -121 644 -67 q 574 -96 600 -121 q 536 -8 547 -71 q 519 92 529 28 q 497 233 508 156 q 472 394 485 310 q 448 558 460 479 q 426 706 436 638 q 410 818 415 774 q 313 470 354 618 q 240 218 271 322 q 185 48 208 114 q 142 -56 161 -18 q 103 -107 122 -93 q 64 -121 85 -121 q 106 27 81 -54 q 166 223 131 108 q 249 492 201 338 q 358 860 296 647 q 365 884 361 867 q 368 917 368 901 q 363 940 368 931 q 347 949 358 949 q 284 923 314 949 q 233 859 254 897 q 199 778 211 821 q 186 701 186 735 q 193 653 186 674 q 128 676 147 653 q 110 732 110 699 q 138 827 110 779 q 208 913 167 875 q 299 976 250 951 q 388 1000 347 1000 q 456 964 429 1000 q 501 867 483 928 q 528 728 518 807 q 549 567 539 650 q 565 428 557 497 q 582 298 574 360 q 597 185 590 236 q 610 100 604 133 q 638 249 619 165 q 680 420 657 332 q 728 594 703 508 q 774 751 753 681 q 812 871 796 822 q 833 932 828 919 q 846 952 838 940 q 865 974 854 964 q 891 992 876 985 q 921 1000 906 1000 m 431 1054 q 486 1104 458 1090 q 546 1118 514 1118 q 606 1108 575 1118 q 671 1088 638 1099 q 740 1067 704 1076 q 815 1057 776 1057 q 857 1061 836 1057 q 805 1022 832 1033 q 749 1011 778 1011 q 688 1019 719 1011 q 625 1038 657 1028 q 560 1057 593 1049 q 494 1065 528 1065 q 431 1054 458 1065 z "},"O":{"ha":867,"x_min":29,"x_max":836,"o":"m 672 982 q 551 948 613 982 q 431 856 489 914 q 322 719 374 797 q 233 556 271 642 q 174 379 196 469 q 151 204 151 289 q 162 98 151 149 q 195 9 172 47 q 253 -51 218 -29 q 338 -74 288 -74 q 461 -39 403 -74 q 569 54 519 -4 q 658 190 618 113 q 725 354 697 268 q 768 530 753 440 q 783 701 783 619 q 780 764 783 731 q 769 826 776 797 q 751 874 763 854 q 721 893 739 893 q 666 861 696 893 q 610 783 636 829 q 563 686 583 738 q 533 596 542 635 q 482 622 497 604 q 467 664 467 640 q 493 747 467 701 q 558 834 519 793 q 640 903 596 875 q 718 931 683 931 q 777 904 754 931 q 813 838 800 878 q 831 750 826 797 q 836 663 836 703 q 812 429 836 536 q 746 235 788 322 q 650 81 704 147 q 535 -30 596 15 q 413 -98 475 -75 q 296 -121 351 -121 q 188 -97 236 -121 q 103 -27 139 -72 q 49 82 68 18 q 29 224 29 146 q 53 405 29 313 q 119 583 78 497 q 217 745 161 669 q 338 877 274 821 q 469 966 401 933 q 604 999 538 999 q 688 982 656 999 l 672 982 z "},"Œ":{"ha":1111,"x_min":29,"x_max":1149,"o":"m 672 982 q 551 948 613 982 q 431 856 489 914 q 322 719 374 797 q 233 556 271 642 q 174 379 196 469 q 151 204 151 289 q 162 98 151 149 q 195 9 172 47 q 253 -51 218 -29 q 338 -74 288 -74 q 445 -39 393 -74 q 542 54 497 -4 q 623 190 586 113 q 685 354 660 268 q 726 530 711 440 q 740 701 740 619 q 729 838 740 797 q 699 878 718 878 q 662 853 682 878 q 620 788 642 828 q 576 697 599 747 q 533 596 554 646 q 482 622 497 604 q 467 664 467 640 q 493 747 467 701 q 558 834 519 793 q 641 903 597 875 q 721 931 685 931 q 797 935 756 933 q 879 936 838 936 q 961 935 921 936 q 1037 931 1001 933 q 1101 923 1072 928 q 1149 913 1129 918 q 1121 888 1143 897 q 1067 872 1099 878 q 994 865 1035 867 q 913 863 954 863 q 854 865 879 863 q 801 867 829 867 q 811 821 806 854 q 817 758 817 788 q 815 688 817 725 q 810 617 813 651 q 804 553 807 582 q 799 507 801 524 q 958 503 883 507 q 1081 493 1032 500 q 1021 443 1069 461 q 888 425 972 425 q 827 426 850 425 q 785 428 804 426 q 746 263 765 339 q 701 126 726 188 q 642 19 676 65 q 557 -58 607 -28 q 667 -61 611 -61 q 789 -61 722 -61 q 824 -60 803 -61 q 868 -58 844 -60 q 915 -56 892 -57 q 954 -56 938 -56 q 982 -57 976 -56 q 934 -87 975 -75 q 833 -108 893 -100 q 703 -119 774 -115 q 568 -122 632 -122 q 449 -122 510 -122 q 328 -121 389 -121 q 206 -100 261 -121 q 112 -37 151 -79 q 51 70 72 6 q 29 224 29 135 q 53 405 29 313 q 119 583 78 497 q 217 745 161 669 q 338 877 274 821 q 469 966 401 933 q 604 999 538 999 q 688 982 656 999 l 672 982 z "},"Ó":{"ha":867,"x_min":29,"x_max":958,"o":"m 672 982 q 551 948 613 982 q 431 856 489 914 q 322 719 374 797 q 233 556 271 642 q 174 379 196 469 q 151 204 151 289 q 162 98 151 149 q 195 9 172 47 q 253 -51 218 -29 q 338 -74 288 -74 q 461 -39 403 -74 q 569 54 519 -4 q 658 190 618 113 q 725 354 697 268 q 768 530 753 440 q 783 701 783 619 q 780 764 783 731 q 769 826 776 797 q 751 874 763 854 q 721 893 739 893 q 666 861 696 893 q 610 783 636 829 q 563 686 583 738 q 533 596 542 635 q 482 622 497 604 q 467 664 467 640 q 493 747 467 701 q 558 834 519 793 q 640 903 596 875 q 718 931 683 931 q 777 904 754 931 q 813 838 800 878 q 831 750 826 797 q 836 663 836 703 q 812 429 836 536 q 746 235 788 322 q 650 81 704 147 q 535 -30 596 15 q 413 -98 475 -75 q 296 -121 351 -121 q 188 -97 236 -121 q 103 -27 139 -72 q 49 82 68 18 q 29 224 29 146 q 53 405 29 313 q 119 583 78 497 q 217 745 161 669 q 338 877 274 821 q 469 966 401 933 q 604 999 538 999 q 688 982 656 999 l 672 982 m 958 1200 q 871 1117 908 1156 q 803 1039 833 1079 q 788 1056 792 1044 q 783 1075 783 1068 q 798 1115 783 1088 q 835 1172 813 1143 q 882 1222 857 1200 q 928 1243 907 1243 q 947 1234 939 1243 q 958 1200 956 1225 z "},"Ô":{"ha":867,"x_min":29,"x_max":863,"o":"m 672 982 q 551 948 613 982 q 431 856 489 914 q 322 719 374 797 q 233 556 271 642 q 174 379 196 469 q 151 204 151 289 q 162 98 151 149 q 195 9 172 47 q 253 -51 218 -29 q 338 -74 288 -74 q 461 -39 403 -74 q 569 54 519 -4 q 658 190 618 113 q 725 354 697 268 q 768 530 753 440 q 783 701 783 619 q 780 764 783 731 q 769 826 776 797 q 751 874 763 854 q 721 893 739 893 q 666 861 696 893 q 610 783 636 829 q 563 686 583 738 q 533 596 542 635 q 482 622 497 604 q 467 664 467 640 q 493 747 467 701 q 558 834 519 793 q 640 903 596 875 q 718 931 683 931 q 777 904 754 931 q 813 838 800 878 q 831 750 826 797 q 836 663 836 703 q 812 429 836 536 q 746 235 788 322 q 650 81 704 147 q 535 -30 596 15 q 413 -98 475 -75 q 296 -121 351 -121 q 188 -97 236 -121 q 103 -27 139 -72 q 49 82 68 18 q 29 224 29 146 q 53 405 29 313 q 119 583 78 497 q 217 745 161 669 q 338 877 274 821 q 469 966 401 933 q 604 999 538 999 q 688 982 656 999 l 672 982 m 593 1082 q 582 1094 585 1088 q 579 1108 579 1101 q 599 1151 579 1129 q 644 1190 618 1172 q 697 1219 671 1207 q 738 1231 724 1231 q 776 1215 754 1231 q 817 1176 797 1199 q 849 1126 836 1153 q 863 1076 863 1099 q 857 1051 863 1063 q 839 1033 851 1040 q 794 1101 819 1074 q 736 1161 769 1129 q 659 1128 693 1146 q 593 1082 625 1110 z "},"Ö":{"ha":867,"x_min":29,"x_max":875,"o":"m 672 982 q 551 948 613 982 q 431 856 489 914 q 322 719 374 797 q 233 556 271 642 q 174 379 196 469 q 151 204 151 289 q 162 98 151 149 q 195 9 172 47 q 253 -51 218 -29 q 338 -74 288 -74 q 461 -39 403 -74 q 569 54 519 -4 q 658 190 618 113 q 725 354 697 268 q 768 530 753 440 q 783 701 783 619 q 780 764 783 731 q 769 826 776 797 q 751 874 763 854 q 721 893 739 893 q 666 861 696 893 q 610 783 636 829 q 563 686 583 738 q 533 596 542 635 q 482 622 497 604 q 467 664 467 640 q 493 747 467 701 q 558 834 519 793 q 640 903 596 875 q 718 931 683 931 q 777 904 754 931 q 813 838 800 878 q 831 750 826 797 q 836 663 836 703 q 812 429 836 536 q 746 235 788 322 q 650 81 704 147 q 535 -30 596 15 q 413 -98 475 -75 q 296 -121 351 -121 q 188 -97 236 -121 q 103 -27 139 -72 q 49 82 68 18 q 29 224 29 146 q 53 405 29 313 q 119 583 78 497 q 217 745 161 669 q 338 877 274 821 q 469 966 401 933 q 604 999 538 999 q 688 982 656 999 l 672 982 m 593 1075 q 557 1085 572 1075 q 542 1117 542 1094 q 550 1141 542 1129 q 572 1162 558 1153 q 602 1176 586 1171 q 633 1182 618 1182 q 664 1174 653 1182 q 675 1143 675 1165 q 668 1119 675 1131 q 649 1097 661 1107 q 623 1081 638 1088 q 593 1075 608 1075 m 793 1046 q 757 1056 772 1046 q 742 1088 742 1065 q 750 1112 742 1100 q 772 1133 758 1124 q 802 1147 786 1142 q 833 1153 818 1153 q 864 1144 853 1153 q 875 1114 875 1136 q 868 1090 875 1101 q 849 1068 861 1078 q 823 1052 838 1058 q 793 1046 808 1046 z "},"Ò":{"ha":867,"x_min":29,"x_max":836,"o":"m 672 982 q 551 948 613 982 q 431 856 489 914 q 322 719 374 797 q 233 556 271 642 q 174 379 196 469 q 151 204 151 289 q 162 98 151 149 q 195 9 172 47 q 253 -51 218 -29 q 338 -74 288 -74 q 461 -39 403 -74 q 569 54 519 -4 q 658 190 618 113 q 725 354 697 268 q 768 530 753 440 q 783 701 783 619 q 780 764 783 731 q 769 826 776 797 q 751 874 763 854 q 721 893 739 893 q 666 861 696 893 q 610 783 636 829 q 563 686 583 738 q 533 596 542 635 q 482 622 497 604 q 467 664 467 640 q 493 747 467 701 q 558 834 519 793 q 640 903 596 875 q 718 931 683 931 q 777 904 754 931 q 813 838 800 878 q 831 750 826 797 q 836 663 836 703 q 812 429 836 536 q 746 235 788 322 q 650 81 704 147 q 535 -30 596 15 q 413 -98 475 -75 q 296 -121 351 -121 q 188 -97 236 -121 q 103 -27 139 -72 q 49 82 68 18 q 29 224 29 146 q 53 405 29 313 q 119 583 78 497 q 217 745 161 669 q 338 877 274 821 q 469 966 401 933 q 604 999 538 999 q 688 982 656 999 l 672 982 m 607 1200 q 618 1234 610 1225 q 638 1243 626 1243 q 683 1222 658 1243 q 731 1172 708 1200 q 767 1115 753 1143 q 782 1075 782 1088 q 778 1056 782 1068 q 763 1039 774 1044 q 694 1117 732 1079 q 607 1200 657 1156 z "},"Ø":{"ha":867,"x_min":29,"x_max":922,"o":"m 672 982 q 551 948 613 982 q 431 856 489 914 q 322 719 374 797 q 233 556 271 642 q 174 379 196 469 q 151 204 151 289 q 160 103 151 151 q 190 17 169 54 q 288 143 236 74 q 392 288 339 213 q 497 442 444 364 q 599 592 550 519 q 690 730 647 665 q 764 844 732 794 q 747 879 757 865 q 721 893 736 893 q 666 861 696 893 q 610 783 636 829 q 563 686 583 738 q 533 596 542 635 q 482 622 497 604 q 467 664 467 640 q 493 747 467 701 q 558 834 519 793 q 640 903 596 875 q 718 931 683 931 q 760 918 742 931 q 790 886 778 906 l 796 893 q 837 920 806 908 q 900 932 868 932 q 922 931 915 932 q 888 878 913 917 q 825 786 863 840 q 834 722 832 754 q 836 663 836 690 q 812 429 836 536 q 746 235 788 322 q 650 81 704 147 q 535 -30 596 15 q 413 -98 475 -75 q 296 -121 351 -121 q 183 -94 236 -121 q 64 -140 118 -140 q 52 -140 57 -140 q 42 -137 47 -139 q 80 -105 58 -126 q 128 -54 101 -83 q 55 61 81 -10 q 29 224 29 132 q 53 405 29 313 q 119 583 78 497 q 217 745 161 669 q 338 877 274 821 q 469 966 401 933 q 604 999 538 999 q 688 982 656 999 l 672 982 m 332 64 q 287 5 308 32 q 242 -44 265 -22 q 285 -66 261 -58 q 338 -74 308 -74 q 461 -39 403 -74 q 569 54 519 -4 q 658 190 618 113 q 725 354 697 268 q 768 530 753 440 q 783 701 783 619 l 783 724 q 662 544 728 642 q 533 355 596 447 q 416 185 469 263 q 332 64 363 107 z "},"Õ":{"ha":867,"x_min":29,"x_max":949,"o":"m 672 982 q 551 948 613 982 q 431 856 489 914 q 322 719 374 797 q 233 556 271 642 q 174 379 196 469 q 151 204 151 289 q 162 98 151 149 q 195 9 172 47 q 253 -51 218 -29 q 338 -74 288 -74 q 461 -39 403 -74 q 569 54 519 -4 q 658 190 618 113 q 725 354 697 268 q 768 530 753 440 q 783 701 783 619 q 780 764 783 731 q 769 826 776 797 q 751 874 763 854 q 721 893 739 893 q 666 861 696 893 q 610 783 636 829 q 563 686 583 738 q 533 596 542 635 q 482 622 497 604 q 467 664 467 640 q 493 747 467 701 q 558 834 519 793 q 640 903 596 875 q 718 931 683 931 q 777 904 754 931 q 813 838 800 878 q 831 750 826 797 q 836 663 836 703 q 812 429 836 536 q 746 235 788 322 q 650 81 704 147 q 535 -30 596 15 q 413 -98 475 -75 q 296 -121 351 -121 q 188 -97 236 -121 q 103 -27 139 -72 q 49 82 68 18 q 29 224 29 146 q 53 405 29 313 q 119 583 78 497 q 217 745 161 669 q 338 877 274 821 q 469 966 401 933 q 604 999 538 999 q 688 982 656 999 l 672 982 m 522 1054 q 578 1104 550 1090 q 638 1118 606 1118 q 698 1108 667 1118 q 763 1088 729 1099 q 832 1067 796 1076 q 907 1057 868 1057 q 949 1061 928 1057 q 897 1022 924 1033 q 840 1011 869 1011 q 780 1019 811 1011 q 717 1038 749 1028 q 652 1057 685 1049 q 586 1065 619 1065 q 522 1054 550 1065 z "},"P":{"ha":733,"x_min":25,"x_max":814,"o":"m 271 411 q 191 129 229 268 q 121 -121 153 -10 q 55 -101 85 -121 q 25 -51 25 -82 q 31 -15 25 -36 q 44 25 38 7 q 126 279 88 161 q 205 508 165 397 q 288 731 244 619 q 386 963 332 842 q 313 942 346 954 q 256 917 281 929 q 215 895 231 904 q 193 886 199 886 q 182 890 189 886 q 167 900 175 894 q 155 912 160 906 q 150 924 150 918 q 211 948 176 935 q 286 973 246 961 q 369 992 326 985 q 457 1000 413 1000 q 582 983 518 1000 q 697 933 646 967 q 781 849 749 899 q 814 732 814 799 q 781 608 814 660 q 697 520 749 556 q 583 463 646 485 q 462 430 521 442 q 355 415 403 418 q 285 411 307 411 l 271 411 m 721 756 q 700 852 721 811 q 644 919 679 893 q 564 958 610 944 q 469 971 518 971 q 369 728 418 869 q 276 433 321 588 q 432 458 353 438 q 575 519 511 479 q 680 617 639 558 q 721 756 721 676 z "},"Q":{"ha":964,"x_min":49,"x_max":881,"o":"m 599 1000 q 807 909 733 1000 q 881 663 881 818 q 857 479 881 575 q 792 293 833 383 q 692 125 750 203 q 567 -6 635 47 q 664 -51 614 -32 q 772 -69 714 -69 q 817 -65 803 -69 q 853 -53 832 -60 q 825 -112 842 -90 q 790 -147 808 -135 q 752 -162 771 -158 q 717 -165 733 -165 q 655 -156 685 -165 q 598 -130 625 -146 q 545 -93 571 -114 q 494 -51 519 -72 q 426 -78 461 -68 q 356 -87 392 -87 q 277 -73 307 -87 q 231 -38 247 -58 q 208 3 214 -18 q 203 35 203 24 q 226 83 203 58 q 304 107 249 107 q 415 80 363 107 q 525 18 468 53 q 635 160 588 74 q 716 344 683 247 q 766 538 749 442 q 783 707 783 633 q 773 811 783 764 q 740 892 763 858 q 683 944 718 925 q 600 963 649 963 q 474 928 533 963 q 363 836 414 894 q 272 701 313 778 q 203 540 232 625 q 160 367 175 456 q 144 200 144 279 q 147 142 144 171 q 156 83 149 113 q 103 99 124 83 q 70 142 82 115 q 53 204 58 169 q 49 276 49 239 q 69 450 49 363 q 124 618 89 538 q 210 768 160 699 q 322 889 261 838 q 453 970 383 940 q 599 1000 524 1000 m 356 -53 q 412 -45 385 -53 q 464 -24 439 -37 q 378 42 421 14 q 290 71 336 71 q 249 58 258 71 q 239 33 239 44 q 244 9 239 24 q 262 -19 249 -6 q 297 -43 275 -33 q 356 -53 319 -53 z "},"R":{"ha":803,"x_min":22,"x_max":807,"o":"m 715 -122 q 685 -154 707 -140 q 644 -168 664 -168 q 585 -141 618 -168 q 517 -69 553 -114 q 443 35 481 -24 q 372 154 406 93 q 308 276 338 215 q 257 385 278 336 q 181 117 217 247 q 114 -121 146 -14 q 50 -101 78 -121 q 22 -51 22 -82 q 28 -15 22 -36 q 42 25 35 7 q 126 280 86 161 q 208 510 167 399 q 294 732 250 621 q 393 965 339 843 q 313 945 349 958 q 252 919 278 932 q 210 896 226 906 q 186 886 193 886 q 175 890 182 886 q 160 900 168 894 q 148 912 153 906 q 143 924 143 918 q 204 948 169 935 q 279 973 239 961 q 364 992 319 985 q 456 1000 408 1000 q 578 985 515 1000 q 691 940 640 971 q 774 859 742 908 q 807 740 807 810 q 775 623 807 672 q 694 540 743 574 q 584 487 644 507 q 466 456 524 467 q 360 442 408 446 q 289 439 313 439 q 370 296 332 365 q 456 158 408 226 q 565 19 503 89 q 715 -122 626 -50 m 714 769 q 692 865 714 826 q 636 926 671 903 q 557 960 601 950 q 465 971 513 971 q 369 741 417 875 q 279 461 322 607 q 432 485 354 465 q 572 542 510 504 q 674 635 635 579 q 714 769 714 692 z "},"S":{"ha":746,"x_min":-8,"x_max":683,"o":"m 142 629 q 169 752 142 688 q 249 872 197 817 q 374 964 300 928 q 538 1000 447 1000 q 651 960 618 1000 q 683 861 683 921 q 673 781 683 824 q 647 697 663 738 q 612 619 631 656 q 576 556 593 582 q 541 576 551 561 q 531 615 531 592 q 543 683 531 644 q 572 760 556 721 q 600 838 588 800 q 613 907 613 876 q 596 951 613 935 q 535 967 579 967 q 413 935 469 967 q 316 858 357 904 q 252 758 275 811 q 229 661 229 704 q 260 573 229 610 q 337 506 290 536 q 437 447 383 475 q 537 381 490 418 q 614 295 583 344 q 644 175 644 246 q 612 48 644 103 q 527 -44 579 -7 q 410 -101 475 -82 q 282 -121 346 -121 q 173 -106 225 -121 q 81 -60 121 -90 q 16 18 40 -29 q -8 128 -8 65 q 9 218 -8 182 q 52 275 26 254 q 109 305 78 296 q 169 314 140 314 q 113 225 132 274 q 93 128 93 176 q 106 54 93 89 q 145 -8 119 19 q 211 -51 171 -35 q 306 -67 251 -67 q 399 -53 353 -67 q 481 -15 444 -40 q 541 48 518 10 q 564 136 564 86 q 533 238 564 196 q 454 315 501 281 q 353 379 407 349 q 251 444 299 410 q 173 523 204 479 q 142 629 142 567 z "},"Š":{"ha":746,"x_min":-8,"x_max":750,"o":"m 142 629 q 169 752 142 688 q 249 872 197 817 q 374 964 300 928 q 538 1000 447 1000 q 651 960 618 1000 q 683 861 683 921 q 673 781 683 824 q 647 697 663 738 q 612 619 631 656 q 576 556 593 582 q 541 576 551 561 q 531 615 531 592 q 543 683 531 644 q 572 760 556 721 q 600 838 588 800 q 613 907 613 876 q 596 951 613 935 q 535 967 579 967 q 413 935 469 967 q 316 858 357 904 q 252 758 275 811 q 229 661 229 704 q 260 573 229 610 q 337 506 290 536 q 437 447 383 475 q 537 381 490 418 q 614 295 583 344 q 644 175 644 246 q 612 48 644 103 q 527 -44 579 -7 q 410 -101 475 -82 q 282 -121 346 -121 q 173 -106 225 -121 q 81 -60 121 -90 q 16 18 40 -29 q -8 128 -8 65 q 9 218 -8 182 q 52 275 26 254 q 109 305 78 296 q 169 314 140 314 q 113 225 132 274 q 93 128 93 176 q 106 54 93 89 q 145 -8 119 19 q 211 -51 171 -35 q 306 -67 251 -67 q 399 -53 353 -67 q 481 -15 444 -40 q 541 48 518 10 q 564 136 564 86 q 533 238 564 196 q 454 315 501 281 q 353 379 407 349 q 251 444 299 410 q 173 523 204 479 q 142 629 142 567 m 736 1182 q 747 1169 744 1176 q 750 1156 750 1163 q 731 1113 750 1135 q 685 1074 711 1092 q 632 1045 658 1057 q 592 1033 606 1033 q 553 1049 575 1033 q 513 1088 532 1065 q 480 1138 493 1111 q 467 1188 467 1165 q 490 1231 467 1218 q 535 1163 510 1190 q 593 1103 560 1135 q 670 1136 636 1118 q 736 1182 704 1154 z "},"T":{"ha":682,"x_min":96,"x_max":882,"o":"m 96 878 q 125 936 99 913 q 196 974 151 960 q 301 994 240 988 q 435 1000 363 1000 q 566 995 506 1000 q 679 985 626 990 q 782 974 732 979 q 882 969 832 969 q 773 915 833 926 q 644 904 713 904 q 596 905 621 904 q 546 906 571 906 q 444 625 501 793 q 328 243 386 457 q 300 142 313 188 q 278 56 288 96 q 263 -20 268 15 q 258 -90 258 -56 q 258 -106 258 -97 q 260 -121 258 -114 q 174 -94 197 -121 q 150 -22 150 -67 q 167 74 150 18 q 201 181 183 129 q 258 341 225 249 q 330 532 292 433 q 408 728 368 631 q 485 906 447 826 q 360 903 413 904 q 263 899 307 901 q 181 891 219 896 q 96 878 142 886 z "},"Þ":{"ha":707,"x_min":43,"x_max":735,"o":"m 494 983 q 417 804 456 907 q 532 779 475 799 q 634 726 589 760 q 707 646 679 693 q 735 538 735 599 q 706 422 735 471 q 633 337 678 372 q 533 278 589 301 q 421 242 476 256 q 315 224 365 229 q 233 217 265 218 q 184 39 207 125 q 139 -121 161 -47 q 73 -101 103 -121 q 43 -51 43 -82 q 49 -15 43 -36 q 63 25 56 6 q 185 398 122 213 q 322 771 247 583 q 244 751 279 764 q 181 724 208 738 q 137 701 154 711 q 114 692 119 692 q 103 696 110 692 q 88 706 96 700 q 76 717 81 711 q 71 729 71 724 q 124 751 94 739 q 188 773 154 763 q 259 792 222 783 q 335 803 296 800 q 357 860 344 828 q 384 923 369 893 q 417 974 399 953 q 458 994 435 994 q 494 983 476 994 m 642 561 q 622 655 642 615 q 570 720 603 694 q 495 759 538 746 q 406 775 453 772 q 320 517 361 654 q 240 243 279 381 q 384 274 313 251 q 513 336 456 297 q 606 431 571 375 q 642 561 642 488 z "},"U":{"ha":982,"x_min":35,"x_max":988,"o":"m 843 -104 q 794 -130 817 -122 q 751 -137 771 -137 q 669 -94 699 -137 q 639 10 639 -50 q 642 62 639 29 q 651 136 644 94 q 594 32 625 79 q 526 -49 563 -15 q 445 -102 489 -83 q 351 -121 401 -121 q 216 -67 261 -121 q 171 68 171 -12 q 184 173 171 113 q 216 301 197 233 q 258 442 235 369 q 299 586 281 515 q 331 722 318 657 q 344 839 344 786 q 267 961 344 961 q 201 936 229 961 q 156 875 174 911 q 128 797 138 839 q 119 721 119 754 q 131 653 119 679 q 56 681 78 653 q 35 749 35 708 q 56 836 35 792 q 113 917 76 881 q 198 977 150 954 q 300 1000 246 1000 q 410 954 376 1000 q 443 832 443 908 q 417 657 443 756 q 358 457 390 558 q 299 259 325 356 q 272 90 272 163 q 299 -20 272 25 q 389 -65 326 -65 q 493 -27 446 -65 q 576 67 540 11 q 638 190 613 124 q 676 311 663 256 q 713 458 693 381 q 752 613 732 536 q 794 759 772 689 q 837 883 815 829 q 878 968 858 936 q 918 1000 899 1000 q 949 988 929 1000 q 988 956 968 976 q 952 896 975 947 q 901 767 929 844 q 842 593 872 689 q 788 400 813 497 q 748 213 764 303 q 732 58 732 124 q 738 -22 732 10 q 758 -71 744 -53 q 792 -97 771 -89 q 843 -104 814 -104 z "},"Ú":{"ha":982,"x_min":35,"x_max":988,"o":"m 843 -104 q 794 -130 817 -122 q 751 -137 771 -137 q 669 -94 699 -137 q 639 10 639 -50 q 642 62 639 29 q 651 136 644 94 q 594 32 625 79 q 526 -49 563 -15 q 445 -102 489 -83 q 351 -121 401 -121 q 216 -67 261 -121 q 171 68 171 -12 q 184 173 171 113 q 216 301 197 233 q 258 442 235 369 q 299 586 281 515 q 331 722 318 657 q 344 839 344 786 q 267 961 344 961 q 201 936 229 961 q 156 875 174 911 q 128 797 138 839 q 119 721 119 754 q 131 653 119 679 q 56 681 78 653 q 35 749 35 708 q 56 836 35 792 q 113 917 76 881 q 198 977 150 954 q 300 1000 246 1000 q 410 954 376 1000 q 443 832 443 908 q 417 657 443 756 q 358 457 390 558 q 299 259 325 356 q 272 90 272 163 q 299 -20 272 25 q 389 -65 326 -65 q 493 -27 446 -65 q 576 67 540 11 q 638 190 613 124 q 676 311 663 256 q 713 458 693 381 q 752 613 732 536 q 794 759 772 689 q 837 883 815 829 q 878 968 858 936 q 918 1000 899 1000 q 949 988 929 1000 q 988 956 968 976 q 952 896 975 947 q 901 767 929 844 q 842 593 872 689 q 788 400 813 497 q 748 213 764 303 q 732 58 732 124 q 738 -22 732 10 q 758 -71 744 -53 q 792 -97 771 -89 q 843 -104 814 -104 m 818 1200 q 731 1117 768 1156 q 663 1039 693 1079 q 647 1056 651 1044 q 643 1075 643 1068 q 658 1115 643 1088 q 694 1172 672 1143 q 742 1222 717 1200 q 788 1243 767 1243 q 807 1234 799 1243 q 818 1200 815 1225 z "},"Û":{"ha":982,"x_min":35,"x_max":988,"o":"m 843 -104 q 794 -130 817 -122 q 751 -137 771 -137 q 669 -94 699 -137 q 639 10 639 -50 q 642 62 639 29 q 651 136 644 94 q 594 32 625 79 q 526 -49 563 -15 q 445 -102 489 -83 q 351 -121 401 -121 q 216 -67 261 -121 q 171 68 171 -12 q 184 173 171 113 q 216 301 197 233 q 258 442 235 369 q 299 586 281 515 q 331 722 318 657 q 344 839 344 786 q 267 961 344 961 q 201 936 229 961 q 156 875 174 911 q 128 797 138 839 q 119 721 119 754 q 131 653 119 679 q 56 681 78 653 q 35 749 35 708 q 56 836 35 792 q 113 917 76 881 q 198 977 150 954 q 300 1000 246 1000 q 410 954 376 1000 q 443 832 443 908 q 417 657 443 756 q 358 457 390 558 q 299 259 325 356 q 272 90 272 163 q 299 -20 272 25 q 389 -65 326 -65 q 493 -27 446 -65 q 576 67 540 11 q 638 190 613 124 q 676 311 663 256 q 713 458 693 381 q 752 613 732 536 q 794 759 772 689 q 837 883 815 829 q 878 968 858 936 q 918 1000 899 1000 q 949 988 929 1000 q 988 956 968 976 q 952 896 975 947 q 901 767 929 844 q 842 593 872 689 q 788 400 813 497 q 748 213 764 303 q 732 58 732 124 q 738 -22 732 10 q 758 -71 744 -53 q 792 -97 771 -89 q 843 -104 814 -104 m 549 1082 q 538 1094 540 1088 q 535 1108 535 1101 q 554 1151 535 1129 q 600 1190 574 1172 q 653 1219 626 1207 q 693 1231 679 1231 q 731 1215 710 1231 q 772 1176 753 1199 q 805 1126 792 1153 q 818 1076 818 1099 q 813 1051 818 1063 q 794 1033 807 1040 q 750 1101 775 1074 q 692 1161 725 1129 q 615 1128 649 1146 q 549 1082 581 1110 z "},"Ü":{"ha":982,"x_min":35,"x_max":988,"o":"m 843 -104 q 794 -130 817 -122 q 751 -137 771 -137 q 669 -94 699 -137 q 639 10 639 -50 q 642 62 639 29 q 651 136 644 94 q 594 32 625 79 q 526 -49 563 -15 q 445 -102 489 -83 q 351 -121 401 -121 q 216 -67 261 -121 q 171 68 171 -12 q 184 173 171 113 q 216 301 197 233 q 258 442 235 369 q 299 586 281 515 q 331 722 318 657 q 344 839 344 786 q 267 961 344 961 q 201 936 229 961 q 156 875 174 911 q 128 797 138 839 q 119 721 119 754 q 131 653 119 679 q 56 681 78 653 q 35 749 35 708 q 56 836 35 792 q 113 917 76 881 q 198 977 150 954 q 300 1000 246 1000 q 410 954 376 1000 q 443 832 443 908 q 417 657 443 756 q 358 457 390 558 q 299 259 325 356 q 272 90 272 163 q 299 -20 272 25 q 389 -65 326 -65 q 493 -27 446 -65 q 576 67 540 11 q 638 190 613 124 q 676 311 663 256 q 713 458 693 381 q 752 613 732 536 q 794 759 772 689 q 837 883 815 829 q 878 968 858 936 q 918 1000 899 1000 q 949 988 929 1000 q 988 956 968 976 q 952 896 975 947 q 901 767 929 844 q 842 593 872 689 q 788 400 813 497 q 748 213 764 303 q 732 58 732 124 q 738 -22 732 10 q 758 -71 744 -53 q 792 -97 771 -89 q 843 -104 814 -104 m 583 1075 q 547 1085 563 1075 q 532 1117 532 1094 q 540 1141 532 1129 q 563 1162 549 1153 q 592 1176 576 1171 q 624 1182 608 1182 q 654 1174 643 1182 q 665 1143 665 1165 q 658 1119 665 1131 q 640 1097 651 1107 q 613 1081 628 1088 q 583 1075 599 1075 m 783 1046 q 747 1056 763 1046 q 732 1088 732 1065 q 740 1112 732 1100 q 763 1133 749 1124 q 792 1147 776 1142 q 824 1153 808 1153 q 854 1144 843 1153 q 865 1114 865 1136 q 858 1090 865 1101 q 840 1068 851 1078 q 813 1052 828 1058 q 783 1046 799 1046 z "},"Ù":{"ha":982,"x_min":35,"x_max":988,"o":"m 843 -104 q 794 -130 817 -122 q 751 -137 771 -137 q 669 -94 699 -137 q 639 10 639 -50 q 642 62 639 29 q 651 136 644 94 q 594 32 625 79 q 526 -49 563 -15 q 445 -102 489 -83 q 351 -121 401 -121 q 216 -67 261 -121 q 171 68 171 -12 q 184 173 171 113 q 216 301 197 233 q 258 442 235 369 q 299 586 281 515 q 331 722 318 657 q 344 839 344 786 q 267 961 344 961 q 201 936 229 961 q 156 875 174 911 q 128 797 138 839 q 119 721 119 754 q 131 653 119 679 q 56 681 78 653 q 35 749 35 708 q 56 836 35 792 q 113 917 76 881 q 198 977 150 954 q 300 1000 246 1000 q 410 954 376 1000 q 443 832 443 908 q 417 657 443 756 q 358 457 390 558 q 299 259 325 356 q 272 90 272 163 q 299 -20 272 25 q 389 -65 326 -65 q 493 -27 446 -65 q 576 67 540 11 q 638 190 613 124 q 676 311 663 256 q 713 458 693 381 q 752 613 732 536 q 794 759 772 689 q 837 883 815 829 q 878 968 858 936 q 918 1000 899 1000 q 949 988 929 1000 q 988 956 968 976 q 952 896 975 947 q 901 767 929 844 q 842 593 872 689 q 788 400 813 497 q 748 213 764 303 q 732 58 732 124 q 738 -22 732 10 q 758 -71 744 -53 q 792 -97 771 -89 q 843 -104 814 -104 m 585 1200 q 596 1234 588 1225 q 615 1243 604 1243 q 661 1222 636 1243 q 708 1172 686 1200 q 745 1115 731 1143 q 760 1075 760 1088 q 756 1056 760 1068 q 740 1039 751 1044 q 672 1117 710 1079 q 585 1200 635 1156 z "},"V":{"ha":879,"x_min":35,"x_max":897,"o":"m 319 -78 q 410 -37 358 -78 q 516 70 461 3 q 623 224 571 138 q 717 404 675 311 q 783 588 758 497 q 808 756 808 679 q 788 857 808 825 q 732 900 767 889 q 773 949 751 933 q 813 964 794 964 q 869 926 842 964 q 897 810 897 889 q 868 635 897 733 q 791 433 839 536 q 681 231 743 331 q 551 53 618 131 q 416 -73 483 -25 q 292 -121 349 -121 q 256 -117 276 -121 q 217 -100 236 -112 q 185 -66 199 -87 q 172 -10 172 -44 q 199 130 172 42 q 260 325 226 218 q 320 547 293 432 q 347 767 347 663 q 346 840 347 806 q 336 902 344 875 q 311 945 328 929 q 264 961 294 961 q 198 938 225 961 q 153 878 171 914 q 128 803 136 843 q 121 728 121 763 q 133 653 121 682 q 57 683 79 653 q 35 753 35 713 q 56 840 35 796 q 111 919 76 883 q 192 977 146 954 q 289 1000 238 1000 q 418 933 376 1000 q 460 753 460 865 q 432 540 460 651 q 370 323 404 428 q 308 127 336 218 q 281 -24 281 36 q 288 -62 281 -47 q 319 -78 296 -78 z "},"W":{"ha":1260,"x_min":35,"x_max":1276,"o":"m 731 549 q 795 525 776 549 q 814 481 814 501 q 790 397 814 453 q 737 272 765 342 q 684 125 708 201 q 660 -19 660 49 q 667 -62 660 -46 q 699 -78 674 -78 q 789 -37 738 -78 q 895 70 840 3 q 1002 224 950 138 q 1096 404 1054 311 q 1163 588 1138 497 q 1188 756 1188 679 q 1167 857 1188 825 q 1111 900 1146 889 q 1152 949 1131 933 q 1192 964 1174 964 q 1249 926 1221 964 q 1276 810 1276 889 q 1247 635 1276 733 q 1170 433 1218 536 q 1060 231 1122 331 q 930 53 997 131 q 795 -73 863 -25 q 671 -121 728 -121 q 630 -115 651 -121 q 591 -96 608 -108 q 563 -64 574 -83 q 551 -17 551 -44 q 559 36 551 4 q 579 108 567 68 q 507 16 543 58 q 434 -56 471 -26 q 361 -103 397 -86 q 292 -121 325 -121 q 256 -117 276 -121 q 217 -100 236 -112 q 185 -66 199 -87 q 172 -10 172 -44 q 199 130 172 42 q 260 325 226 218 q 320 547 293 432 q 347 767 347 663 q 346 840 347 806 q 336 902 344 875 q 311 945 328 929 q 264 961 294 961 q 198 938 225 961 q 153 878 171 914 q 128 803 136 843 q 121 728 121 763 q 133 653 121 682 q 57 683 79 653 q 35 753 35 713 q 56 840 35 796 q 111 919 76 883 q 192 977 146 954 q 289 1000 238 1000 q 418 933 376 1000 q 460 753 460 865 q 432 540 460 651 q 370 324 404 429 q 308 127 336 218 q 281 -24 281 36 q 289 -64 281 -50 q 322 -78 297 -78 q 399 -44 357 -78 q 485 43 442 -11 q 570 166 529 97 q 645 304 611 235 q 702 438 679 374 q 731 549 725 503 z "},"X":{"ha":921,"x_min":35,"x_max":906,"o":"m 829 1003 q 851 976 840 996 q 861 936 861 956 q 833 853 861 908 q 759 727 806 799 q 651 572 713 656 q 522 401 590 488 q 533 228 525 313 q 555 77 540 143 q 593 -29 569 11 q 653 -69 617 -69 q 754 11 694 -69 q 889 225 814 92 l 906 211 q 831 69 865 131 q 762 -35 796 7 q 692 -99 728 -78 q 615 -121 657 -121 q 522 -83 557 -121 q 465 14 486 -44 q 435 142 444 72 q 422 275 426 213 q 301 130 361 200 q 190 3 242 60 q 98 -96 139 -54 q 35 -156 57 -137 q 42 -117 38 -133 q 56 -86 47 -100 q 76 -59 64 -72 q 103 -29 88 -46 q 269 160 192 67 q 418 342 347 253 q 413 417 415 388 q 409 475 411 446 q 406 544 407 504 q 404 650 406 583 q 401 789 403 731 q 391 885 399 847 q 367 942 383 924 q 322 961 351 961 q 260 938 288 961 q 215 878 233 914 q 188 799 197 842 q 178 721 178 757 q 189 653 178 679 q 115 681 136 653 q 93 749 93 708 q 115 836 93 792 q 172 917 136 881 q 256 977 208 954 q 354 1000 303 1000 q 456 958 422 1000 q 504 845 490 917 q 519 678 518 774 q 521 478 519 583 q 710 766 633 633 q 829 1003 788 899 z "},"Y":{"ha":926,"x_min":32,"x_max":985,"o":"m 246 -25 q 237 -65 239 -46 q 235 -100 235 -85 q 265 -192 235 -158 q 356 -225 294 -225 q 440 -205 403 -225 q 508 -152 478 -185 q 560 -78 538 -119 q 599 8 583 -36 q 627 93 615 51 q 646 168 639 135 q 671 290 657 215 q 704 453 685 365 q 644 355 676 400 q 576 278 613 310 q 496 228 539 246 q 403 210 453 210 q 286 256 321 210 q 251 375 251 301 q 266 493 251 429 q 299 621 281 557 q 331 745 317 685 q 346 853 346 806 q 328 929 346 897 q 267 961 311 961 q 200 936 228 961 q 153 875 172 911 q 126 797 135 839 q 117 721 117 756 q 128 653 117 679 q 53 681 75 653 q 32 749 32 708 q 53 836 32 792 q 110 917 74 881 q 195 977 147 954 q 297 1000 243 1000 q 364 988 336 1000 q 409 955 392 975 q 434 910 426 935 q 442 860 442 885 q 427 765 442 821 q 395 646 413 708 q 363 519 378 583 q 349 399 349 454 q 371 301 349 338 q 446 265 393 265 q 538 297 494 265 q 618 378 581 328 q 686 489 656 428 q 740 611 717 550 q 778 756 758 686 q 819 881 799 826 q 863 967 840 935 q 907 1000 885 1000 q 943 988 921 1000 q 985 956 965 976 q 942 883 961 917 q 908 812 924 850 q 876 727 892 774 q 844 617 861 681 q 805 468 826 553 q 756 269 783 383 q 706 87 733 181 q 633 -84 678 -7 q 522 -210 589 -161 q 354 -260 454 -260 q 279 -251 314 -260 q 219 -226 244 -243 q 178 -185 193 -210 q 163 -129 163 -161 q 183 -67 163 -93 q 246 -25 203 -40 z "},"Ý":{"ha":926,"x_min":32,"x_max":985,"o":"m 246 -25 q 237 -65 239 -46 q 235 -100 235 -85 q 265 -192 235 -158 q 356 -225 294 -225 q 440 -205 403 -225 q 508 -152 478 -185 q 560 -78 538 -119 q 599 8 583 -36 q 627 93 615 51 q 646 168 639 135 q 671 290 657 215 q 704 453 685 365 q 644 355 676 400 q 576 278 613 310 q 496 228 539 246 q 403 210 453 210 q 286 256 321 210 q 251 375 251 301 q 266 493 251 429 q 299 621 281 557 q 331 745 317 685 q 346 853 346 806 q 328 929 346 897 q 267 961 311 961 q 200 936 228 961 q 153 875 172 911 q 126 797 135 839 q 117 721 117 756 q 128 653 117 679 q 53 681 75 653 q 32 749 32 708 q 53 836 32 792 q 110 917 74 881 q 195 977 147 954 q 297 1000 243 1000 q 364 988 336 1000 q 409 955 392 975 q 434 910 426 935 q 442 860 442 885 q 427 765 442 821 q 395 646 413 708 q 363 519 378 583 q 349 399 349 454 q 371 301 349 338 q 446 265 393 265 q 538 297 494 265 q 618 378 581 328 q 686 489 656 428 q 740 611 717 550 q 778 756 758 686 q 819 881 799 826 q 863 967 840 935 q 907 1000 885 1000 q 943 988 921 1000 q 985 956 965 976 q 942 883 961 917 q 908 812 924 850 q 876 727 892 774 q 844 617 861 681 q 805 468 826 553 q 756 269 783 383 q 706 87 733 181 q 633 -84 678 -7 q 522 -210 589 -161 q 354 -260 454 -260 q 279 -251 314 -260 q 219 -226 244 -243 q 178 -185 193 -210 q 163 -129 163 -161 q 183 -67 163 -93 q 246 -25 203 -40 m 831 1200 q 743 1117 781 1156 q 675 1039 706 1079 q 660 1056 664 1044 q 656 1075 656 1068 q 670 1115 656 1088 q 707 1172 685 1143 q 754 1222 729 1200 q 800 1243 779 1243 q 819 1234 811 1243 q 831 1200 828 1225 z "},"Ÿ":{"ha":926,"x_min":32,"x_max":985,"o":"m 246 -25 q 237 -65 239 -46 q 235 -100 235 -85 q 265 -192 235 -158 q 356 -225 294 -225 q 440 -205 403 -225 q 508 -152 478 -185 q 560 -78 538 -119 q 599 8 583 -36 q 627 93 615 51 q 646 168 639 135 q 671 290 657 215 q 704 453 685 365 q 644 355 676 400 q 576 278 613 310 q 496 228 539 246 q 403 210 453 210 q 286 256 321 210 q 251 375 251 301 q 266 493 251 429 q 299 621 281 557 q 331 745 317 685 q 346 853 346 806 q 328 929 346 897 q 267 961 311 961 q 200 936 228 961 q 153 875 172 911 q 126 797 135 839 q 117 721 117 756 q 128 653 117 679 q 53 681 75 653 q 32 749 32 708 q 53 836 32 792 q 110 917 74 881 q 195 977 147 954 q 297 1000 243 1000 q 364 988 336 1000 q 409 955 392 975 q 434 910 426 935 q 442 860 442 885 q 427 765 442 821 q 395 646 413 708 q 363 519 378 583 q 349 399 349 454 q 371 301 349 338 q 446 265 393 265 q 538 297 494 265 q 618 378 581 328 q 686 489 656 428 q 740 611 717 550 q 778 756 758 686 q 819 881 799 826 q 863 967 840 935 q 907 1000 885 1000 q 943 988 921 1000 q 985 956 965 976 q 942 883 961 917 q 908 812 924 850 q 876 727 892 774 q 844 617 861 681 q 805 468 826 553 q 756 269 783 383 q 706 87 733 181 q 633 -84 678 -7 q 522 -210 589 -161 q 354 -260 454 -260 q 279 -251 314 -260 q 219 -226 244 -243 q 178 -185 193 -210 q 163 -129 163 -161 q 183 -67 163 -93 q 246 -25 203 -40 m 575 1075 q 539 1085 554 1075 q 524 1117 524 1094 q 532 1141 524 1129 q 554 1162 540 1153 q 584 1176 568 1171 q 615 1182 600 1182 q 646 1174 635 1182 q 657 1143 657 1165 q 650 1119 657 1131 q 631 1097 643 1107 q 605 1081 619 1088 q 575 1075 590 1075 m 775 1046 q 739 1056 754 1046 q 724 1088 724 1065 q 732 1112 724 1100 q 754 1133 740 1124 q 784 1147 768 1142 q 815 1153 800 1153 q 846 1144 835 1153 q 857 1114 857 1136 q 850 1090 857 1101 q 831 1068 843 1078 q 805 1052 819 1058 q 775 1046 790 1046 z "},"Z":{"ha":878,"x_min":-35,"x_max":917,"o":"m 304 424 q 322 472 306 453 q 367 501 339 490 q 433 517 396 513 q 511 521 469 521 q 542 520 526 521 q 574 518 558 519 q 670 700 628 614 q 736 847 713 786 q 654 875 701 856 q 555 913 607 894 q 449 947 503 932 q 350 961 396 961 q 288 951 317 961 q 238 919 260 942 q 205 857 217 896 q 193 761 193 818 q 199 713 193 731 q 141 745 158 719 q 124 813 124 771 q 195 953 124 906 q 392 1000 267 1000 q 528 986 464 1000 q 650 956 592 972 q 763 925 708 939 q 872 911 818 911 q 896 911 886 911 q 917 914 906 911 q 847 865 879 882 q 771 701 817 793 q 667 510 725 610 q 745 501 708 506 q 814 497 782 497 q 790 472 803 481 q 758 458 778 463 q 708 451 738 453 q 631 449 678 450 q 484 232 561 336 q 328 53 407 128 q 508 0 418 25 q 668 -25 597 -25 q 767 -3 724 -25 q 707 -94 743 -68 q 621 -121 671 -121 q 542 -109 585 -121 q 455 -80 500 -97 q 363 -40 410 -62 q 271 3 317 -18 q 179 -54 224 -33 q 93 -75 135 -75 q 39 -65 63 -75 q -1 -38 15 -54 q -26 -3 -18 -22 q -35 36 -35 17 q -10 87 -35 65 q 72 108 14 108 q 160 98 113 108 q 261 72 208 88 q 398 242 328 143 q 532 446 468 340 q 484 444 506 446 q 442 441 463 443 q 399 437 421 439 q 351 431 378 435 l 304 424 m 86 -37 q 146 -20 114 -37 q 214 28 178 -3 q 126 60 168 47 q 53 72 85 72 q 12 63 22 72 q 1 39 1 53 q 8 14 1 28 q 25 -11 14 0 q 51 -30 36 -22 q 86 -37 67 -37 z "},"Ž":{"ha":878,"x_min":-35,"x_max":917,"o":"m 304 424 q 322 472 306 453 q 367 501 339 490 q 433 517 396 513 q 511 521 469 521 q 542 520 526 521 q 574 518 558 519 q 670 700 628 614 q 736 847 713 786 q 654 875 701 856 q 555 913 607 894 q 449 947 503 932 q 350 961 396 961 q 288 951 317 961 q 238 919 260 942 q 205 857 217 896 q 193 761 193 818 q 199 713 193 731 q 141 745 158 719 q 124 813 124 771 q 195 953 124 906 q 392 1000 267 1000 q 528 986 464 1000 q 650 956 592 972 q 763 925 708 939 q 872 911 818 911 q 896 911 886 911 q 917 914 906 911 q 847 865 879 882 q 771 701 817 793 q 667 510 725 610 q 745 501 708 506 q 814 497 782 497 q 790 472 803 481 q 758 458 778 463 q 708 451 738 453 q 631 449 678 450 q 484 232 561 336 q 328 53 407 128 q 508 0 418 25 q 668 -25 597 -25 q 767 -3 724 -25 q 707 -94 743 -68 q 621 -121 671 -121 q 542 -109 585 -121 q 455 -80 500 -97 q 363 -40 410 -62 q 271 3 317 -18 q 179 -54 224 -33 q 93 -75 135 -75 q 39 -65 63 -75 q -1 -38 15 -54 q -26 -3 -18 -22 q -35 36 -35 17 q -10 87 -35 65 q 72 108 14 108 q 160 98 113 108 q 261 72 208 88 q 398 242 328 143 q 532 446 468 340 q 484 444 506 446 q 442 441 463 443 q 399 437 421 439 q 351 431 378 435 l 304 424 m 86 -37 q 146 -20 114 -37 q 214 28 178 -3 q 126 60 168 47 q 53 72 85 72 q 12 63 22 72 q 1 39 1 53 q 8 14 1 28 q 25 -11 14 0 q 51 -30 36 -22 q 86 -37 67 -37 m 847 1182 q 858 1169 856 1176 q 861 1156 861 1163 q 842 1113 861 1135 q 796 1074 822 1092 q 743 1045 769 1057 q 703 1033 717 1033 q 665 1049 686 1033 q 624 1088 643 1065 q 591 1138 604 1111 q 578 1188 578 1165 q 601 1231 578 1218 q 646 1163 621 1190 q 704 1103 671 1135 q 781 1136 747 1118 q 847 1182 815 1154 z "},"a":{"ha":607,"x_min":-36,"x_max":647,"o":"m 389 294 q 404 290 394 293 q 423 283 414 288 q 438 274 432 279 q 444 260 444 268 q 432 225 444 247 q 404 176 419 203 q 376 120 389 149 q 364 67 364 92 q 375 26 364 46 q 411 6 386 6 q 510 60 449 6 q 633 225 571 114 l 647 211 q 593 108 625 154 q 524 28 561 61 q 449 -24 488 -6 q 372 -42 410 -42 q 297 -11 321 -42 q 272 56 272 19 q 276 96 272 72 q 167 -25 215 15 q 67 -65 118 -65 q -7 -37 22 -65 q -36 50 -36 -8 q -20 139 -36 92 q 24 234 -4 186 q 89 326 51 282 q 169 403 126 369 q 257 456 211 436 q 349 476 303 476 q 439 448 403 476 q 475 372 475 419 q 456 325 475 338 q 407 313 438 313 q 414 361 414 338 q 399 416 414 393 q 346 439 383 439 q 279 419 313 439 q 214 367 246 400 q 154 293 182 335 q 105 208 126 251 q 72 122 83 164 q 60 46 60 79 q 97 -8 60 -8 q 169 25 129 -8 q 250 106 210 58 q 327 205 290 153 q 389 294 364 257 z "},"á":{"ha":607,"x_min":-36,"x_max":647,"o":"m 389 294 q 404 290 394 293 q 423 283 414 288 q 438 274 432 279 q 444 260 444 268 q 432 225 444 247 q 404 176 419 203 q 376 120 389 149 q 364 67 364 92 q 375 26 364 46 q 411 6 386 6 q 510 60 449 6 q 633 225 571 114 l 647 211 q 593 108 625 154 q 524 28 561 61 q 449 -24 488 -6 q 372 -42 410 -42 q 297 -11 321 -42 q 272 56 272 19 q 276 96 272 72 q 167 -25 215 15 q 67 -65 118 -65 q -7 -37 22 -65 q -36 50 -36 -8 q -20 139 -36 92 q 24 234 -4 186 q 89 326 51 282 q 169 403 126 369 q 257 456 211 436 q 349 476 303 476 q 439 448 403 476 q 475 372 475 419 q 456 325 475 338 q 407 313 438 313 q 414 361 414 338 q 399 416 414 393 q 346 439 383 439 q 279 419 313 439 q 214 367 246 400 q 154 293 182 335 q 105 208 126 251 q 72 122 83 164 q 60 46 60 79 q 97 -8 60 -8 q 169 25 129 -8 q 250 106 210 58 q 327 205 290 153 q 389 294 364 257 m 569 740 q 482 658 519 696 q 414 579 444 619 q 399 597 403 585 q 394 615 394 608 q 409 656 394 628 q 446 712 424 683 q 493 762 468 740 q 539 783 518 783 q 558 774 550 783 q 569 740 567 765 z "},"â":{"ha":607,"x_min":-36,"x_max":647,"o":"m 389 294 q 404 290 394 293 q 423 283 414 288 q 438 274 432 279 q 444 260 444 268 q 432 225 444 247 q 404 176 419 203 q 376 120 389 149 q 364 67 364 92 q 375 26 364 46 q 411 6 386 6 q 510 60 449 6 q 633 225 571 114 l 647 211 q 593 108 625 154 q 524 28 561 61 q 449 -24 488 -6 q 372 -42 410 -42 q 297 -11 321 -42 q 272 56 272 19 q 276 96 272 72 q 167 -25 215 15 q 67 -65 118 -65 q -7 -37 22 -65 q -36 50 -36 -8 q -20 139 -36 92 q 24 234 -4 186 q 89 326 51 282 q 169 403 126 369 q 257 456 211 436 q 349 476 303 476 q 439 448 403 476 q 475 372 475 419 q 456 325 475 338 q 407 313 438 313 q 414 361 414 338 q 399 416 414 393 q 346 439 383 439 q 279 419 313 439 q 214 367 246 400 q 154 293 182 335 q 105 208 126 251 q 72 122 83 164 q 60 46 60 79 q 97 -8 60 -8 q 169 25 129 -8 q 250 106 210 58 q 327 205 290 153 q 389 294 364 257 m 322 613 q 311 625 314 618 q 308 639 308 632 q 328 681 308 660 q 374 720 347 703 q 426 749 400 738 q 467 761 453 761 q 505 745 483 761 q 546 706 526 729 q 578 656 565 683 q 592 607 592 629 q 586 582 592 593 q 568 564 581 571 q 524 632 549 604 q 465 692 499 660 q 388 658 422 676 q 322 613 354 640 z "},"´":{"ha":175,"x_min":122,"x_max":297,"o":"m 297 731 q 210 648 247 686 q 142 569 172 610 q 126 587 131 575 q 122 606 122 599 q 137 646 122 618 q 174 702 151 674 q 221 752 196 731 q 267 774 246 774 q 286 765 278 774 q 297 731 294 756 z "},"ä":{"ha":607,"x_min":-36,"x_max":647,"o":"m 389 294 q 404 290 394 293 q 423 283 414 288 q 438 274 432 279 q 444 260 444 268 q 432 225 444 247 q 404 176 419 203 q 376 120 389 149 q 364 67 364 92 q 375 26 364 46 q 411 6 386 6 q 510 60 449 6 q 633 225 571 114 l 647 211 q 593 108 625 154 q 524 28 561 61 q 449 -24 488 -6 q 372 -42 410 -42 q 297 -11 321 -42 q 272 56 272 19 q 276 96 272 72 q 167 -25 215 15 q 67 -65 118 -65 q -7 -37 22 -65 q -36 50 -36 -8 q -20 139 -36 92 q 24 234 -4 186 q 89 326 51 282 q 169 403 126 369 q 257 456 211 436 q 349 476 303 476 q 439 448 403 476 q 475 372 475 419 q 456 325 475 338 q 407 313 438 313 q 414 361 414 338 q 399 416 414 393 q 346 439 383 439 q 279 419 313 439 q 214 367 246 400 q 154 293 182 335 q 105 208 126 251 q 72 122 83 164 q 60 46 60 79 q 97 -8 60 -8 q 169 25 129 -8 q 250 106 210 58 q 327 205 290 153 q 389 294 364 257 m 265 606 q 229 615 244 606 q 214 647 214 625 q 222 672 214 660 q 244 692 231 683 q 274 707 258 701 q 306 713 290 713 q 336 704 325 713 q 347 674 347 696 q 340 649 347 661 q 322 628 333 638 q 295 612 310 618 q 265 606 281 606 m 465 576 q 429 586 444 576 q 414 618 414 596 q 422 642 414 631 q 444 663 431 654 q 474 678 458 672 q 506 683 490 683 q 536 675 525 683 q 547 644 547 667 q 540 620 547 632 q 522 599 533 608 q 495 583 510 589 q 465 576 481 576 z "},"æ":{"ha":756,"x_min":-36,"x_max":800,"o":"m 713 415 q 681 316 713 363 q 600 233 650 269 q 489 174 550 197 q 368 146 428 151 q 364 119 365 132 q 363 96 363 107 q 367 54 363 75 q 385 17 372 33 q 419 -10 397 0 q 472 -21 440 -21 q 561 -1 517 -21 q 646 52 606 18 q 722 131 686 86 q 783 225 757 175 l 800 213 q 732 99 772 150 q 645 13 692 49 q 547 -42 599 -22 q 443 -61 494 -61 q 318 -17 360 -61 q 274 92 276 26 q 165 -26 214 13 q 67 -65 117 -65 q -7 -37 22 -65 q -36 50 -36 -8 q -20 139 -36 92 q 24 234 -4 186 q 89 326 51 282 q 169 403 126 369 q 257 456 211 436 q 349 476 303 476 q 411 461 388 476 q 444 418 435 446 q 534 478 488 456 q 626 500 581 500 q 685 483 658 500 q 713 415 713 467 m 97 -8 q 138 3 115 -8 q 183 35 160 15 q 229 82 206 56 q 276 138 253 108 q 322 267 286 200 q 411 386 358 333 q 390 424 406 410 q 346 439 375 439 q 279 419 313 439 q 214 367 246 400 q 154 293 182 335 q 105 208 126 251 q 72 122 83 164 q 60 46 60 79 q 97 -8 60 -8 m 622 457 q 551 431 589 457 q 479 365 514 406 q 417 273 444 324 q 375 172 389 222 q 460 209 413 185 q 550 267 507 233 q 622 340 593 300 q 651 425 651 381 q 646 449 651 440 q 622 457 640 457 z "},"à":{"ha":607,"x_min":-36,"x_max":647,"o":"m 389 294 q 404 290 394 293 q 423 283 414 288 q 438 274 432 279 q 444 260 444 268 q 432 225 444 247 q 404 176 419 203 q 376 120 389 149 q 364 67 364 92 q 375 26 364 46 q 411 6 386 6 q 510 60 449 6 q 633 225 571 114 l 647 211 q 593 108 625 154 q 524 28 561 61 q 449 -24 488 -6 q 372 -42 410 -42 q 297 -11 321 -42 q 272 56 272 19 q 276 96 272 72 q 167 -25 215 15 q 67 -65 118 -65 q -7 -37 22 -65 q -36 50 -36 -8 q -20 139 -36 92 q 24 234 -4 186 q 89 326 51 282 q 169 403 126 369 q 257 456 211 436 q 349 476 303 476 q 439 448 403 476 q 475 372 475 419 q 456 325 475 338 q 407 313 438 313 q 414 361 414 338 q 399 416 414 393 q 346 439 383 439 q 279 419 313 439 q 214 367 246 400 q 154 293 182 335 q 105 208 126 251 q 72 122 83 164 q 60 46 60 79 q 97 -8 60 -8 q 169 25 129 -8 q 250 106 210 58 q 327 205 290 153 q 389 294 364 257 m 296 731 q 307 765 299 756 q 326 774 315 774 q 372 752 347 774 q 419 702 397 731 q 456 646 442 674 q 471 606 471 618 q 467 587 471 599 q 451 569 463 575 q 383 648 421 610 q 296 731 346 686 z "},"&":{"ha":857,"x_min":-18,"x_max":869,"o":"m 513 340 q 526 388 514 369 q 557 418 538 407 q 602 433 576 429 q 657 438 628 438 q 773 426 719 438 q 869 414 826 415 q 840 376 854 382 q 811 369 825 369 q 767 368 788 368 q 731 368 747 368 q 678 184 721 272 q 570 28 635 96 q 424 -80 506 -39 q 253 -121 342 -121 q 140 -101 190 -121 q 55 -46 90 -81 q 1 35 19 -11 q -18 132 -18 81 q 10 258 -18 196 q 87 369 38 319 q 201 451 136 418 q 342 492 267 485 q 262 594 288 536 q 236 711 236 653 q 258 818 236 767 q 317 910 279 869 q 408 974 356 950 q 524 999 461 999 q 675 851 675 999 q 665 774 675 813 q 640 706 656 736 q 605 658 624 676 q 569 639 586 639 q 540 652 554 639 q 518 683 526 665 q 599 773 567 726 q 632 874 632 819 q 609 944 632 917 q 538 971 586 971 q 451 947 489 971 q 389 885 414 924 q 351 794 364 846 q 338 688 338 743 q 341 635 338 663 q 353 579 344 607 q 377 525 361 551 q 418 478 393 499 q 292 431 349 467 q 194 347 235 396 q 133 240 154 297 q 111 128 111 183 q 121 58 111 93 q 151 -7 131 22 q 206 -55 172 -36 q 289 -74 240 -74 q 432 -36 363 -74 q 556 63 501 1 q 648 204 611 125 q 694 367 685 283 q 655 364 672 365 q 620 360 638 363 q 585 355 603 358 q 546 347 568 351 l 513 340 z "},"å":{"ha":607,"x_min":-36,"x_max":647,"o":"m 389 294 q 404 290 394 293 q 423 283 414 288 q 438 274 432 279 q 444 260 444 268 q 432 225 444 247 q 404 176 419 203 q 376 120 389 149 q 364 67 364 92 q 375 26 364 46 q 411 6 386 6 q 510 60 449 6 q 633 225 571 114 l 647 211 q 593 108 625 154 q 524 28 561 61 q 449 -24 488 -6 q 372 -42 410 -42 q 297 -11 321 -42 q 272 56 272 19 q 276 96 272 72 q 167 -25 215 15 q 67 -65 118 -65 q -7 -37 22 -65 q -36 50 -36 -8 q -20 139 -36 92 q 24 234 -4 186 q 89 326 51 282 q 169 403 126 369 q 257 456 211 436 q 349 476 303 476 q 439 448 403 476 q 475 372 475 419 q 456 325 475 338 q 407 313 438 313 q 414 361 414 338 q 399 416 414 393 q 346 439 383 439 q 279 419 313 439 q 214 367 246 400 q 154 293 182 335 q 105 208 126 251 q 72 122 83 164 q 60 46 60 79 q 97 -8 60 -8 q 169 25 129 -8 q 250 106 210 58 q 327 205 290 153 q 389 294 364 257 m 469 782 q 551 760 528 782 q 575 707 575 739 q 561 654 575 682 q 523 603 547 626 q 467 566 499 581 q 400 551 435 551 q 323 573 346 551 q 300 626 300 594 q 313 678 300 651 q 349 728 326 706 q 403 767 372 751 q 469 782 433 782 m 463 750 q 422 739 442 750 q 388 711 403 728 q 363 674 372 694 q 354 636 354 654 q 368 598 354 617 q 413 579 382 579 q 453 591 433 579 q 488 621 472 603 q 514 660 504 639 q 524 699 524 681 q 509 734 524 718 q 463 750 494 750 z "},"^":{"ha":283,"x_min":0,"x_max":283,"o":"m 14 613 q 3 625 6 618 q 0 639 0 632 q 19 681 0 660 q 65 720 39 703 q 118 749 92 738 q 158 761 144 761 q 197 745 175 761 q 238 706 218 729 q 270 656 257 683 q 283 607 283 629 q 278 582 283 593 q 260 564 272 571 q 215 632 240 604 q 157 692 190 660 q 80 658 114 676 q 14 613 46 640 z "},"~":{"ha":606,"x_min":42,"x_max":468,"o":"m 42 222 q 97 272 69 258 q 157 286 125 286 q 217 276 186 286 q 282 256 249 267 q 351 235 315 244 q 426 225 388 225 q 468 229 447 225 q 416 190 443 201 q 360 179 389 179 q 299 188 331 179 q 236 206 268 196 q 172 225 204 217 q 106 233 139 233 q 42 222 69 233 z "},"*":{"ha":544,"x_min":147,"x_max":588,"o":"m 213 567 q 242 613 231 592 q 265 656 254 635 q 285 699 275 676 q 307 749 294 721 l 271 749 q 233 750 253 749 q 195 756 213 751 q 165 770 178 761 q 147 794 151 779 q 219 798 182 797 q 310 801 257 799 q 262 892 281 850 q 243 961 243 933 q 249 982 243 974 q 263 997 256 990 q 308 903 288 944 q 357 817 328 861 q 386 881 372 850 q 415 935 400 911 q 448 975 431 958 q 489 997 465 992 q 449 910 476 963 q 396 801 422 858 q 430 804 411 803 q 468 806 449 806 q 533 797 501 806 q 588 765 565 789 l 407 749 q 432 712 419 729 q 455 673 444 694 q 472 624 465 651 q 479 561 479 597 q 457 590 471 571 q 426 634 443 610 q 392 685 410 658 q 356 739 374 713 q 320 673 338 704 q 285 618 303 642 q 249 581 267 594 q 213 567 231 567 z "},"@":{"ha":811,"x_min":-10,"x_max":726,"o":"m 475 281 q 503 272 486 279 q 519 253 519 265 q 510 226 519 243 q 488 187 500 208 q 465 142 475 165 q 456 96 456 118 q 464 65 456 81 q 503 50 472 50 q 568 71 536 50 q 625 125 600 92 q 666 201 650 158 q 682 289 682 244 q 668 367 682 328 q 624 438 654 407 q 547 488 593 468 q 433 507 500 507 q 272 472 344 507 q 147 382 199 438 q 68 257 96 326 q 40 117 40 188 q 54 25 40 69 q 98 -55 68 -19 q 176 -112 128 -90 q 294 -133 225 -133 q 445 -106 369 -133 q 592 -15 521 -78 l 600 -26 q 468 -128 547 -87 q 286 -168 389 -168 q 152 -144 208 -168 q 60 -78 96 -119 q 7 15 24 -37 q -10 122 -10 67 q 22 278 -10 201 q 113 415 54 356 q 253 512 171 475 q 433 549 335 549 q 565 527 510 549 q 656 470 619 506 q 709 390 692 435 q 726 297 726 344 q 707 195 726 246 q 655 103 688 144 q 578 38 622 63 q 485 13 535 13 q 417 35 439 13 q 396 94 396 57 q 397 109 396 103 q 399 122 397 115 q 217 -7 303 -7 q 158 16 182 -7 q 135 85 135 39 q 163 194 135 135 q 235 306 190 254 q 334 392 279 357 q 443 426 389 426 q 515 403 486 426 q 544 343 544 381 q 529 306 544 315 q 489 296 514 296 q 493 315 492 304 q 494 333 494 325 q 483 378 494 360 q 442 396 471 396 q 388 380 415 396 q 335 338 361 364 q 287 280 310 313 q 247 213 264 247 q 221 144 231 178 q 211 83 211 110 q 242 39 211 39 q 300 65 268 39 q 364 130 332 92 q 425 210 396 168 q 475 281 454 251 z "},"ã":{"ha":607,"x_min":-36,"x_max":647,"o":"m 389 294 q 404 290 394 293 q 423 283 414 288 q 438 274 432 279 q 444 260 444 268 q 432 225 444 247 q 404 176 419 203 q 376 120 389 149 q 364 67 364 92 q 375 26 364 46 q 411 6 386 6 q 510 60 449 6 q 633 225 571 114 l 647 211 q 593 108 625 154 q 524 28 561 61 q 449 -24 488 -6 q 372 -42 410 -42 q 297 -11 321 -42 q 272 56 272 19 q 276 96 272 72 q 167 -25 215 15 q 67 -65 118 -65 q -7 -37 22 -65 q -36 50 -36 -8 q -20 139 -36 92 q 24 234 -4 186 q 89 326 51 282 q 169 403 126 369 q 257 456 211 436 q 349 476 303 476 q 439 448 403 476 q 475 372 475 419 q 456 325 475 338 q 407 313 438 313 q 414 361 414 338 q 399 416 414 393 q 346 439 383 439 q 279 419 313 439 q 214 367 246 400 q 154 293 182 335 q 105 208 126 251 q 72 122 83 164 q 60 46 60 79 q 97 -8 60 -8 q 169 25 129 -8 q 250 106 210 58 q 327 205 290 153 q 389 294 364 257 m 194 594 q 250 644 222 631 q 310 658 278 658 q 370 649 339 658 q 435 628 401 639 q 504 607 468 617 q 579 597 540 597 q 621 601 600 597 q 569 563 596 574 q 513 551 542 551 q 452 560 483 551 q 389 578 421 568 q 324 597 357 589 q 258 606 292 606 q 194 594 222 606 z "},"b":{"ha":549,"x_min":-14,"x_max":593,"o":"m 146 375 q 128 333 139 364 q 106 260 117 301 q 88 172 96 219 q 79 82 79 125 q 97 -12 79 24 q 156 -49 114 -49 q 238 -16 196 -49 q 308 68 281 17 q 232 144 257 94 q 207 247 207 194 q 242 354 207 314 q 324 394 276 394 q 388 362 364 394 q 411 267 411 329 q 399 172 411 221 q 363 78 386 124 q 399 74 379 74 q 464 88 436 74 q 513 125 492 103 q 549 174 533 147 q 576 225 564 201 l 593 207 q 550 128 574 158 q 501 80 526 97 q 448 56 475 63 q 394 49 421 49 q 350 53 371 49 q 258 -56 313 -11 q 129 -101 203 -101 q 22 -54 57 -101 q -14 74 -14 -7 q 10 238 -14 143 q 73 435 35 333 q 159 638 111 538 q 255 816 207 738 q 346 943 303 894 q 418 992 389 992 q 452 963 442 992 q 463 904 463 933 q 436 781 463 856 q 366 628 410 706 q 265 481 322 550 q 146 375 207 413 m 410 879 q 367 839 399 879 q 298 734 336 799 q 222 589 260 669 q 161 429 185 508 q 254 531 208 468 q 336 660 300 594 q 394 784 372 726 q 415 868 415 842 q 410 879 415 879 m 256 240 q 271 161 256 203 q 322 96 286 119 q 346 163 338 128 q 354 236 354 199 q 341 313 354 285 q 308 340 328 340 q 272 312 288 340 q 256 240 256 283 z "},"\\":{"ha":779,"x_min":214,"x_max":590,"o":"m 214 1000 q 269 978 247 1000 q 299 938 292 957 q 336 816 317 889 q 375 655 356 743 q 415 469 394 567 q 454 278 435 372 q 492 96 474 183 q 527 -60 510 8 q 560 -172 544 -128 q 590 -225 576 -217 q 490 -157 531 -215 q 414 31 449 -99 q 383 163 400 78 q 345 349 365 249 q 306 557 325 450 q 268 756 286 664 q 235 914 250 847 q 214 1000 221 981 z "},"|":{"ha":361,"x_min":63,"x_max":246,"o":"m 207 968 q 238 932 231 957 q 246 889 246 907 q 244 784 246 849 q 238 643 242 719 q 230 484 235 567 q 220 324 225 401 q 210 180 215 246 q 200 72 204 114 q 156 -116 188 -49 q 63 -183 125 -183 q 98 -34 82 -131 q 126 179 114 63 q 149 421 139 296 q 169 656 160 546 q 188 850 179 767 q 207 968 197 933 z "},"{":{"ha":363,"x_min":38,"x_max":417,"o":"m 182 451 q 210 410 201 432 q 218 356 218 388 q 201 236 218 290 q 165 134 185 182 q 129 43 146 86 q 113 -42 113 0 q 122 -74 113 -61 q 158 -86 132 -86 q 176 -83 167 -86 q 193 -75 186 -81 q 171 -111 190 -101 q 128 -121 151 -121 q 84 -113 101 -121 q 56 -93 67 -106 q 42 -64 46 -81 q 38 -29 38 -47 q 53 50 38 6 q 89 142 69 94 q 124 235 108 189 q 140 324 140 282 q 131 400 140 365 q 90 460 122 435 q 165 507 142 465 q 199 609 189 549 q 212 738 208 669 q 226 865 215 807 q 261 961 236 922 q 340 1000 286 1000 q 390 985 367 1000 q 417 926 413 969 q 394 940 406 933 q 371 946 382 946 q 324 910 340 946 q 299 821 308 875 q 283 703 290 767 q 265 585 276 640 q 235 492 254 531 q 182 451 217 454 z "},"}":{"ha":357,"x_min":-43,"x_max":350,"o":"m 94 179 q 107 272 100 225 q 126 361 114 319 q 156 435 138 403 q 203 482 175 467 q 176 529 183 504 q 168 582 168 554 q 183 676 168 626 q 217 774 199 726 q 251 863 236 821 q 267 933 267 904 q 265 948 267 942 q 257 954 264 954 q 235 949 251 954 q 200 931 218 944 q 238 981 207 961 q 294 1000 268 1000 q 336 985 322 1000 q 350 953 350 971 q 334 889 350 929 q 299 801 318 849 q 263 701 279 753 q 247 603 247 650 q 256 530 247 567 q 296 471 264 493 q 232 431 256 461 q 195 356 208 400 q 176 260 182 313 q 166 156 171 208 q 156 53 161 103 q 137 -36 150 3 q 100 -98 124 -75 q 36 -121 76 -121 q -15 -106 8 -121 q -43 -47 -39 -90 q 4 -64 -18 -64 q 40 -43 25 -64 q 65 13 54 -22 q 82 91 75 47 q 94 179 89 135 z "},"[":{"ha":547,"x_min":26,"x_max":601,"o":"m 439 -15 q 391 -94 433 -68 q 258 -121 349 -121 q 190 -118 225 -121 q 124 -111 156 -115 q 67 -102 93 -107 q 26 -93 42 -97 q 33 -80 29 -87 q 42 -47 36 -72 q 57 26 47 -22 q 83 159 67 74 q 124 374 100 244 q 182 692 147 504 q 221 835 199 779 q 267 922 243 890 q 317 965 292 953 q 363 976 342 976 q 407 974 381 976 q 463 972 433 972 q 535 978 499 972 q 601 1000 572 983 q 586 940 599 963 q 554 906 574 918 q 509 892 535 894 q 456 889 483 889 q 382 897 419 889 q 307 913 344 906 q 267 772 286 854 q 228 596 247 689 q 192 406 210 503 q 160 222 175 310 q 131 65 144 135 q 106 -44 117 -6 q 229 -43 181 -44 q 313 -39 278 -42 q 377 -31 349 -36 q 439 -15 406 -25 z "},"]":{"ha":571,"x_min":-33,"x_max":543,"o":"m 543 971 q 531 899 539 951 q 511 774 522 846 q 487 619 500 703 q 460 455 474 536 q 433 302 446 374 q 411 183 421 231 q 394 103 404 151 q 363 10 383 56 q 312 -67 343 -35 q 233 -99 281 -99 q 90 -102 161 -99 q -33 -122 18 -106 q -19 -76 -32 -94 q 13 -46 -7 -57 q 59 -30 33 -35 q 113 -25 85 -25 q 194 -29 149 -25 q 285 -36 240 -33 q 324 100 304 19 q 364 272 344 181 q 402 461 383 364 q 438 648 421 558 q 469 813 454 738 q 496 936 483 888 l 408 936 q 271 931 339 936 q 132 907 203 926 q 144 955 132 936 q 180 983 157 974 q 236 997 203 993 q 311 1000 269 1000 q 422 992 363 1000 q 543 971 481 985 z "},"¦":{"ha":363,"x_min":63,"x_max":246,"o":"m 136 274 q 163 292 146 283 q 200 301 181 301 q 214 290 211 301 q 217 269 217 279 q 201 78 210 163 q 176 -64 192 -6 q 133 -153 160 -122 q 63 -183 106 -183 q 85 -103 75 -151 q 103 4 94 -56 q 121 133 113 64 q 136 274 129 201 m 149 411 q 165 593 157 504 q 179 757 172 682 q 193 887 186 832 q 207 968 200 942 q 238 932 231 957 q 246 889 246 907 q 244 823 246 861 q 239 738 242 785 q 234 638 236 690 q 232 531 232 585 q 223 488 232 518 q 188 439 214 458 l 149 411 z "},"•":{"ha":338,"x_min":42,"x_max":206,"o":"m 104 164 q 60 176 79 164 q 42 217 42 189 q 50 250 42 233 q 72 280 58 267 q 102 302 85 293 q 139 311 119 311 q 184 294 163 311 q 206 250 206 276 q 197 219 206 235 q 174 192 188 204 q 141 172 160 179 q 104 164 122 164 z "},"c":{"ha":450,"x_min":-7,"x_max":493,"o":"m 297 469 q 345 460 326 469 q 375 437 364 451 q 391 403 386 422 q 396 367 396 385 q 377 296 396 326 q 326 265 358 265 q 286 286 303 265 q 322 331 307 297 q 338 396 338 364 q 331 422 338 413 q 307 431 325 431 q 229 397 269 431 q 156 311 189 363 q 101 201 122 260 q 79 90 79 142 q 84 49 79 69 q 100 11 89 28 q 131 -15 111 -6 q 181 -25 151 -25 q 265 -8 222 -25 q 347 42 307 10 q 419 122 386 75 q 475 226 453 168 l 493 213 q 431 97 469 150 q 347 4 393 43 q 250 -56 301 -35 q 149 -78 199 -78 q 38 -34 82 -78 q -7 100 -7 10 q 21 236 -7 169 q 92 355 49 303 q 190 438 136 407 q 297 469 244 469 z "},"ˇ":{"ha":283,"x_min":0,"x_max":283,"o":"m 269 713 q 281 700 278 707 q 283 686 283 693 q 264 644 283 665 q 218 605 244 622 q 165 576 192 588 q 125 564 139 564 q 87 580 108 564 q 46 619 65 596 q 13 669 26 642 q 0 718 0 696 q 24 761 0 749 q 68 693 43 721 q 126 633 93 665 q 203 667 169 649 q 269 713 238 685 z "},"ç":{"ha":450,"x_min":-7,"x_max":493,"o":"m 297 469 q 345 460 326 469 q 375 437 364 451 q 391 403 386 422 q 396 367 396 385 q 377 296 396 326 q 326 265 358 265 q 286 286 303 265 q 322 331 307 297 q 338 396 338 364 q 331 422 338 413 q 307 431 325 431 q 229 397 269 431 q 156 311 189 363 q 101 201 122 260 q 79 90 79 142 q 84 49 79 69 q 100 11 89 28 q 131 -15 111 -6 q 181 -25 151 -25 q 265 -8 222 -25 q 347 42 307 10 q 419 122 386 75 q 475 226 453 168 l 493 213 q 435 102 469 153 q 357 13 400 51 l 310 -60 q 347 -37 325 -49 q 403 -26 369 -26 q 465 -85 465 -26 q 452 -142 465 -114 q 417 -192 439 -171 q 365 -227 394 -214 q 303 -240 335 -240 q 240 -225 263 -240 q 218 -190 218 -210 q 249 -144 218 -167 q 272 -192 256 -178 q 307 -207 289 -207 q 347 -195 326 -207 q 385 -165 368 -183 q 412 -126 401 -147 q 422 -86 422 -104 q 417 -63 422 -75 q 399 -51 413 -51 q 367 -60 385 -51 q 332 -80 349 -69 q 301 -99 315 -90 q 281 -108 286 -108 q 266 -99 271 -108 q 261 -83 261 -90 q 271 -66 261 -81 q 293 -33 281 -51 q 221 -66 257 -54 q 149 -78 185 -78 q 38 -34 82 -78 q -7 100 -7 10 q 21 236 -7 169 q 92 355 49 303 q 190 438 136 407 q 297 469 244 469 z "},"¸":{"ha":303,"x_min":28,"x_max":275,"o":"m 193 53 l 119 -60 q 157 -37 135 -49 q 213 -26 179 -26 q 275 -85 275 -26 q 262 -142 275 -114 q 226 -192 249 -171 q 174 -227 204 -214 q 113 -240 144 -240 q 50 -225 72 -240 q 28 -190 28 -210 q 58 -144 28 -167 q 82 -192 65 -178 q 117 -207 99 -207 q 157 -195 136 -207 q 194 -165 178 -183 q 222 -126 211 -147 q 232 -86 232 -104 q 227 -63 232 -75 q 208 -51 222 -51 q 176 -60 194 -51 q 142 -80 158 -69 q 110 -99 125 -90 q 90 -108 96 -108 q 76 -99 81 -108 q 71 -83 71 -90 q 79 -69 71 -82 q 99 -40 88 -57 q 124 -8 111 -24 q 144 15 136 7 l 193 53 z "},"¢":{"ha":561,"x_min":58,"x_max":489,"o":"m 388 706 q 437 697 417 706 q 468 673 457 688 q 484 640 479 658 q 489 603 489 621 q 470 532 489 563 q 419 501 451 501 q 379 522 396 501 q 415 567 400 533 q 431 632 431 600 q 424 658 431 649 q 400 667 418 667 q 379 665 386 667 q 358 551 368 610 q 335 435 347 493 q 313 321 324 376 q 292 215 301 265 q 378 242 335 222 q 460 297 421 263 l 483 275 q 388 207 442 235 q 282 167 335 179 q 242 3 261 75 q 201 -120 224 -69 q 149 -198 178 -171 q 81 -225 121 -225 q 108 -176 93 -211 q 141 -90 124 -140 q 176 24 158 -39 q 213 158 194 88 q 102 202 146 158 q 58 336 58 246 q 83 456 58 397 q 148 564 108 515 q 237 648 188 613 q 336 697 286 683 q 363 833 351 772 q 381 938 374 894 q 395 975 383 958 q 443 1000 407 992 l 388 706 m 144 326 q 161 252 144 286 q 226 211 178 218 q 279 431 254 319 q 326 646 304 543 q 256 588 289 625 q 198 507 222 551 q 159 415 174 463 q 144 326 144 368 z "},"ˆ":{"ha":283,"x_min":0,"x_max":283,"o":"m 14 613 q 3 625 6 618 q 0 639 0 632 q 19 681 0 660 q 65 720 39 703 q 118 749 92 738 q 158 761 144 761 q 197 745 175 761 q 238 706 218 729 q 270 656 257 683 q 283 607 283 629 q 278 582 283 593 q 260 564 272 571 q 215 632 240 604 q 157 692 190 660 q 80 658 114 676 q 14 613 46 640 z "},":":{"ha":301,"x_min":0,"x_max":200,"o":"m 44 -14 q 13 -5 26 -14 q 0 24 0 4 q 26 64 0 47 q 81 81 53 81 q 107 74 97 81 q 117 47 117 67 q 94 6 117 26 q 44 -14 72 -14 m 128 333 q 97 342 110 333 q 83 371 83 351 q 110 411 83 394 q 164 428 136 428 q 190 421 181 428 q 200 394 200 414 q 178 353 200 374 q 128 333 156 333 z "},",":{"ha":274,"x_min":-28,"x_max":92,"o":"m 92 39 q 34 -42 53 -1 q -4 -122 15 -82 q -22 -101 -17 -115 q -28 -71 -28 -87 q -20 -24 -28 -50 q -1 25 -12 3 q 26 63 11 47 q 57 78 42 78 q 81 66 71 78 q 92 39 92 54 z "},"©":{"ha":824,"x_min":96,"x_max":779,"o":"m 96 497 q 128 659 96 590 q 210 772 160 728 q 321 839 260 817 q 440 861 382 861 q 559 839 499 861 q 669 772 619 817 q 749 660 718 728 q 779 503 779 593 q 747 341 779 410 q 665 228 715 272 q 554 161 615 183 q 435 139 493 139 q 316 161 376 139 q 206 228 256 183 q 126 340 157 272 q 96 497 96 407 m 740 503 q 719 631 740 572 q 658 732 697 689 q 563 799 618 775 q 440 822 507 822 q 318 799 374 822 q 222 732 263 775 q 158 629 181 689 q 135 497 135 569 q 156 369 135 428 q 217 268 178 311 q 313 201 257 225 q 435 178 368 178 q 557 201 501 178 q 653 268 613 225 q 717 371 694 311 q 740 503 740 431 m 368 415 q 443 326 368 326 q 476 335 463 326 q 497 354 489 343 q 508 376 504 365 q 511 394 511 388 q 518 408 511 404 q 529 411 525 411 q 553 392 553 411 q 522 320 550 350 q 439 290 493 290 q 358 319 390 290 q 326 415 326 347 l 326 599 q 359 697 326 668 q 439 725 392 725 q 493 714 471 725 q 528 688 515 703 q 547 656 542 672 q 553 626 553 639 q 546 607 553 611 q 532 603 539 603 q 515 608 518 603 q 511 619 513 613 q 506 641 510 629 q 495 663 503 653 q 474 681 488 674 q 440 688 461 688 q 388 666 407 688 q 368 599 368 644 l 368 415 z "},"¤":{"ha":969,"x_min":101,"x_max":950,"o":"m 738 557 q 718 427 738 497 q 663 294 699 357 q 776 169 731 231 q 821 58 821 108 q 821 46 821 51 q 818 33 821 40 q 744 117 799 69 q 624 235 690 164 q 544 162 588 190 q 451 133 501 133 q 384 148 413 133 q 336 189 356 163 q 213 89 272 118 q 101 60 153 60 q 140 92 118 76 q 189 128 163 107 q 245 178 215 149 q 304 250 275 207 q 294 295 297 272 q 292 343 292 318 q 308 466 292 401 q 356 589 324 531 q 265 684 307 642 q 192 756 224 726 q 174 789 181 765 q 167 839 167 813 q 175 886 167 865 q 205 856 185 878 q 253 803 225 835 q 317 733 282 772 q 393 651 353 694 q 475 728 429 699 q 574 758 521 758 q 660 733 624 758 q 717 664 697 708 q 765 728 744 697 q 806 783 785 758 q 854 821 826 807 q 925 835 882 835 q 938 834 932 835 q 950 832 943 833 q 922 797 942 821 q 875 740 903 774 q 811 666 847 707 q 736 579 775 625 q 737 568 736 574 q 738 557 738 563 m 574 689 q 494 650 531 689 q 430 555 457 611 q 387 437 403 499 q 371 329 371 375 q 379 279 371 301 q 401 241 388 257 q 431 216 415 225 q 463 207 447 207 q 533 243 497 207 q 599 334 569 279 q 646 453 628 389 q 664 572 664 517 q 635 656 664 624 q 574 689 607 689 z "},"d":{"ha":658,"x_min":-22,"x_max":757,"o":"m 410 438 q 357 458 394 458 q 284 439 319 458 q 217 388 249 419 q 160 315 186 356 q 115 234 133 275 q 85 156 96 193 q 75 92 75 118 q 88 42 75 60 q 125 25 101 25 q 191 52 153 25 q 270 129 229 79 q 351 249 311 179 q 425 407 392 319 q 506 613 464 507 q 588 804 547 718 q 664 945 628 890 q 729 1000 700 1000 q 749 991 740 1000 q 757 968 757 982 q 733 892 757 946 q 674 765 710 839 q 597 603 639 690 q 520 426 556 515 q 461 251 485 336 q 438 97 438 165 q 442 38 438 57 q 469 19 446 19 q 519 34 490 19 q 576 75 547 49 q 633 140 606 101 q 683 225 661 178 l 700 213 q 648 113 679 158 q 581 35 617 68 q 505 -17 544 1 q 431 -36 465 -36 q 387 -26 404 -36 q 359 -2 369 -17 q 344 31 349 13 q 339 68 339 50 q 346 130 339 92 q 365 217 353 168 q 295 114 332 161 q 222 32 258 67 q 149 -22 185 -3 q 82 -42 114 -42 q 46 -35 64 -42 q 13 -14 28 -28 q -12 22 -3 0 q -22 75 -22 44 q -6 160 -22 114 q 37 254 10 207 q 100 346 64 301 q 178 424 136 390 q 264 479 219 458 q 351 500 308 500 q 413 457 413 500 q 412 447 413 451 q 410 438 411 443 z "},"†":{"ha":531,"x_min":85,"x_max":507,"o":"m 85 -37 q 92 21 85 -12 q 108 90 99 54 q 130 161 118 125 q 153 226 142 197 q 190 336 171 281 q 229 447 210 392 q 161 440 196 444 q 86 428 126 435 q 102 475 88 457 q 136 503 117 493 q 174 517 156 514 q 204 521 193 521 q 231 520 218 521 q 257 519 243 519 q 304 637 281 582 q 349 732 328 692 q 391 796 371 772 q 428 819 411 819 q 445 810 438 819 q 453 788 453 801 q 445 750 453 776 q 424 688 438 724 q 392 606 410 651 q 351 511 374 561 q 435 502 396 507 q 507 497 474 497 q 463 459 483 465 q 424 453 443 453 q 373 453 397 453 q 325 451 349 453 q 258 306 293 379 q 192 166 224 232 q 131 47 160 100 q 85 -37 103 -7 z "},"‡":{"ha":583,"x_min":39,"x_max":561,"o":"m 72 458 q 90 506 74 488 q 135 536 107 525 q 201 551 164 547 q 279 556 238 556 l 292 556 q 335 660 314 611 q 376 744 357 708 q 415 799 396 779 q 449 819 433 819 q 466 810 458 819 q 474 788 474 801 q 450 701 474 767 q 389 547 426 635 q 479 532 438 540 q 561 524 521 524 q 517 485 538 492 q 478 479 497 479 q 410 478 436 478 q 358 478 385 478 l 322 400 q 431 383 382 393 q 528 372 481 374 q 484 334 504 340 q 444 328 464 328 q 354 326 389 326 q 290 326 319 326 q 238 214 264 269 q 187 110 211 158 q 142 24 163 63 q 106 -37 121 -14 q 113 21 106 -12 q 129 90 119 54 q 151 161 139 125 q 174 226 163 197 l 207 325 q 152 322 179 324 q 86 314 125 319 l 39 307 q 56 353 40 335 q 99 383 72 372 q 160 399 125 394 q 235 404 194 404 l 263 478 q 197 474 228 476 q 119 465 165 472 l 72 458 z "},"°":{"ha":369,"x_min":114,"x_max":389,"o":"m 283 781 q 365 759 342 781 q 389 706 389 738 q 375 653 389 681 q 337 602 361 625 q 281 565 313 579 q 214 550 249 550 q 137 572 160 550 q 114 625 114 593 q 127 677 114 650 q 163 727 140 704 q 217 765 186 750 q 283 781 247 781 m 283 757 q 238 744 260 757 q 197 711 215 731 q 169 669 179 692 q 158 625 158 646 q 173 588 158 603 q 221 574 188 574 q 266 587 243 574 q 307 620 289 600 q 336 663 325 640 q 347 707 347 686 q 333 743 347 729 q 283 757 318 757 z "},"¨":{"ha":333,"x_min":0,"x_max":333,"o":"m 51 606 q 15 615 31 606 q 0 647 0 625 q 8 672 0 660 q 31 692 17 683 q 60 707 44 701 q 92 713 76 713 q 122 704 111 713 q 133 674 133 696 q 126 649 133 661 q 108 628 119 638 q 81 612 96 618 q 51 606 67 606 m 251 576 q 215 586 231 576 q 200 618 200 596 q 208 642 200 631 q 231 663 217 654 q 260 678 244 672 q 292 683 276 683 q 322 675 311 683 q 333 644 333 667 q 326 620 333 632 q 308 599 319 608 q 281 583 296 589 q 251 576 267 576 z "},"÷":{"ha":640,"x_min":21,"x_max":517,"o":"m 21 172 q 52 206 29 193 q 110 227 75 219 q 189 238 144 235 q 283 240 233 240 q 422 235 358 240 q 517 228 486 231 q 483 209 501 217 q 436 197 464 201 q 369 190 408 192 q 272 188 329 188 q 151 185 213 188 q 21 172 89 183 m 224 -14 q 192 -5 206 -14 q 179 24 179 4 q 206 64 179 47 q 260 81 232 81 q 286 74 276 81 q 296 47 296 67 q 274 6 296 26 q 224 -14 251 -14 m 307 333 q 276 342 289 333 q 263 371 263 351 q 289 411 263 394 q 343 428 315 428 q 369 421 360 428 q 379 394 379 414 q 357 353 379 374 q 307 333 335 333 z "},"$":{"ha":739,"x_min":-12,"x_max":676,"o":"m 536 1000 q 529 965 533 989 q 519 910 525 942 q 596 899 565 910 q 644 869 626 889 q 669 824 663 850 q 676 765 676 797 q 659 653 676 711 q 610 542 642 594 q 573 564 585 547 q 561 600 561 581 q 569 643 561 617 q 587 699 578 669 q 604 757 596 728 q 613 808 613 786 q 590 858 613 840 q 513 876 568 876 l 431 443 q 501 402 467 424 q 564 353 536 381 q 609 288 592 325 q 626 199 626 250 q 600 87 626 136 q 530 3 574 38 q 430 -52 486 -32 q 313 -78 374 -72 q 251 -187 285 -150 q 174 -225 218 -225 q 206 -167 189 -206 q 242 -78 224 -129 q 144 -60 190 -75 q 64 -20 99 -46 q 8 44 29 6 q -12 132 -12 82 q 5 213 -12 178 q 48 269 22 247 q 105 303 74 292 q 165 314 136 314 q 108 225 128 274 q 89 129 89 176 q 132 17 89 58 q 256 -33 175 -25 q 306 153 281 50 q 356 365 332 257 q 287 408 321 386 q 226 456 253 429 q 182 519 199 483 q 165 601 165 554 q 190 710 165 658 q 256 801 214 761 q 351 869 297 842 q 467 906 406 896 q 472 932 469 918 q 481 959 475 946 q 500 983 488 972 q 536 1000 513 993 m 253 636 q 290 538 253 575 q 379 471 326 500 q 424 689 403 585 q 460 871 444 793 q 374 837 413 861 q 309 780 336 813 q 267 710 282 747 q 253 636 253 672 m 531 157 q 495 263 531 222 q 408 335 460 303 q 360 99 381 192 q 326 -33 340 7 q 476 28 422 -24 q 531 157 531 79 z "},"ı":{"ha":336,"x_min":-7,"x_max":374,"o":"m 193 471 q 215 463 206 471 q 224 440 224 456 q 201 385 224 424 q 151 299 178 347 q 101 198 124 251 q 79 96 79 144 q 96 29 79 46 q 147 13 113 13 q 196 24 171 13 q 248 60 221 35 q 303 125 275 85 q 361 225 332 165 l 374 211 q 323 105 353 151 q 257 27 293 58 q 181 -20 221 -4 q 100 -36 140 -36 q 19 -2 46 -36 q -7 81 -7 32 q 1 146 -7 107 q 24 228 10 185 q 58 315 39 272 q 99 393 76 358 q 145 449 121 428 q 193 471 169 471 z "},"e":{"ha":464,"x_min":-19,"x_max":507,"o":"m 419 415 q 388 316 419 363 q 307 233 357 269 q 196 174 257 197 q 75 146 135 151 q 71 119 72 132 q 69 96 69 107 q 74 54 69 75 q 92 17 79 33 q 126 -10 104 0 q 179 -21 147 -21 q 268 -1 224 -21 q 353 52 313 18 q 428 131 393 86 q 490 225 464 175 l 507 213 q 439 99 479 150 q 352 13 399 49 q 253 -42 306 -22 q 150 -61 201 -61 q 23 -15 65 -61 q -19 100 -19 32 q -5 188 -19 142 q 35 278 10 233 q 95 363 61 322 q 169 433 129 403 q 250 482 208 464 q 333 500 292 500 q 392 483 365 500 q 419 415 419 467 m 329 457 q 258 431 296 457 q 186 365 221 406 q 124 273 151 324 q 82 172 96 222 q 167 209 119 185 q 257 267 214 233 q 329 340 300 300 q 358 425 358 381 q 353 449 358 440 q 329 457 347 457 z "},"é":{"ha":464,"x_min":-19,"x_max":581,"o":"m 419 415 q 388 316 419 363 q 307 233 357 269 q 196 174 257 197 q 75 146 135 151 q 71 119 72 132 q 69 96 69 107 q 74 54 69 75 q 92 17 79 33 q 126 -10 104 0 q 179 -21 147 -21 q 268 -1 224 -21 q 353 52 313 18 q 428 131 393 86 q 490 225 464 175 l 507 213 q 439 99 479 150 q 352 13 399 49 q 253 -42 306 -22 q 150 -61 201 -61 q 23 -15 65 -61 q -19 100 -19 32 q -5 188 -19 142 q 35 278 10 233 q 95 363 61 322 q 169 433 129 403 q 250 482 208 464 q 333 500 292 500 q 392 483 365 500 q 419 415 419 467 m 329 457 q 258 431 296 457 q 186 365 221 406 q 124 273 151 324 q 82 172 96 222 q 167 209 119 185 q 257 267 214 233 q 329 340 300 300 q 358 425 358 381 q 353 449 358 440 q 329 457 347 457 m 581 757 q 493 674 531 713 q 425 596 456 636 q 410 613 414 601 q 406 632 406 625 q 420 672 406 644 q 457 728 435 700 q 504 778 479 757 q 550 800 529 800 q 569 791 561 800 q 581 757 578 782 z "},"ê":{"ha":464,"x_min":-19,"x_max":536,"o":"m 419 415 q 388 316 419 363 q 307 233 357 269 q 196 174 257 197 q 75 146 135 151 q 71 119 72 132 q 69 96 69 107 q 74 54 69 75 q 92 17 79 33 q 126 -10 104 0 q 179 -21 147 -21 q 268 -1 224 -21 q 353 52 313 18 q 428 131 393 86 q 490 225 464 175 l 507 213 q 439 99 479 150 q 352 13 399 49 q 253 -42 306 -22 q 150 -61 201 -61 q 23 -15 65 -61 q -19 100 -19 32 q -5 188 -19 142 q 35 278 10 233 q 95 363 61 322 q 169 433 129 403 q 250 482 208 464 q 333 500 292 500 q 392 483 365 500 q 419 415 419 467 m 329 457 q 258 431 296 457 q 186 365 221 406 q 124 273 151 324 q 82 172 96 222 q 167 209 119 185 q 257 267 214 233 q 329 340 300 300 q 358 425 358 381 q 353 449 358 440 q 329 457 347 457 m 267 613 q 256 625 258 618 q 253 639 253 632 q 272 681 253 660 q 318 720 292 703 q 371 749 344 738 q 411 761 397 761 q 449 745 428 761 q 490 706 471 729 q 523 656 510 683 q 536 607 536 629 q 531 582 536 593 q 513 564 525 571 q 468 632 493 604 q 410 692 443 660 q 333 658 367 676 q 267 613 299 640 z "},"ë":{"ha":464,"x_min":-19,"x_max":524,"o":"m 419 415 q 388 316 419 363 q 307 233 357 269 q 196 174 257 197 q 75 146 135 151 q 71 119 72 132 q 69 96 69 107 q 74 54 69 75 q 92 17 79 33 q 126 -10 104 0 q 179 -21 147 -21 q 268 -1 224 -21 q 353 52 313 18 q 428 131 393 86 q 490 225 464 175 l 507 213 q 439 99 479 150 q 352 13 399 49 q 253 -42 306 -22 q 150 -61 201 -61 q 23 -15 65 -61 q -19 100 -19 32 q -5 188 -19 142 q 35 278 10 233 q 95 363 61 322 q 169 433 129 403 q 250 482 208 464 q 333 500 292 500 q 392 483 365 500 q 419 415 419 467 m 329 457 q 258 431 296 457 q 186 365 221 406 q 124 273 151 324 q 82 172 96 222 q 167 209 119 185 q 257 267 214 233 q 329 340 300 300 q 358 425 358 381 q 353 449 358 440 q 329 457 347 457 m 242 606 q 206 615 221 606 q 190 647 190 625 q 199 672 190 660 q 221 692 207 683 q 251 707 235 701 q 282 713 267 713 q 313 704 301 713 q 324 674 324 696 q 317 649 324 661 q 298 628 310 638 q 272 612 286 618 q 242 606 257 606 m 442 576 q 406 586 421 576 q 390 618 390 596 q 399 642 390 631 q 421 663 407 654 q 451 678 435 672 q 482 683 467 683 q 513 675 501 683 q 524 644 524 667 q 517 620 524 632 q 498 599 510 608 q 472 583 486 589 q 442 576 457 576 z "},"è":{"ha":464,"x_min":-19,"x_max":507,"o":"m 419 415 q 388 316 419 363 q 307 233 357 269 q 196 174 257 197 q 75 146 135 151 q 71 119 72 132 q 69 96 69 107 q 74 54 69 75 q 92 17 79 33 q 126 -10 104 0 q 179 -21 147 -21 q 268 -1 224 -21 q 353 52 313 18 q 428 131 393 86 q 490 225 464 175 l 507 213 q 439 99 479 150 q 352 13 399 49 q 253 -42 306 -22 q 150 -61 201 -61 q 23 -15 65 -61 q -19 100 -19 32 q -5 188 -19 142 q 35 278 10 233 q 95 363 61 322 q 169 433 129 403 q 250 482 208 464 q 333 500 292 500 q 392 483 365 500 q 419 415 419 467 m 329 457 q 258 431 296 457 q 186 365 221 406 q 124 273 151 324 q 82 172 96 222 q 167 209 119 185 q 257 267 214 233 q 329 340 300 300 q 358 425 358 381 q 353 449 358 440 q 329 457 347 457 m 239 742 q 250 776 242 767 q 269 785 258 785 q 315 763 290 785 q 363 713 340 742 q 399 657 385 685 q 414 617 414 629 q 410 598 414 610 q 394 581 406 586 q 326 659 364 621 q 239 742 289 697 z "},"…":{"ha":732,"x_min":-3,"x_max":547,"o":"m 42 -14 q 10 -5 24 -14 q -3 24 -3 4 q 24 64 -3 47 q 78 81 50 81 q 104 74 94 81 q 114 47 114 67 q 92 6 114 26 q 42 -14 69 -14 m 258 -14 q 227 -5 240 -14 q 214 24 214 4 q 240 64 214 47 q 294 81 267 81 q 321 74 311 81 q 331 47 331 67 q 308 6 331 26 q 258 -14 286 -14 m 475 -14 q 444 -5 457 -14 q 431 24 431 4 q 457 64 431 47 q 511 81 483 81 q 538 74 528 81 q 547 47 547 67 q 525 6 547 26 q 475 -14 503 -14 z "},"—":{"ha":1165,"x_min":35,"x_max":1057,"o":"m 35 158 q 77 215 39 193 q 180 250 115 238 q 333 267 244 263 q 524 272 421 272 q 644 270 592 272 q 740 266 697 268 q 820 260 783 264 q 893 254 857 257 q 969 249 929 251 q 1057 247 1008 247 q 997 215 1028 228 q 938 196 967 203 q 881 187 908 189 q 831 185 853 185 q 593 184 690 185 q 427 183 496 183 q 310 181 358 182 q 221 178 263 181 q 136 170 179 175 q 35 158 93 165 z "},"–":{"ha":942,"x_min":21,"x_max":839,"o":"m 21 158 q 54 215 24 193 q 137 250 85 238 q 259 267 189 263 q 413 272 329 272 q 549 269 494 272 q 649 260 604 265 q 738 251 694 256 q 839 247 781 247 q 743 196 793 207 q 657 185 693 185 q 468 184 546 185 q 335 183 390 183 q 241 181 279 182 q 169 178 203 181 q 101 170 136 175 q 21 158 67 165 z "},"=":{"ha":700,"x_min":58,"x_max":554,"o":"m 58 147 q 90 181 67 168 q 147 202 113 194 q 226 213 182 210 q 321 215 271 215 q 460 210 396 215 q 554 203 524 206 q 480 170 519 178 q 411 163 440 163 l 271 163 q 214 162 239 163 q 165 160 189 161 q 115 156 140 158 q 58 147 90 153 m 58 286 q 90 320 67 307 q 147 341 113 333 q 226 351 182 349 q 321 354 271 354 q 460 349 396 354 q 554 342 524 344 q 480 309 519 317 q 411 301 440 301 l 271 301 q 214 301 239 301 q 165 299 189 300 q 115 294 140 297 q 58 286 90 292 z "},"ð":{"ha":658,"x_min":-22,"x_max":700,"o":"m 324 707 q 336 741 324 728 q 369 763 349 754 q 417 777 390 772 q 474 786 444 782 q 431 883 460 836 q 353 972 401 931 q 376 992 364 986 q 407 999 388 999 q 465 981 439 999 q 513 935 492 964 q 548 871 533 907 q 572 797 563 835 q 607 800 589 799 q 643 803 625 801 q 676 808 661 806 q 699 814 690 811 q 677 785 688 796 q 653 769 667 775 q 622 759 639 763 q 581 753 604 756 q 585 719 583 735 q 586 688 586 703 q 562 534 586 617 q 508 369 538 451 q 455 212 479 288 q 431 79 431 136 q 439 35 431 51 q 469 19 447 19 q 519 34 490 19 q 576 75 547 49 q 633 140 606 101 q 683 225 661 178 l 700 213 q 648 113 679 158 q 581 35 617 68 q 505 -17 544 1 q 431 -36 465 -36 q 387 -26 404 -36 q 359 -2 369 -17 q 344 31 349 13 q 339 68 339 50 q 346 130 339 92 q 365 217 353 168 q 295 114 332 161 q 222 32 258 67 q 149 -22 185 -3 q 82 -42 114 -42 q 46 -35 64 -42 q 13 -14 28 -28 q -12 22 -3 0 q -22 75 -22 44 q -6 160 -22 114 q 37 254 10 207 q 100 346 64 301 q 178 424 136 390 q 264 479 219 458 q 351 500 308 500 q 413 457 413 500 q 412 447 413 451 q 410 438 411 443 q 357 458 394 458 q 284 439 319 458 q 217 388 249 419 q 160 315 186 356 q 115 234 133 275 q 85 156 96 193 q 75 92 75 118 q 88 42 75 60 q 125 25 101 25 q 195 56 156 25 q 276 138 235 86 q 358 260 318 190 q 426 407 397 329 q 468 534 447 461 q 489 679 489 607 q 483 739 489 711 q 447 733 468 736 q 403 725 426 729 q 359 716 381 721 q 324 707 338 711 z "},"!":{"ha":363,"x_min":-43,"x_max":450,"o":"m 42 143 q 49 201 42 168 q 68 270 57 235 q 93 342 79 306 q 118 407 107 378 q 199 613 157 507 q 281 804 240 718 q 357 945 321 890 q 422 1000 393 1000 q 442 991 433 1000 q 450 968 450 982 q 427 890 450 949 q 367 753 404 832 q 285 583 331 674 q 193 406 239 492 q 107 251 147 321 q 42 143 67 181 m 1 -14 q -30 -5 -17 -14 q -43 24 -43 4 q -17 64 -43 47 q 38 81 10 81 q 64 74 54 81 q 74 47 74 67 q 51 6 74 26 q 1 -14 29 -14 z "},"¡":{"ha":368,"x_min":-124,"x_max":369,"o":"m 285 510 q 277 451 285 485 q 258 383 269 418 q 233 311 246 347 q 208 246 219 275 q 128 40 169 146 q 46 -151 86 -65 q -31 -292 6 -237 q -96 -347 -67 -347 q -115 -338 -107 -347 q -124 -315 -124 -329 q -101 -237 -124 -296 q -41 -100 -78 -179 q 42 70 -4 -21 q 133 247 88 161 q 219 402 179 332 q 285 510 258 472 m 325 667 q 356 658 343 667 q 369 629 369 649 q 343 589 369 606 q 289 572 317 572 q 263 579 272 572 q 253 606 253 586 q 275 647 253 626 q 325 667 297 667 z "},"f":{"ha":435,"x_min":-94,"x_max":547,"o":"m 481 211 q 440 140 463 169 q 392 90 417 110 q 344 62 368 71 q 299 53 319 53 q 247 65 274 53 q 196 99 219 78 q 177 -76 196 11 q 128 -232 158 -162 q 59 -345 97 -301 q -18 -389 21 -389 q -42 -384 -29 -389 q -67 -366 -56 -379 q -87 -329 -79 -353 q -94 -267 -94 -306 q -78 -131 -94 -214 q -34 51 -62 -47 q 33 259 -6 150 q 116 474 71 368 q 210 674 161 579 q 310 842 260 769 q 408 957 360 914 q 500 1000 457 1000 q 538 982 529 1000 q 547 939 547 964 q 514 808 547 879 q 428 667 481 738 q 309 531 375 596 q 176 419 243 465 q 163 385 169 403 q 150 350 157 368 q 174 334 165 347 q 185 306 182 321 q 199 219 192 258 q 219 150 207 179 q 252 105 232 121 q 306 89 272 89 q 388 124 354 89 q 460 225 421 158 l 481 211 m 160 83 q 149 162 160 126 q 113 246 138 197 q 64 93 86 168 q 26 -48 42 18 q 1 -167 10 -114 q -8 -256 -8 -221 q -1 -305 -8 -287 q 18 -322 6 -322 q 47 -302 31 -322 q 78 -249 63 -282 q 109 -174 94 -217 q 135 -87 124 -132 q 153 3 146 -42 q 160 83 160 47 m 474 907 q 413 873 446 907 q 344 780 381 839 q 271 642 308 721 q 199 476 233 564 q 320 603 265 539 q 413 723 375 667 q 472 823 451 779 q 493 888 493 867 q 474 907 493 907 z "},"ﬁ":{"ha":771,"x_min":-94,"x_max":808,"o":"m 628 471 q 649 463 640 471 q 658 440 658 456 q 635 385 658 424 q 585 299 613 347 q 536 198 558 251 q 514 96 514 144 q 531 29 514 46 q 582 13 547 13 q 631 24 606 13 q 683 60 656 35 q 738 125 710 85 q 796 225 767 165 l 808 211 q 758 105 788 151 q 692 27 728 58 q 615 -20 656 -4 q 535 -36 575 -36 q 454 -2 481 -36 q 428 81 428 32 q 437 151 428 108 q 461 239 446 193 q 376 188 421 207 q 286 169 331 169 q 240 175 265 169 q 190 192 215 181 q 194 147 193 169 q 196 103 196 124 q 178 -72 196 15 q 129 -231 160 -160 q 60 -345 99 -301 q -18 -389 22 -389 q -42 -384 -29 -389 q -67 -366 -56 -379 q -87 -329 -79 -353 q -94 -267 -94 -306 q -78 -131 -94 -214 q -34 51 -62 -47 q 33 259 -6 150 q 116 474 71 368 q 210 674 161 579 q 310 842 260 769 q 408 957 360 914 q 500 1000 457 1000 q 538 982 529 1000 q 547 940 547 964 q 515 809 547 881 q 428 667 482 738 q 309 531 375 596 q 176 419 243 467 q 164 389 169 404 q 153 358 158 374 q 185 324 175 350 q 238 232 204 258 q 310 206 271 206 q 401 233 354 206 q 483 296 447 260 q 515 362 497 331 q 551 417 532 393 q 589 456 569 442 q 628 471 608 471 m 160 107 q 159 145 160 124 q 154 188 158 167 q 142 229 150 210 q 118 261 133 249 q 67 105 90 182 q 28 -40 44 28 q 1 -164 11 -108 q -8 -256 -8 -219 q -1 -305 -8 -287 q 18 -322 6 -322 q 63 -281 38 -322 q 109 -175 88 -239 q 145 -35 131 -111 q 160 107 160 40 m 474 907 q 413 873 446 907 q 344 780 381 839 q 271 642 308 721 q 199 476 233 564 q 320 603 265 539 q 413 723 375 667 q 472 823 451 779 q 493 888 493 867 q 474 907 493 907 m 701 600 q 661 611 678 600 q 644 646 644 622 q 654 673 644 660 q 678 697 664 686 q 711 713 693 707 q 746 718 729 718 q 779 708 767 718 q 792 675 792 699 q 784 649 792 663 q 763 624 776 635 q 734 607 750 614 q 701 600 718 600 z "},"ﬂ":{"ha":763,"x_min":-94,"x_max":917,"o":"m 547 940 q 515 809 547 881 q 428 667 482 738 q 309 531 375 596 q 176 419 243 467 q 164 389 169 404 q 153 358 158 374 q 174 342 167 354 q 185 315 182 331 q 231 206 194 236 q 313 175 267 175 q 384 188 347 175 q 454 221 421 201 q 503 383 471 296 q 574 556 535 469 q 656 723 613 643 q 741 865 700 803 q 816 963 782 926 q 871 1000 850 1000 q 890 990 882 1000 q 905 963 899 979 q 914 929 911 947 q 917 897 917 911 q 903 818 917 867 q 866 712 890 769 q 808 590 842 654 q 733 465 774 526 q 644 347 692 403 q 547 250 597 292 q 534 177 539 213 q 529 110 529 142 q 590 3 529 3 q 646 22 618 3 q 699 73 674 42 q 748 144 725 104 q 789 225 771 185 l 811 214 q 690 26 756 94 q 550 -42 625 -42 q 465 -1 490 -42 q 439 101 439 39 q 447 185 439 139 q 293 142 369 142 q 243 148 269 142 q 193 168 217 154 q 195 135 194 151 q 196 103 196 118 q 178 -72 196 15 q 129 -231 160 -160 q 60 -345 99 -301 q -18 -389 22 -389 q -42 -384 -29 -389 q -67 -366 -56 -379 q -87 -329 -79 -353 q -94 -267 -94 -306 q -78 -131 -94 -214 q -34 51 -62 -47 q 33 259 -6 150 q 116 474 71 368 q 210 674 161 579 q 310 842 260 769 q 408 957 360 914 q 500 1000 457 1000 q 538 982 529 1000 q 547 940 547 964 m 160 100 q 153 180 160 136 q 117 256 146 224 q 66 100 89 176 q 26 -43 43 24 q 1 -165 10 -110 q -8 -256 -8 -219 q -1 -305 -8 -287 q 18 -322 6 -322 q 63 -281 38 -322 q 109 -176 88 -239 q 145 -39 131 -112 q 160 100 160 35 m 864 888 q 833 863 854 888 q 785 794 813 838 q 726 693 758 751 q 664 569 694 635 q 606 434 633 504 q 560 297 579 364 q 676 442 619 358 q 777 608 733 525 q 847 760 821 690 q 874 865 874 831 q 870 883 874 879 q 864 888 867 888 m 474 907 q 413 873 446 907 q 344 780 381 839 q 271 642 308 721 q 199 476 233 564 q 320 603 265 539 q 413 723 375 667 q 472 823 451 779 q 493 888 493 867 q 474 907 493 907 z "},"ƒ":{"ha":547,"x_min":-332,"x_max":547,"o":"m 44 375 q 76 432 46 415 q 147 453 107 449 q 206 659 174 560 q 280 834 239 758 q 374 955 321 910 q 494 1000 426 1000 q 533 989 518 1000 q 547 938 547 978 q 524 819 547 883 q 460 691 500 756 q 366 565 419 626 q 254 457 313 504 q 352 450 313 454 q 433 446 392 446 q 458 447 450 446 q 472 450 465 447 q 428 403 451 419 q 375 388 404 388 q 315 388 350 388 q 222 389 281 389 l 197 389 q 114 56 150 190 q 39 -161 78 -79 q -46 -278 0 -243 q -158 -312 -92 -312 q -227 -303 -196 -312 q -282 -275 -258 -293 q -319 -232 -306 -257 q -332 -175 -332 -207 q -312 -112 -332 -139 q -249 -69 -292 -85 q -258 -109 -256 -90 q -260 -143 -260 -128 q -251 -197 -260 -172 q -227 -237 -242 -221 q -195 -264 -212 -254 q -160 -274 -178 -274 q -63 -217 -104 -274 q 11 -67 -22 -160 q 72 144 44 26 q 131 385 100 263 q 83 380 106 382 q 44 375 60 378 m 454 907 q 397 877 426 907 q 339 792 368 847 q 281 658 310 738 q 226 482 253 579 q 325 581 278 525 q 407 690 372 636 q 463 793 442 744 q 483 871 483 842 q 454 907 483 907 z "},"⁴":{"ha":374,"x_min":81,"x_max":413,"o":"m 385 996 q 403 976 403 993 q 398 956 403 972 q 385 906 393 939 q 365 823 376 874 q 339 700 353 772 l 363 700 q 385 702 374 700 q 413 707 397 704 q 377 672 397 685 q 342 658 357 658 l 332 658 q 325 619 329 647 q 315 558 321 592 q 306 491 310 525 q 303 436 303 457 q 254 447 272 439 q 236 472 236 456 q 238 483 236 474 q 242 515 239 493 q 253 571 246 536 q 271 658 260 606 q 258 659 264 658 q 244 660 251 660 l 221 660 q 142 657 176 660 q 81 647 108 654 q 85 668 81 660 q 94 682 89 676 q 167 747 126 710 q 249 825 208 783 q 325 910 289 867 q 385 996 361 954 m 289 735 q 303 801 296 771 q 319 860 310 831 l 258 800 q 208 751 235 776 q 157 701 181 726 q 184 703 169 703 q 217 704 199 704 q 237 703 228 704 q 256 703 246 703 l 282 703 l 289 735 z "},"g":{"ha":542,"x_min":-28,"x_max":583,"o":"m 410 410 q 354 431 394 431 q 249 398 300 431 q 160 317 199 365 q 98 213 121 268 q 75 115 75 158 q 88 65 75 82 q 124 47 101 47 q 168 62 143 47 q 220 101 193 76 q 275 160 247 126 q 329 231 303 193 l 346 304 q 353 326 347 314 q 367 349 358 339 q 388 367 375 360 q 417 375 400 375 q 446 371 429 375 q 438 315 446 354 q 417 225 431 276 q 383 113 403 174 q 339 -10 363 53 q 406 31 372 7 q 470 84 440 54 q 525 149 500 114 q 565 225 550 185 l 583 211 q 536 123 567 164 q 469 49 506 82 q 394 -10 433 15 q 324 -50 356 -35 q 263 -183 294 -121 q 198 -290 232 -244 q 128 -362 164 -336 q 53 -389 92 -389 q -3 -370 22 -389 q -28 -308 -28 -351 q -2 -231 -28 -267 q 64 -166 24 -196 q 151 -111 104 -136 q 243 -64 199 -86 q 280 41 263 -15 q 314 165 297 97 q 203 38 261 89 q 88 -12 146 -12 q 10 24 38 -12 q -17 122 -17 61 q 19 260 -17 194 q 111 374 56 325 q 231 453 167 424 q 351 482 294 482 q 409 469 392 482 q 426 438 426 456 q 419 418 426 425 q 410 410 413 411 m 49 -344 q 82 -331 63 -344 q 124 -290 101 -318 q 174 -215 147 -261 q 228 -101 200 -168 q 148 -144 186 -122 q 81 -190 110 -165 q 33 -240 51 -214 q 15 -296 15 -267 q 24 -331 15 -318 q 49 -344 33 -344 z "},"ß":{"ha":594,"x_min":-60,"x_max":535,"o":"m 300 564 q 358 621 329 590 q 409 685 386 651 q 446 760 432 719 q 460 849 460 800 q 456 890 460 869 q 443 926 453 910 q 418 953 433 943 q 378 963 403 963 q 288 917 326 963 q 222 796 250 871 q 172 624 193 721 q 133 426 151 528 q 97 224 115 324 q 57 44 79 125 q 7 -92 35 -37 q -60 -160 -21 -147 q -33 -80 -44 -140 q -8 66 -21 -19 q 22 253 6 151 q 59 460 38 356 q 109 661 81 564 q 177 833 138 758 q 269 954 217 908 q 389 1000 321 1000 q 493 960 451 1000 q 535 847 535 919 q 515 748 535 794 q 463 661 494 701 q 392 588 431 621 q 319 533 354 556 q 303 515 303 522 q 308 507 303 511 q 321 500 314 503 q 393 449 360 483 q 451 374 426 415 q 488 288 475 332 q 501 204 501 243 q 478 91 501 149 q 419 -14 456 33 q 335 -91 382 -61 q 240 -121 288 -121 q 197 -105 215 -121 q 167 -63 179 -89 q 149 -5 156 -37 q 143 61 143 28 q 149 122 143 92 q 165 175 154 151 q 191 213 175 199 q 228 226 207 226 q 239 226 233 226 q 250 225 244 226 q 230 199 239 219 q 214 151 221 179 q 203 90 207 124 q 200 26 200 57 q 210 -58 200 -22 q 242 -93 219 -93 q 297 -65 268 -93 q 349 10 326 -36 q 388 112 372 56 q 403 224 403 168 q 395 299 403 261 q 373 372 388 338 q 339 433 358 406 q 294 481 319 461 q 267 517 267 501 q 300 564 267 535 z "},"`":{"ha":175,"x_min":0,"x_max":175,"o":"m 0 731 q 11 765 3 756 q 31 774 19 774 q 76 752 51 774 q 124 702 101 731 q 160 646 146 674 q 175 606 175 618 q 171 587 175 599 q 156 569 167 575 q 88 648 125 610 q 0 731 50 686 z "},">":{"ha":451,"x_min":71,"x_max":342,"o":"m 78 439 q 131 376 100 408 q 195 314 161 343 q 263 260 229 285 q 324 222 296 236 l 342 219 q 310 172 336 199 q 251 119 285 144 q 181 78 217 94 q 121 61 146 61 q 97 69 107 61 q 81 83 88 76 q 160 116 128 101 q 217 144 193 131 q 262 173 242 158 q 306 204 282 188 q 230 246 271 222 q 153 297 189 269 q 94 352 118 324 q 71 408 71 381 q 73 426 71 415 q 78 439 75 436 z "},"«":{"ha":606,"x_min":-6,"x_max":474,"o":"m 258 439 q 263 426 261 436 q 265 408 265 415 q 242 352 265 381 q 183 297 218 324 q 106 246 147 269 q 31 204 65 222 q 74 173 54 188 q 119 144 94 158 q 176 116 143 131 q 256 83 208 101 q 239 69 249 76 q 215 61 229 61 q 155 78 190 61 q 85 119 119 94 q 26 172 51 144 q -6 219 0 199 l 13 222 q 74 260 40 236 q 141 314 107 285 q 206 376 175 343 q 258 439 236 408 m 467 439 q 472 426 469 436 q 474 408 474 415 q 450 352 474 381 q 391 297 426 324 q 315 246 356 269 q 239 204 274 222 q 283 173 263 188 q 327 144 303 158 q 384 116 351 131 q 464 83 417 101 q 447 69 457 76 q 424 61 438 61 q 363 78 399 61 q 294 119 328 94 q 234 172 260 144 q 203 219 208 199 l 221 222 q 282 260 249 236 q 349 314 315 285 q 414 376 383 343 q 467 439 444 408 z "},"»":{"ha":632,"x_min":57,"x_max":536,"o":"m 64 439 q 117 376 86 408 q 181 314 147 343 q 249 260 215 285 q 310 222 282 236 l 328 219 q 297 172 322 199 q 237 119 271 144 q 167 78 203 94 q 107 61 132 61 q 83 69 93 61 q 67 83 74 76 q 147 116 114 101 q 203 144 179 131 q 248 173 228 158 q 292 204 268 188 q 216 246 257 222 q 140 297 175 269 q 81 352 104 324 q 57 408 57 381 q 59 426 57 415 q 64 439 61 436 m 272 439 q 325 376 294 408 q 390 314 356 343 q 457 260 424 285 q 518 222 490 236 l 536 219 q 505 172 531 199 q 445 119 479 144 q 376 78 411 94 q 315 61 340 61 q 292 69 301 61 q 275 83 282 76 q 355 116 322 101 q 412 144 388 131 q 456 173 436 158 q 500 204 476 188 q 424 246 465 222 q 348 297 383 269 q 289 352 313 324 q 265 408 265 381 q 267 426 265 415 q 272 439 269 436 z "},"‹":{"ha":397,"x_min":-6,"x_max":265,"o":"m 258 439 q 263 426 261 436 q 265 408 265 415 q 242 352 265 381 q 183 297 218 324 q 106 246 147 269 q 31 204 65 222 q 74 174 53 188 q 119 146 94 160 q 176 117 143 132 q 256 83 208 101 q 239 69 249 76 q 215 61 229 61 q 155 78 190 61 q 85 119 119 94 q 26 172 51 144 q -6 219 0 199 l 13 222 q 74 260 40 236 q 141 314 107 285 q 206 376 175 343 q 258 439 236 408 z "},"›":{"ha":424,"x_min":57,"x_max":328,"o":"m 64 439 q 117 376 86 408 q 181 314 147 343 q 249 260 215 285 q 310 222 282 236 l 328 219 q 297 172 322 199 q 237 119 271 144 q 167 78 203 94 q 107 61 132 61 q 83 69 93 61 q 67 83 74 76 q 147 116 114 101 q 203 144 179 131 q 248 173 228 158 q 292 204 268 188 q 216 246 257 222 q 140 297 175 269 q 81 352 104 324 q 57 408 57 381 q 59 426 57 415 q 64 439 61 436 z "},"h":{"ha":663,"x_min":8,"x_max":706,"o":"m 343 54 q 350 102 343 76 q 365 156 357 128 q 379 211 372 183 q 386 264 386 239 q 371 315 386 300 q 333 331 356 331 q 271 302 299 331 q 220 231 243 274 q 178 139 197 189 q 140 47 158 89 q 103 -24 121 4 q 65 -53 85 -53 q 42 -40 53 -53 q 24 -8 31 -28 q 13 38 17 13 q 8 92 8 64 q 31 251 8 158 q 89 443 53 343 q 171 641 125 543 q 263 817 217 739 q 351 944 308 896 q 424 992 393 992 q 445 983 436 992 q 459 962 454 975 q 467 933 464 949 q 469 904 469 918 q 457 827 469 872 q 423 731 444 782 q 372 628 401 681 q 306 527 342 575 q 231 440 271 479 q 150 375 190 400 q 128 308 138 344 q 112 235 118 272 q 102 164 106 199 q 99 101 99 129 q 99 75 99 86 q 101 54 100 64 q 156 190 126 125 q 220 306 185 256 q 297 385 256 356 q 383 414 338 414 q 433 403 413 414 q 465 374 453 392 q 483 334 478 357 q 489 289 489 311 q 480 226 489 257 q 459 165 471 194 q 438 108 447 136 q 429 56 429 81 q 441 15 429 28 q 471 3 453 3 q 524 21 494 3 q 582 69 553 39 q 639 139 611 99 q 688 225 667 179 l 706 208 q 654 113 683 157 q 590 37 625 69 q 517 -15 556 4 q 439 -33 479 -33 q 367 -8 390 -33 q 343 54 343 17 m 417 879 q 376 841 406 879 q 308 740 346 803 q 233 595 271 676 q 168 429 194 514 q 261 531 215 468 q 343 660 307 594 q 401 784 379 726 q 422 868 422 842 q 417 879 422 879 z "},"-":{"ha":674,"x_min":36,"x_max":532,"o":"m 36 200 q 67 234 44 221 q 125 255 90 247 q 204 265 160 263 q 299 268 249 268 q 438 263 374 268 q 532 256 501 258 q 458 223 497 231 q 389 215 418 215 l 257 215 q 197 215 224 215 q 146 213 171 214 q 95 208 121 211 q 36 200 69 206 z "},"i":{"ha":336,"x_min":-7,"x_max":374,"o":"m 193 471 q 215 463 206 471 q 224 440 224 456 q 201 385 224 424 q 151 299 178 347 q 101 198 124 251 q 79 96 79 144 q 96 29 79 46 q 147 13 113 13 q 196 24 171 13 q 248 60 221 35 q 303 125 275 85 q 361 225 332 165 l 374 211 q 323 105 353 151 q 257 27 293 58 q 181 -20 221 -4 q 100 -36 140 -36 q 19 -2 46 -36 q -7 81 -7 32 q 1 146 -7 107 q 24 228 10 185 q 58 315 39 272 q 99 393 76 358 q 145 449 121 428 q 193 471 169 471 m 267 600 q 226 611 243 600 q 210 646 210 622 q 219 673 210 660 q 244 697 229 686 q 276 713 258 707 q 311 718 294 718 q 344 708 332 718 q 357 675 357 699 q 349 649 357 663 q 328 624 342 635 q 299 607 315 614 q 267 600 283 600 z "},"í":{"ha":336,"x_min":-7,"x_max":403,"o":"m 193 471 q 215 463 206 471 q 224 440 224 456 q 201 385 224 424 q 151 299 178 347 q 101 198 124 251 q 79 96 79 144 q 96 29 79 46 q 147 13 113 13 q 196 24 171 13 q 248 60 221 35 q 303 125 275 85 q 361 225 332 165 l 374 211 q 323 105 353 151 q 257 27 293 58 q 181 -20 221 -4 q 100 -36 140 -36 q 19 -2 46 -36 q -7 81 -7 32 q 1 146 -7 107 q 24 228 10 185 q 58 315 39 272 q 99 393 76 358 q 145 449 121 428 q 193 471 169 471 m 403 731 q 315 648 353 686 q 247 569 278 610 q 232 587 236 575 q 228 606 228 599 q 242 646 228 618 q 279 702 257 674 q 326 752 301 731 q 372 774 351 774 q 392 765 383 774 q 403 731 400 756 z "},"î":{"ha":336,"x_min":-7,"x_max":422,"o":"m 193 471 q 215 463 206 471 q 224 440 224 456 q 201 385 224 424 q 151 299 178 347 q 101 198 124 251 q 79 96 79 144 q 96 29 79 46 q 147 13 113 13 q 196 24 171 13 q 248 60 221 35 q 303 125 275 85 q 361 225 332 165 l 374 211 q 323 105 353 151 q 257 27 293 58 q 181 -20 221 -4 q 100 -36 140 -36 q 19 -2 46 -36 q -7 81 -7 32 q 1 146 -7 107 q 24 228 10 185 q 58 315 39 272 q 99 393 76 358 q 145 449 121 428 q 193 471 169 471 m 153 613 q 142 625 144 618 q 139 639 139 632 q 158 681 139 660 q 204 720 178 703 q 257 749 231 738 q 297 761 283 761 q 335 745 314 761 q 376 706 357 729 q 409 656 396 683 q 422 607 422 629 q 417 582 422 593 q 399 564 411 571 q 354 632 379 604 q 296 692 329 660 q 219 658 253 676 q 153 613 185 640 z "},"ï":{"ha":336,"x_min":-7,"x_max":415,"o":"m 193 471 q 215 463 206 471 q 224 440 224 456 q 201 385 224 424 q 151 299 178 347 q 101 198 124 251 q 79 96 79 144 q 96 29 79 46 q 147 13 113 13 q 196 24 171 13 q 248 60 221 35 q 303 125 275 85 q 361 225 332 165 l 374 211 q 323 105 353 151 q 257 27 293 58 q 181 -20 221 -4 q 100 -36 140 -36 q 19 -2 46 -36 q -7 81 -7 32 q 1 146 -7 107 q 24 228 10 185 q 58 315 39 272 q 99 393 76 358 q 145 449 121 428 q 193 471 169 471 m 133 606 q 97 615 113 606 q 82 647 82 625 q 90 672 82 660 q 113 692 99 683 q 142 707 126 701 q 174 713 158 713 q 204 704 193 713 q 215 674 215 696 q 208 649 215 661 q 190 628 201 638 q 163 612 178 618 q 133 606 149 606 m 333 576 q 297 586 313 576 q 282 618 282 596 q 290 642 282 631 q 313 663 299 654 q 342 678 326 672 q 374 683 358 683 q 404 675 393 683 q 415 644 415 667 q 408 620 415 632 q 390 599 401 608 q 363 583 378 589 q 333 576 349 576 z "},"ì":{"ha":336,"x_min":-7,"x_max":374,"o":"m 193 471 q 215 463 206 471 q 224 440 224 456 q 201 385 224 424 q 151 299 178 347 q 101 198 124 251 q 79 96 79 144 q 96 29 79 46 q 147 13 113 13 q 196 24 171 13 q 248 60 221 35 q 303 125 275 85 q 361 225 332 165 l 374 211 q 323 105 353 151 q 257 27 293 58 q 181 -20 221 -4 q 100 -36 140 -36 q 19 -2 46 -36 q -7 81 -7 32 q 1 146 -7 107 q 24 228 10 185 q 58 315 39 272 q 99 393 76 358 q 145 449 121 428 q 193 471 169 471 m 125 738 q 136 772 128 763 q 156 781 144 781 q 201 759 176 781 q 249 709 226 738 q 285 653 271 681 q 300 613 300 625 q 296 594 300 606 q 281 576 292 582 q 213 655 250 617 q 125 738 175 693 z "},"j":{"ha":304,"x_min":-267,"x_max":347,"o":"m 199 440 q 191 381 199 425 q 169 274 183 336 q 133 138 154 213 q 88 -11 113 64 q 147 24 117 7 q 208 67 178 42 q 269 128 239 92 q 329 218 300 164 l 347 208 q 287 105 321 146 q 216 36 253 64 q 142 -12 179 8 q 74 -50 106 -32 q 21 -176 50 -115 q -42 -284 -8 -236 q -114 -360 -75 -332 q -194 -389 -153 -389 q -249 -369 -231 -389 q -267 -318 -267 -349 q -253 -264 -267 -293 q -217 -206 -240 -235 q -162 -149 -194 -176 q -92 -101 -131 -122 q -51 -81 -72 -90 q -3 -57 -31 -71 q 49 95 25 10 q 90 285 72 181 q 52 219 69 247 q 25 175 35 192 l 13 196 q 55 289 36 239 q 91 382 74 339 q 126 453 108 425 q 165 482 144 482 q 190 470 181 482 q 199 440 199 458 m -207 -342 q -127 -282 -179 -342 q -21 -101 -75 -222 q -178 -209 -126 -154 q -231 -308 -231 -264 q -224 -335 -231 -328 q -207 -342 -217 -342 m 188 607 q 149 618 165 607 q 132 651 132 629 q 142 681 132 667 q 166 704 151 694 q 199 719 181 714 q 233 725 217 725 q 266 715 253 725 q 279 686 279 706 q 251 631 279 654 q 188 607 222 607 z "},"k":{"ha":621,"x_min":6,"x_max":660,"o":"m 271 197 q 316 205 286 197 q 375 228 346 213 q 426 269 404 244 q 449 331 449 294 q 428 376 449 360 q 379 393 407 393 q 303 365 338 393 q 238 293 268 336 q 185 199 208 250 q 144 102 161 147 q 117 23 128 57 q 101 -18 106 -11 q 81 -37 94 -31 q 54 -43 67 -43 q 26 -32 36 -43 q 12 -2 17 -21 q 6 40 7 17 q 6 88 6 64 q 30 255 6 160 q 93 451 54 350 q 179 649 132 551 q 274 822 226 746 q 361 945 321 899 q 426 992 401 992 q 458 965 446 992 q 469 901 469 939 q 448 794 469 853 q 389 677 426 736 q 299 565 351 618 q 186 474 247 511 q 117 255 140 361 q 94 76 94 149 q 149 199 117 132 q 220 326 181 267 q 306 425 260 385 q 406 465 353 465 q 493 429 457 465 q 529 342 529 393 q 506 266 529 297 q 451 215 483 235 q 386 188 419 196 q 332 179 353 179 q 340 138 333 168 q 360 78 347 108 q 393 24 374 47 q 440 0 413 0 q 497 17 469 0 q 551 65 525 35 q 601 138 578 96 q 646 226 625 179 l 660 213 q 617 113 644 161 q 557 28 590 65 q 486 -31 524 -8 q 413 -53 449 -53 q 345 -26 372 -53 q 301 40 318 1 q 278 122 285 79 q 271 197 271 165 m 418 879 q 385 851 407 879 q 333 774 363 822 q 272 663 304 726 q 210 529 240 599 q 297 615 257 568 q 364 710 336 663 q 407 799 392 757 q 422 867 422 840 q 418 879 422 879 z "},"l":{"ha":329,"x_min":4,"x_max":482,"o":"m 482 897 q 469 818 482 867 q 431 712 456 769 q 373 590 407 654 q 298 465 339 526 q 210 347 257 403 q 113 250 163 292 q 99 177 104 213 q 94 110 94 142 q 156 3 94 3 q 211 22 183 3 q 265 73 239 42 q 314 144 290 104 q 356 225 338 185 l 376 214 q 256 26 321 94 q 115 -42 190 -42 q 30 -1 56 -42 q 4 101 4 39 q 30 260 4 168 q 95 453 56 353 q 185 651 135 553 q 283 826 235 749 q 372 952 331 904 q 436 1000 413 1000 q 456 990 447 1000 q 470 963 464 979 q 479 929 476 947 q 482 897 482 911 m 429 888 q 399 863 419 888 q 351 794 378 838 q 292 693 324 751 q 229 569 260 635 q 172 434 199 504 q 125 297 144 364 q 242 442 185 358 q 342 608 299 525 q 413 760 386 690 q 439 865 439 831 q 435 883 439 879 q 429 888 432 888 z "},"<":{"ha":432,"x_min":15,"x_max":286,"o":"m 279 439 q 284 426 282 436 q 286 408 286 415 q 263 352 286 381 q 203 297 239 324 q 127 246 168 269 q 51 204 86 222 q 95 173 75 188 q 140 144 115 158 q 197 116 164 131 q 276 83 229 101 q 260 69 269 76 q 236 61 250 61 q 176 78 211 61 q 106 119 140 94 q 47 172 72 144 q 15 219 21 199 l 33 222 q 94 260 61 236 q 162 314 128 285 q 226 376 196 343 q 279 439 257 408 z "},"¬":{"ha":928,"x_min":47,"x_max":840,"o":"m 665 46 q 675 98 672 75 q 679 145 678 121 q 681 199 681 169 q 681 274 681 229 q 644 271 661 271 q 611 271 626 271 q 474 270 533 271 q 369 269 415 269 q 284 269 322 269 q 210 268 246 269 q 135 263 174 267 q 47 256 96 260 q 97 290 60 276 q 190 310 135 303 q 317 321 246 318 q 467 324 388 324 q 579 323 525 324 q 682 319 633 322 q 694 356 685 338 q 721 392 703 375 q 724 361 722 381 q 729 317 726 342 q 793 314 765 315 q 840 311 821 313 q 788 292 815 300 q 732 279 760 285 q 733 254 732 267 q 733 229 733 242 q 720 108 733 158 q 665 46 707 57 z "},"m":{"ha":899,"x_min":-49,"x_max":940,"o":"m 360 -31 q 340 -29 351 -31 q 316 -24 328 -28 q 297 -15 304 -21 q 289 -3 289 -10 q 303 44 289 7 q 333 130 317 82 q 363 229 349 178 q 376 317 376 281 q 369 355 376 340 q 342 369 361 369 q 268 332 311 369 q 180 236 225 294 q 93 106 135 178 q 26 -37 51 33 q 3 -35 17 -37 q -21 -28 -10 -32 q -40 -19 -32 -24 q -49 -8 -49 -14 q -34 42 -49 0 q -1 140 -19 83 q 32 256 17 196 q 47 363 47 317 q 74 382 56 372 q 111 392 92 392 q 149 356 149 392 q 138 293 149 336 q 113 197 128 250 q 176 288 140 242 q 249 374 211 335 q 328 437 288 413 q 406 461 368 461 q 465 430 449 461 q 481 356 481 399 q 476 301 481 329 q 465 245 471 272 q 451 196 458 218 q 438 160 443 174 q 485 238 460 199 q 539 306 510 276 q 600 355 568 336 q 668 374 632 374 q 730 347 713 374 q 747 285 747 321 q 739 226 747 257 q 722 163 731 194 q 704 103 713 132 q 696 53 696 75 q 705 19 696 33 q 738 6 714 6 q 793 26 767 6 q 843 80 819 47 q 887 151 867 113 q 924 225 907 189 l 940 206 q 899 117 924 161 q 845 38 875 74 q 778 -21 815 1 q 700 -43 742 -43 q 629 -13 651 -43 q 607 58 607 17 q 613 110 607 83 q 628 162 619 136 q 642 211 636 188 q 649 256 649 235 q 636 294 649 283 q 608 306 624 306 q 533 252 574 306 q 426 99 492 199 q 389 31 404 65 q 360 -31 374 -3 z "},"µ":{"ha":813,"x_min":-69,"x_max":721,"o":"m 225 454 q 176 226 194 318 q 158 83 158 135 q 199 14 158 14 q 267 56 231 14 q 338 156 303 97 q 402 276 372 214 q 451 376 432 338 q 468 373 457 375 q 490 367 479 371 q 510 356 501 363 q 518 340 518 349 q 503 303 518 335 q 472 227 489 271 q 440 137 454 183 q 425 56 425 90 q 435 15 425 31 q 471 0 446 0 q 522 15 493 0 q 583 59 551 31 q 647 129 615 88 q 703 225 678 171 l 721 213 q 666 109 699 156 q 596 29 633 63 q 519 -23 558 -4 q 442 -42 479 -42 q 365 -12 386 -42 q 344 61 344 18 q 347 95 344 78 q 354 131 350 113 q 314 65 335 96 q 270 10 293 33 q 223 -28 247 -14 q 172 -42 199 -42 q 114 -18 138 -42 q 28 -294 63 -200 q -26 -389 -7 -389 q -44 -381 -36 -389 q -57 -365 -51 -374 q -66 -347 -62 -356 q -69 -336 -69 -339 q -36 -234 -53 -279 q -3 -143 -19 -189 q 31 -44 14 -97 q 65 83 47 10 q 99 256 82 156 q 132 494 115 356 q 138 513 133 507 q 158 518 142 518 q 210 498 194 518 q 225 454 225 478 z "},"×":{"ha":525,"x_min":53,"x_max":381,"o":"m 69 417 q 101 374 86 393 q 130 338 115 356 q 160 304 144 321 q 196 268 176 288 q 297 363 249 321 q 369 424 346 404 q 340 349 363 382 q 297 294 318 315 l 235 231 l 308 157 q 351 102 328 136 q 381 28 374 68 q 308 89 357 47 q 207 183 260 131 l 196 193 q 156 153 174 171 q 124 117 139 135 q 92 80 108 100 q 58 35 76 60 q 53 60 53 46 q 83 138 53 94 q 160 232 113 181 q 90 319 117 278 q 64 392 64 360 q 69 417 64 406 z "},"n":{"ha":649,"x_min":-53,"x_max":689,"o":"m -53 10 q -37 53 -53 15 q -4 142 -22 90 q 30 249 14 193 q 46 351 46 306 q 72 371 54 361 q 110 381 90 381 q 147 344 147 381 q 135 271 147 322 q 103 161 122 219 q 164 247 131 203 q 235 326 197 290 q 312 383 272 361 q 392 406 351 406 q 438 395 418 406 q 469 367 457 385 q 488 326 482 349 q 494 281 494 304 q 485 219 494 249 q 466 164 476 190 q 447 112 456 138 q 438 61 438 86 q 449 20 438 32 q 479 8 461 8 q 532 28 506 8 q 583 78 558 47 q 631 148 608 110 q 674 225 654 186 l 689 207 q 641 113 667 156 q 585 38 615 69 q 522 -10 556 7 q 449 -28 488 -28 q 376 -3 400 -28 q 351 61 351 22 q 358 106 351 82 q 372 154 364 129 q 385 204 379 179 q 392 254 392 229 q 376 308 392 293 q 336 322 360 322 q 249 286 293 322 q 163 197 204 250 q 84 84 121 143 q 21 -21 47 25 q -22 -13 -1 -21 q -53 10 -42 -6 z "},"ñ":{"ha":649,"x_min":-53,"x_max":689,"o":"m -53 10 q -37 53 -53 15 q -4 142 -22 90 q 30 249 14 193 q 46 351 46 306 q 72 371 54 361 q 110 381 90 381 q 147 344 147 381 q 135 271 147 322 q 103 161 122 219 q 164 247 131 203 q 235 326 197 290 q 312 383 272 361 q 392 406 351 406 q 438 395 418 406 q 469 367 457 385 q 488 326 482 349 q 494 281 494 304 q 485 219 494 249 q 466 164 476 190 q 447 112 456 138 q 438 61 438 86 q 449 20 438 32 q 479 8 461 8 q 532 28 506 8 q 583 78 558 47 q 631 148 608 110 q 674 225 654 186 l 689 207 q 641 113 667 156 q 585 38 615 69 q 522 -10 556 7 q 449 -28 488 -28 q 376 -3 400 -28 q 351 61 351 22 q 358 106 351 82 q 372 154 364 129 q 385 204 379 179 q 392 254 392 229 q 376 308 392 293 q 336 322 360 322 q 249 286 293 322 q 163 197 204 250 q 84 84 121 143 q 21 -21 47 25 q -22 -13 -1 -21 q -53 10 -42 -6 m 136 585 q 192 635 164 621 q 251 649 219 649 q 312 639 281 649 q 376 618 343 629 q 446 597 410 607 q 521 588 482 588 q 563 592 542 588 q 510 553 538 564 q 454 542 483 542 q 394 550 425 542 q 331 569 363 558 q 266 588 299 579 q 200 596 233 596 q 136 585 164 596 z "},"#":{"ha":929,"x_min":-1,"x_max":906,"o":"m 50 381 q 74 424 51 406 q 135 453 97 442 q 225 469 174 464 q 335 476 276 475 q 389 742 367 624 q 428 938 411 860 q 442 974 432 957 q 490 1000 451 990 q 477 933 486 982 q 455 813 468 883 q 426 656 442 742 q 392 478 410 569 l 397 478 q 485 476 442 478 q 569 472 528 475 q 624 740 601 621 q 664 938 647 858 q 678 974 668 957 q 726 1000 688 990 q 713 932 722 982 q 690 810 704 882 q 660 650 676 738 q 625 469 643 563 q 774 460 704 465 q 906 454 844 454 q 833 416 868 422 q 765 410 797 410 q 684 409 721 410 q 614 408 647 408 q 603 355 610 388 q 593 303 596 322 q 731 294 667 299 q 853 289 796 289 q 781 251 815 257 q 714 244 746 244 q 644 244 676 244 q 581 243 611 244 q 536 39 557 126 q 491 -107 515 -49 q 436 -195 467 -165 q 364 -225 406 -225 q 401 -158 382 -203 q 440 -51 421 -112 q 479 85 460 11 q 518 239 499 160 l 343 239 q 299 37 319 124 q 254 -108 278 -50 q 201 -196 231 -167 q 128 -225 171 -225 q 165 -158 146 -203 q 203 -53 183 -114 q 242 82 222 8 q 281 236 261 156 q 185 231 233 233 q 76 222 138 228 l -1 215 q 24 260 0 242 q 89 289 49 278 q 183 306 129 300 q 299 313 236 311 q 308 357 301 328 q 318 401 314 386 q 229 396 274 399 q 129 388 185 393 l 50 381 m 358 313 q 447 311 403 313 q 533 307 492 310 l 556 407 q 458 406 501 407 q 376 404 415 406 l 358 313 z "},"o":{"ha":507,"x_min":-14,"x_max":550,"o":"m 375 88 q 308 101 338 88 q 204 -3 260 39 q 96 -44 149 -44 q 11 -8 36 -44 q -14 82 -14 29 q 0 172 -14 125 q 36 257 14 218 q 88 322 58 296 q 146 347 117 347 q 175 340 158 347 q 145 299 163 329 q 113 231 128 268 q 87 156 97 193 q 76 92 76 118 q 90 31 76 50 q 126 13 103 13 q 196 44 156 13 q 275 124 236 75 q 214 208 235 156 q 193 314 193 260 q 202 380 193 349 q 228 435 211 411 q 271 474 246 460 q 329 489 296 489 q 406 458 386 489 q 425 382 425 428 q 399 262 425 328 q 332 135 372 196 q 385 121 357 121 q 422 126 401 121 q 463 142 442 131 q 502 173 483 154 q 533 221 521 192 l 550 207 q 515 151 536 174 q 471 115 494 129 q 422 94 447 100 q 375 88 397 88 m 253 310 q 265 228 253 269 q 300 160 276 188 q 358 267 335 211 q 381 374 381 324 q 369 433 381 414 q 339 451 357 451 q 310 440 325 451 q 282 410 294 429 q 261 366 269 392 q 253 310 253 340 z "},"ó":{"ha":507,"x_min":-14,"x_max":628,"o":"m 375 88 q 308 101 338 88 q 204 -3 260 39 q 96 -44 149 -44 q 11 -8 36 -44 q -14 82 -14 29 q 0 172 -14 125 q 36 257 14 218 q 88 322 58 296 q 146 347 117 347 q 175 340 158 347 q 145 299 163 329 q 113 231 128 268 q 87 156 97 193 q 76 92 76 118 q 90 31 76 50 q 126 13 103 13 q 196 44 156 13 q 275 124 236 75 q 214 208 235 156 q 193 314 193 260 q 202 380 193 349 q 228 435 211 411 q 271 474 246 460 q 329 489 296 489 q 406 458 386 489 q 425 382 425 428 q 399 262 425 328 q 332 135 372 196 q 385 121 357 121 q 422 126 401 121 q 463 142 442 131 q 502 173 483 154 q 533 221 521 192 l 550 207 q 515 151 536 174 q 471 115 494 129 q 422 94 447 100 q 375 88 397 88 m 253 310 q 265 228 253 269 q 300 160 276 188 q 358 267 335 211 q 381 374 381 324 q 369 433 381 414 q 339 451 357 451 q 310 440 325 451 q 282 410 294 429 q 261 366 269 392 q 253 310 253 340 m 628 736 q 540 653 578 692 q 472 575 503 615 q 457 592 461 581 q 453 611 453 604 q 467 651 453 624 q 504 708 482 679 q 551 758 526 736 q 597 779 576 779 q 617 770 608 779 q 628 736 625 761 z "},"ô":{"ha":507,"x_min":-14,"x_max":550,"o":"m 260 613 q 249 625 251 618 q 246 639 246 632 q 265 681 246 660 q 311 720 285 703 q 364 749 338 738 q 404 761 390 761 q 442 745 421 761 q 483 706 464 729 q 516 656 503 683 q 529 607 529 629 q 524 582 529 593 q 506 564 518 571 q 461 632 486 604 q 403 692 436 660 q 326 658 360 676 q 260 613 292 640 m 375 88 q 308 101 338 88 q 204 -3 260 39 q 96 -44 149 -44 q 11 -8 36 -44 q -14 82 -14 29 q 0 172 -14 125 q 36 257 14 218 q 88 322 58 296 q 146 347 117 347 q 175 340 158 347 q 145 299 163 329 q 113 231 128 268 q 87 156 97 193 q 76 92 76 118 q 90 31 76 50 q 126 13 103 13 q 196 44 156 13 q 275 124 236 75 q 214 208 235 156 q 193 314 193 260 q 202 380 193 349 q 228 435 211 411 q 271 474 246 460 q 329 489 296 489 q 406 458 386 489 q 425 382 425 428 q 399 262 425 328 q 332 135 372 196 q 385 121 357 121 q 422 126 401 121 q 463 142 442 131 q 502 173 483 154 q 533 221 521 192 l 550 207 q 515 151 536 174 q 471 115 494 129 q 422 94 447 100 q 375 88 397 88 m 253 310 q 265 228 253 269 q 300 160 276 188 q 358 267 335 211 q 381 374 381 324 q 369 433 381 414 q 339 451 357 451 q 310 440 325 451 q 282 410 294 429 q 261 366 269 392 q 253 310 253 340 z "},"ö":{"ha":507,"x_min":-14,"x_max":550,"o":"m 375 88 q 308 101 338 88 q 204 -3 260 39 q 96 -44 149 -44 q 11 -8 36 -44 q -14 82 -14 29 q 0 172 -14 125 q 36 257 14 218 q 88 322 58 296 q 146 347 117 347 q 175 340 158 347 q 145 299 163 329 q 113 231 128 268 q 87 156 97 193 q 76 92 76 118 q 90 31 76 50 q 126 13 103 13 q 196 44 156 13 q 275 124 236 75 q 214 208 235 156 q 193 314 193 260 q 202 380 193 349 q 228 435 211 411 q 271 474 246 460 q 329 489 296 489 q 406 458 386 489 q 425 382 425 428 q 399 262 425 328 q 332 135 372 196 q 385 121 357 121 q 422 126 401 121 q 463 142 442 131 q 502 173 483 154 q 533 221 521 192 l 550 207 q 515 151 536 174 q 471 115 494 129 q 422 94 447 100 q 375 88 397 88 m 253 310 q 265 228 253 269 q 300 160 276 188 q 358 267 335 211 q 381 374 381 324 q 369 433 381 414 q 339 451 357 451 q 310 440 325 451 q 282 410 294 429 q 261 366 269 392 q 253 310 253 340 m 432 576 q 396 586 411 576 q 381 618 381 596 q 389 642 381 631 q 411 663 397 654 q 441 678 425 672 q 472 683 457 683 q 503 675 492 683 q 514 644 514 667 q 507 620 514 632 q 488 599 500 608 q 462 583 476 589 q 432 576 447 576 m 232 606 q 196 615 211 606 q 181 647 181 625 q 189 672 181 660 q 211 692 197 683 q 241 707 225 701 q 272 713 257 713 q 303 704 292 713 q 314 674 314 696 q 307 649 314 661 q 288 628 300 638 q 262 612 276 618 q 232 606 247 606 z "},"œ":{"ha":756,"x_min":-36,"x_max":800,"o":"m 713 415 q 681 316 713 363 q 600 233 650 269 q 489 174 550 197 q 368 146 428 151 q 364 119 365 132 q 363 96 363 107 q 367 54 363 75 q 385 17 372 33 q 419 -10 397 0 q 472 -21 440 -21 q 561 -1 517 -21 q 646 52 606 18 q 722 131 686 86 q 783 225 757 175 l 800 213 q 732 99 772 150 q 645 13 692 49 q 547 -42 599 -22 q 443 -61 494 -61 q 318 -17 360 -61 q 274 92 276 26 q 165 -26 214 13 q 67 -65 117 -65 q -7 -37 22 -65 q -36 50 -36 -8 q -20 139 -36 92 q 24 234 -4 186 q 89 326 51 282 q 169 403 126 369 q 257 456 211 436 q 349 476 303 476 q 411 461 388 476 q 444 418 435 446 q 534 478 488 456 q 626 500 581 500 q 685 483 658 500 q 713 415 713 467 m 97 -8 q 138 3 115 -8 q 183 35 160 15 q 229 82 206 56 q 276 138 253 108 l 281 158 q 211 215 235 174 q 188 304 188 257 q 192 343 188 324 q 140 271 164 310 q 97 192 115 232 q 69 115 79 153 q 60 46 60 76 q 97 -8 60 -8 m 622 457 q 551 431 589 457 q 479 365 514 406 q 417 273 444 324 q 375 172 389 222 q 460 209 413 185 q 550 267 507 233 q 622 340 593 300 q 651 425 651 381 q 646 449 651 440 q 622 457 640 457 m 346 439 q 308 426 326 439 q 274 392 289 414 q 251 342 260 371 q 242 283 242 314 q 256 232 242 254 q 290 194 269 210 q 340 295 308 246 q 411 386 371 344 q 390 424 406 410 q 346 439 375 439 z "},"ò":{"ha":507,"x_min":-14,"x_max":550,"o":"m 375 88 q 308 101 338 88 q 204 -3 260 39 q 96 -44 149 -44 q 11 -8 36 -44 q -14 82 -14 29 q 0 172 -14 125 q 36 257 14 218 q 88 322 58 296 q 146 347 117 347 q 175 340 158 347 q 145 299 163 329 q 113 231 128 268 q 87 156 97 193 q 76 92 76 118 q 90 31 76 50 q 126 13 103 13 q 196 44 156 13 q 275 124 236 75 q 214 208 235 156 q 193 314 193 260 q 202 380 193 349 q 228 435 211 411 q 271 474 246 460 q 329 489 296 489 q 406 458 386 489 q 425 382 425 428 q 399 262 425 328 q 332 135 372 196 q 385 121 357 121 q 422 126 401 121 q 463 142 442 131 q 502 173 483 154 q 533 221 521 192 l 550 207 q 515 151 536 174 q 471 115 494 129 q 422 94 447 100 q 375 88 397 88 m 253 310 q 265 228 253 269 q 300 160 276 188 q 358 267 335 211 q 381 374 381 324 q 369 433 381 414 q 339 451 357 451 q 310 440 325 451 q 282 410 294 429 q 261 366 269 392 q 253 310 253 340 m 260 731 q 271 765 263 756 q 290 774 279 774 q 336 752 311 774 q 383 702 361 731 q 420 646 406 674 q 435 606 435 618 q 431 587 435 599 q 415 569 426 575 q 347 648 385 610 q 260 731 310 686 z "},"½":{"ha":971,"x_min":57,"x_max":836,"o":"m 771 1000 q 735 922 764 981 q 665 783 706 864 q 576 610 625 703 q 478 427 526 517 q 387 260 431 338 q 314 135 343 182 q 179 -51 242 19 q 57 -121 117 -121 q 139 -15 89 -89 q 247 154 189 58 q 367 360 306 250 q 485 578 429 471 q 585 779 540 685 q 654 938 629 874 q 671 958 658 947 q 700 978 683 969 q 735 994 717 988 q 771 1000 754 1000 m 342 996 q 347 985 346 992 q 349 974 349 979 q 346 951 349 963 q 340 928 343 939 q 331 883 336 911 q 318 820 325 854 q 303 749 311 786 q 289 678 296 711 l 271 592 q 254 526 263 553 q 232 482 246 499 q 250 483 239 483 q 297 475 278 483 q 322 439 317 467 q 292 441 308 440 q 263 442 276 442 q 201 439 226 442 q 146 436 175 436 q 115 444 132 436 q 86 469 97 453 l 103 469 q 109 469 106 469 q 115 468 113 468 q 185 475 146 468 q 215 568 201 511 q 239 685 228 625 q 260 801 250 746 q 279 889 269 856 q 231 860 246 867 q 208 853 215 853 q 192 858 197 853 q 188 878 188 863 q 213 894 196 882 q 251 922 231 906 q 292 957 271 938 q 333 996 314 976 l 342 996 m 615 315 q 576 336 589 322 q 563 379 563 350 q 574 433 563 407 q 606 480 585 460 q 655 513 626 500 q 717 525 683 525 q 801 488 769 525 q 833 397 833 450 q 817 302 833 351 q 773 206 800 253 q 710 117 746 158 q 638 44 675 75 l 649 42 q 718 26 685 33 q 775 19 751 19 q 799 24 786 19 q 836 44 813 29 q 807 -17 825 3 q 757 -36 789 -36 q 693 -24 729 -36 q 622 4 657 -11 l 596 15 q 518 -14 551 -14 q 480 -3 494 -14 q 465 26 465 8 q 522 63 465 63 q 555 60 538 63 q 593 53 572 57 q 656 122 624 81 q 715 212 689 164 q 757 310 740 260 q 774 407 774 361 q 754 479 774 457 q 706 501 735 501 q 640 463 664 501 q 617 365 617 424 q 619 341 617 351 q 626 315 621 331 l 615 315 m 517 11 q 536 16 526 11 q 560 29 546 21 q 517 39 535 39 q 501 34 506 39 q 497 25 497 29 q 503 15 497 18 q 517 11 510 11 z "},"¼":{"ha":893,"x_min":49,"x_max":804,"o":"m 763 1000 q 726 922 756 981 q 657 783 697 864 q 567 610 617 703 q 470 427 518 517 q 378 260 422 338 q 306 135 335 182 q 171 -51 233 19 q 49 -121 108 -121 q 131 -15 81 -89 q 239 154 181 58 q 359 360 297 250 q 476 578 421 471 q 576 779 532 685 q 646 938 621 874 q 663 958 650 947 q 692 978 675 969 q 727 994 708 988 q 763 1000 746 1000 m 333 996 q 339 985 338 992 q 340 974 340 979 q 338 951 340 963 q 332 928 335 939 q 322 883 328 911 q 310 820 317 854 q 295 749 303 786 q 281 678 288 711 l 263 592 q 246 526 254 553 q 224 482 238 499 q 242 483 231 483 q 289 475 269 483 q 314 439 308 467 q 284 441 300 440 q 254 442 268 442 q 192 439 218 442 q 138 436 167 436 q 106 444 124 436 q 78 469 89 453 l 94 469 q 101 469 97 469 q 107 468 104 468 q 176 475 138 468 q 206 568 193 511 q 231 685 219 625 q 251 801 242 746 q 271 889 261 856 q 222 860 238 867 q 200 853 207 853 q 184 858 189 853 q 179 878 179 863 q 205 894 188 882 q 242 922 222 906 q 284 957 263 938 q 325 996 306 976 l 333 996 m 776 524 q 794 504 794 521 q 790 483 794 500 q 776 434 785 467 q 756 351 768 401 q 731 228 744 300 l 754 228 q 777 230 765 228 q 804 235 789 232 q 769 199 789 213 q 733 186 749 186 l 724 186 q 717 147 721 175 q 707 86 713 119 q 698 19 701 53 q 694 -36 694 -15 q 646 -25 664 -33 q 628 0 628 -17 q 629 11 628 1 q 634 42 631 21 q 644 99 638 64 q 663 186 651 133 q 649 187 656 186 q 636 188 643 188 l 613 188 q 534 185 568 188 q 472 175 500 182 q 476 196 472 188 q 486 210 481 204 q 559 274 518 238 q 640 353 600 311 q 717 438 681 394 q 776 524 753 482 m 681 263 q 694 328 688 299 q 711 388 701 358 l 650 328 q 599 279 626 304 q 549 229 572 254 q 576 231 561 231 q 608 232 590 232 q 628 231 619 232 q 647 231 638 231 l 674 231 l 681 263 z "},"¹":{"ha":361,"x_min":78,"x_max":340,"o":"m 333 996 q 339 985 338 992 q 340 974 340 979 q 338 951 340 963 q 332 928 335 939 q 322 883 328 911 q 310 820 317 854 q 295 749 303 786 q 281 678 288 711 l 263 592 q 246 526 254 553 q 224 482 238 499 q 242 483 231 483 q 289 475 269 483 q 314 439 308 467 q 284 441 300 440 q 254 442 268 442 q 192 439 218 442 q 138 436 167 436 q 106 444 124 436 q 78 469 89 453 l 94 469 q 101 469 97 469 q 107 468 104 468 q 176 475 138 468 q 206 568 193 511 q 231 685 219 625 q 251 801 242 746 q 271 889 261 856 q 222 860 238 867 q 200 853 207 853 q 184 858 189 853 q 179 878 179 863 q 205 894 188 882 q 242 922 222 906 q 284 957 263 938 q 325 996 306 976 l 333 996 z "},"ª":{"ha":533,"x_min":132,"x_max":610,"o":"m 429 874 q 453 865 438 871 q 468 849 468 860 q 459 825 468 840 q 440 791 450 810 q 420 752 429 772 q 411 714 411 732 q 419 685 411 699 q 444 671 426 671 q 513 709 471 671 q 600 825 556 747 l 610 815 q 572 742 594 775 q 524 687 550 710 q 471 651 499 664 q 418 638 443 638 q 365 659 382 638 q 347 706 347 681 q 348 719 347 713 q 350 735 349 726 q 274 649 308 678 q 204 621 240 621 q 152 641 172 621 q 132 703 132 661 q 156 798 132 746 q 219 894 181 850 q 306 969 258 939 q 401 1000 354 1000 q 464 980 439 1000 q 489 928 489 960 q 476 895 489 904 q 442 886 463 886 q 446 903 444 894 q 447 919 447 913 q 436 958 447 942 q 399 975 425 975 q 328 945 364 975 q 264 872 293 915 q 217 781 235 829 q 199 699 199 733 q 225 661 199 661 q 276 684 247 661 q 332 740 304 707 q 385 810 360 774 q 429 874 411 847 z "},"º":{"ha":389,"x_min":135,"x_max":479,"o":"m 479 803 q 456 783 472 792 q 422 775 440 775 q 386 793 396 775 q 309 674 354 721 q 213 628 264 628 q 156 651 176 628 q 135 711 135 675 q 155 800 135 750 q 208 894 175 850 q 284 969 242 939 q 371 1000 326 1000 q 413 981 403 1000 q 444 967 435 981 q 453 943 453 954 q 447 922 453 935 q 433 892 440 908 q 420 858 426 876 q 414 821 414 840 q 422 803 414 807 q 442 799 431 799 q 461 800 451 799 q 479 803 471 801 m 235 669 q 270 681 251 669 q 308 713 289 693 q 344 759 326 732 q 374 818 361 786 q 368 874 368 840 q 373 928 368 907 q 386 963 378 950 q 310 935 344 963 q 250 868 275 907 q 211 788 225 829 q 197 718 197 746 q 207 683 197 696 q 235 669 217 669 z "},"ø":{"ha":563,"x_min":-90,"x_max":607,"o":"m 607 208 q 540 114 576 139 q 468 89 503 89 q 394 113 429 89 q 338 186 358 138 q 231 19 293 83 q 94 -44 168 -44 q 43 -33 65 -44 q -19 -74 11 -60 q -72 -89 -49 -89 q -81 -89 -76 -89 q -90 -87 -86 -89 q -45 -55 -69 -76 q 7 -4 -21 -33 q -17 76 -17 28 q 13 203 -17 132 q 90 338 42 274 q 197 445 138 401 q 319 489 257 489 q 361 479 344 489 l 383 517 q 408 531 389 525 q 446 538 426 538 q 455 537 450 538 q 464 536 460 536 q 444 506 457 528 q 411 454 431 485 q 431 431 425 444 q 436 407 436 417 q 428 376 436 394 q 409 334 419 357 q 390 285 399 311 q 382 232 382 260 q 413 148 382 179 q 479 117 443 117 q 535 140 508 117 q 589 222 561 164 l 607 208 m 72 71 q 143 161 107 114 q 213 256 179 208 q 276 349 246 304 q 332 433 307 394 q 227 390 275 431 q 145 295 179 350 q 92 183 111 240 q 72 86 72 125 l 72 71 m 125 15 q 176 32 149 15 q 229 78 203 49 q 280 146 256 107 q 324 229 304 185 q 315 303 315 260 q 260 222 288 263 q 205 144 232 181 q 153 76 178 107 q 110 26 129 46 l 103 19 q 125 15 113 15 z "},"õ":{"ha":507,"x_min":-14,"x_max":551,"o":"m 375 88 q 308 101 338 88 q 204 -3 260 39 q 96 -44 149 -44 q 11 -8 36 -44 q -14 82 -14 29 q 0 172 -14 125 q 36 257 14 218 q 88 322 58 296 q 146 347 117 347 q 175 340 158 347 q 145 299 163 329 q 113 231 128 268 q 87 156 97 193 q 76 92 76 118 q 90 31 76 50 q 126 13 103 13 q 196 44 156 13 q 275 124 236 75 q 214 208 235 156 q 193 314 193 260 q 202 380 193 349 q 228 435 211 411 q 271 474 246 460 q 329 489 296 489 q 406 458 386 489 q 425 382 425 428 q 399 262 425 328 q 332 135 372 196 q 385 121 357 121 q 422 126 401 121 q 463 142 442 131 q 502 173 483 154 q 533 221 521 192 l 550 207 q 515 151 536 174 q 471 115 494 129 q 422 94 447 100 q 375 88 397 88 m 253 310 q 265 228 253 269 q 300 160 276 188 q 358 267 335 211 q 381 374 381 324 q 369 433 381 414 q 339 451 357 451 q 310 440 325 451 q 282 410 294 429 q 261 366 269 392 q 253 310 253 340 m 211 585 q 255 635 232 621 q 303 649 278 649 q 351 639 326 649 q 403 618 376 629 q 459 597 431 607 q 518 588 488 588 q 551 592 535 588 q 510 553 532 564 q 465 542 489 542 q 417 550 442 542 q 366 569 392 558 q 314 588 340 579 q 261 596 288 596 q 211 585 233 596 z "},"p":{"ha":544,"x_min":-131,"x_max":500,"o":"m 172 -36 q 114 -28 136 -36 q 92 -11 92 -19 q 101 -5 92 -6 q 126 -4 111 -4 q 233 24 182 -4 q 324 95 285 51 q 386 193 363 139 q 410 300 410 247 q 391 376 410 344 q 331 407 372 407 q 258 383 294 407 q 192 325 222 360 q 137 252 161 290 q 100 183 113 214 q 50 -18 75 79 q 2 -192 25 -115 q -40 -320 -21 -269 q -71 -382 -58 -371 q -87 -389 -78 -389 q -104 -381 -96 -389 q -119 -365 -112 -374 q -128 -347 -125 -356 q -131 -336 -131 -339 q -99 -234 -114 -279 q -67 -143 -83 -189 q -36 -44 -51 -97 q -6 83 -21 10 q 26 256 10 156 q 58 494 42 356 q 64 513 60 507 q 85 518 68 518 q 136 498 121 518 q 151 454 151 478 q 143 385 151 435 q 119 267 135 335 q 162 338 138 301 q 217 403 186 374 q 283 452 247 433 q 360 471 319 471 q 461 427 422 471 q 500 313 500 383 q 476 197 500 258 q 408 84 451 136 q 304 -2 364 32 q 172 -36 244 -36 z "},"¶":{"ha":896,"x_min":71,"x_max":835,"o":"m 669 994 q 690 976 682 994 q 704 928 699 958 q 713 858 710 897 q 719 775 717 818 q 785 752 756 764 q 835 729 814 740 q 825 717 832 724 q 808 706 818 711 q 790 696 799 700 q 778 692 782 692 q 757 701 771 692 q 721 721 743 710 q 722 685 722 703 q 722 650 722 667 q 714 147 722 324 q 700 -51 706 -29 q 663 -102 689 -83 q 606 -121 636 -121 q 610 -74 607 -117 q 618 37 614 -32 q 626 194 622 106 q 634 378 631 282 q 640 570 638 474 q 642 751 642 667 l 642 757 q 585 771 618 764 q 587 705 586 744 q 588 622 588 665 q 589 537 589 579 q 589 464 589 494 q 580 97 589 229 q 565 -51 571 -36 q 547 -79 560 -67 q 516 -101 533 -92 q 480 -116 499 -111 q 443 -121 461 -121 q 457 39 449 -47 q 472 217 465 125 q 403 223 444 218 q 318 238 363 228 q 229 267 274 249 q 150 312 185 285 q 93 377 115 339 q 71 467 71 415 q 112 604 71 544 q 216 706 153 664 q 356 773 279 749 q 503 804 432 797 q 490 983 500 907 q 531 994 513 994 q 565 974 554 994 q 578 923 575 953 q 582 860 582 893 q 583 803 582 828 q 613 799 599 801 q 642 794 626 797 q 638 901 640 853 q 633 983 636 950 q 669 994 650 994 z "},"(":{"ha":360,"x_min":65,"x_max":492,"o":"m 492 1000 q 334 844 400 935 q 226 651 268 754 q 165 439 185 549 q 146 225 146 329 q 163 40 146 121 q 211 -92 181 -42 q 199 -110 206 -103 q 183 -121 192 -117 q 136 -69 158 -106 q 99 18 114 -33 q 74 132 83 69 q 65 263 65 194 q 88 471 65 374 q 149 650 111 568 q 233 797 186 732 q 326 908 279 863 q 417 976 374 953 q 492 1000 461 1000 z "},")":{"ha":374,"x_min":-99,"x_max":329,"o":"m -99 -87 q 38 38 -26 -36 q 152 206 103 111 q 230 414 201 300 q 258 660 258 528 q 240 832 258 747 q 160 1000 221 917 q 217 963 188 993 q 272 883 247 933 q 313 762 297 832 q 329 604 329 692 q 306 406 329 500 q 247 231 283 311 q 167 85 211 150 q 78 -26 122 19 q -6 -96 33 -71 q -68 -121 -44 -121 q -85 -108 -78 -118 q -99 -87 -93 -99 z "},"%":{"ha":971,"x_min":94,"x_max":889,"o":"m 440 785 q 425 688 440 740 q 383 589 410 635 q 318 513 356 543 q 236 482 281 482 q 185 494 207 482 q 150 528 164 507 q 129 576 136 549 q 122 632 122 603 q 137 731 122 678 q 178 827 151 783 q 242 900 204 871 q 324 929 279 929 q 408 890 376 929 q 440 785 440 851 m 324 879 q 269 851 293 879 q 231 783 246 824 q 207 699 215 743 q 199 621 199 654 q 210 558 199 582 q 244 535 222 535 q 292 560 269 535 q 331 626 314 586 q 358 710 349 665 q 368 796 368 756 q 358 856 368 832 q 324 879 347 879 m 808 1000 q 772 922 801 981 q 703 783 743 864 q 613 610 663 703 q 516 427 564 517 q 424 260 468 338 q 351 135 381 182 q 217 -51 279 19 q 94 -121 154 -121 q 176 -15 126 -89 q 285 154 226 58 q 405 360 343 250 q 522 578 467 471 q 622 779 578 685 q 692 938 667 874 q 708 958 696 947 q 738 978 721 969 q 773 994 754 988 q 808 1000 792 1000 m 889 303 q 874 206 889 258 q 831 107 858 153 q 767 31 804 61 q 685 0 729 0 q 634 13 656 0 q 599 46 613 25 q 578 94 585 67 q 571 150 571 121 q 585 249 571 196 q 626 345 600 301 q 690 418 653 389 q 772 447 728 447 q 857 408 825 447 q 889 303 889 369 m 772 397 q 718 369 742 397 q 679 301 694 342 q 656 217 664 261 q 647 140 647 172 q 659 76 647 100 q 693 53 671 53 q 740 78 718 53 q 780 144 763 104 q 807 228 797 183 q 817 314 817 274 q 806 374 817 350 q 772 397 796 397 z "},".":{"ha":299,"x_min":-3,"x_max":114,"o":"m 42 -14 q 10 -5 24 -14 q -3 24 -3 4 q 24 64 -3 47 q 78 81 50 81 q 104 74 94 81 q 114 47 114 67 q 92 6 114 26 q 42 -14 69 -14 z "},"·":{"ha":292,"x_min":39,"x_max":156,"o":"m 83 172 q 52 181 65 172 q 39 210 39 190 q 65 250 39 233 q 119 267 92 267 q 146 260 136 267 q 156 233 156 253 q 133 192 156 213 q 83 172 111 172 z "},"‰":{"ha":1372,"x_min":97,"x_max":1292,"o":"m 443 785 q 428 688 443 740 q 385 589 413 635 q 321 513 358 543 q 239 482 283 482 q 188 494 210 482 q 153 528 167 507 q 132 576 139 549 q 125 632 125 603 q 140 731 125 678 q 181 827 154 783 q 244 900 207 871 q 326 929 282 929 q 411 890 379 929 q 443 785 443 851 m 326 879 q 272 851 296 879 q 233 783 249 824 q 210 699 218 743 q 201 621 201 654 q 213 558 201 582 q 247 535 225 535 q 294 560 272 535 q 334 626 317 586 q 361 710 351 665 q 371 796 371 756 q 360 856 371 832 q 326 879 350 879 m 811 1000 q 775 922 804 981 q 706 783 746 864 q 616 610 665 703 q 519 427 567 517 q 427 260 471 338 q 354 135 383 182 q 219 -51 282 19 q 97 -121 157 -121 q 179 -15 129 -89 q 288 154 229 58 q 408 360 346 250 q 525 578 469 471 q 625 779 581 685 q 694 938 669 874 q 711 958 699 947 q 740 978 724 969 q 776 994 757 988 q 811 1000 794 1000 m 892 303 q 876 206 892 258 q 834 107 861 153 q 769 31 807 61 q 688 0 732 0 q 637 13 658 0 q 601 46 615 25 q 581 94 588 67 q 574 150 574 121 q 588 249 574 196 q 629 345 603 301 q 693 418 656 389 q 775 447 731 447 q 860 408 828 447 q 892 303 892 369 m 775 397 q 721 369 744 397 q 682 301 697 342 q 658 217 667 261 q 650 140 650 172 q 662 76 650 100 q 696 53 674 53 q 743 78 721 53 q 783 144 765 104 q 810 228 800 183 q 819 314 819 274 q 809 374 819 350 q 775 397 799 397 m 1292 303 q 1276 206 1292 258 q 1234 107 1261 153 q 1169 31 1207 61 q 1088 0 1132 0 q 1037 13 1058 0 q 1001 46 1015 25 q 981 94 988 67 q 974 150 974 121 q 988 249 974 196 q 1029 345 1003 301 q 1093 418 1056 389 q 1175 447 1131 447 q 1260 408 1228 447 q 1292 303 1292 369 m 1175 397 q 1121 369 1144 397 q 1082 301 1097 342 q 1058 217 1067 261 q 1050 140 1050 172 q 1062 76 1050 100 q 1096 53 1074 53 q 1143 78 1121 53 q 1183 144 1165 104 q 1210 228 1200 183 q 1219 314 1219 274 q 1209 374 1219 350 q 1175 397 1199 397 z "},"+":{"ha":568,"x_min":-10,"x_max":486,"o":"m 196 -15 q 204 45 201 18 q 208 99 207 72 q 210 153 210 125 q 211 215 211 181 q 152 215 179 215 q 100 213 125 214 q 49 208 75 211 q -10 200 22 206 q 65 251 4 238 q 211 268 125 265 l 211 338 q 219 406 211 367 q 251 481 226 446 q 258 394 254 453 q 264 268 263 336 q 396 263 335 267 q 486 256 457 258 q 412 223 451 231 q 343 215 372 215 l 264 215 q 248 63 261 125 q 196 -15 235 0 z "},"±":{"ha":625,"x_min":61,"x_max":507,"o":"m 246 229 q 253 276 250 254 q 257 319 256 299 q 259 363 258 340 q 260 413 260 385 q 206 413 229 413 q 160 411 182 413 q 114 408 138 410 q 61 401 90 406 q 127 442 72 431 q 260 456 182 453 l 260 511 q 266 566 260 535 q 296 625 272 597 q 302 556 299 601 q 307 456 306 510 q 426 451 371 454 q 507 446 481 449 q 440 419 475 425 q 378 413 406 413 l 307 413 q 292 291 304 342 q 246 229 281 240 m 61 117 q 141 160 75 150 q 297 171 207 171 q 422 167 364 171 q 507 161 479 164 q 475 147 492 153 q 434 136 458 140 q 376 131 410 132 q 294 129 342 129 q 179 127 236 129 q 61 117 122 125 z "},"q":{"ha":558,"x_min":-21,"x_max":600,"o":"m 432 376 q 414 430 432 407 q 353 453 396 453 q 280 433 315 453 q 213 383 244 414 q 157 312 182 351 q 114 232 132 272 q 86 155 96 192 q 76 92 76 118 q 90 42 76 60 q 125 25 103 25 q 185 51 153 25 q 250 120 217 78 q 318 215 283 163 q 385 319 353 268 q 416 353 400 344 q 446 363 432 363 q 468 354 463 363 q 474 338 474 346 q 460 296 474 321 q 426 235 446 271 q 386 152 407 200 q 351 40 365 104 q 411 53 381 43 q 471 84 442 63 q 528 140 500 106 q 583 224 557 174 l 600 208 q 547 119 576 156 q 483 58 517 82 q 415 22 450 35 q 349 7 381 10 q 372 -150 372 -68 q 365 -242 372 -199 q 343 -319 357 -286 q 310 -370 329 -351 q 269 -389 292 -389 q 235 -368 250 -389 q 221 -287 221 -347 q 226 -201 221 -251 q 243 -93 232 -150 q 269 24 254 -36 q 303 136 283 83 q 191 8 247 57 q 83 -42 135 -42 q 47 -35 65 -42 q 14 -15 29 -29 q -11 23 -1 0 q -21 78 -21 46 q -5 165 -21 118 q 39 258 11 211 q 104 347 67 304 q 185 424 142 390 q 274 476 228 457 q 368 496 321 496 q 447 476 415 496 q 478 428 478 457 q 466 393 478 410 q 432 376 454 376 m 342 -137 q 332 -33 342 -81 q 305 -172 314 -108 q 296 -274 296 -236 q 307 -312 296 -312 q 322 -297 315 -312 q 332 -256 328 -281 q 339 -199 336 -231 q 342 -137 342 -168 z "},"?":{"ha":608,"x_min":136,"x_max":615,"o":"m 615 815 q 599 724 615 764 q 558 647 583 683 q 503 577 533 611 q 442 506 472 543 q 385 426 411 468 q 344 329 360 383 q 328 244 331 282 q 310 172 325 207 q 274 198 282 186 q 267 238 267 210 q 286 340 267 293 q 335 428 306 386 q 399 512 365 471 q 463 597 433 553 q 513 692 493 642 q 532 804 532 743 q 501 922 532 883 q 422 961 469 961 q 349 938 386 961 q 281 875 311 915 q 231 781 250 835 q 213 667 213 728 q 215 625 213 643 q 222 588 218 607 q 153 624 169 596 q 136 694 136 653 q 158 808 136 753 q 217 906 179 864 q 309 974 256 949 q 428 1000 363 1000 q 565 953 515 1000 q 615 815 615 906 m 253 -14 q 222 -5 235 -14 q 208 22 208 4 q 235 64 208 47 q 289 81 261 81 q 325 50 325 81 q 303 6 325 26 q 253 -14 281 -14 z "},"¿":{"ha":578,"x_min":-83,"x_max":396,"o":"m -83 -224 q -67 -141 -83 -178 q -26 -72 -51 -104 q 29 -8 -1 -39 q 90 56 60 22 q 147 127 121 89 q 188 214 172 165 q 204 290 201 257 q 222 356 207 324 q 258 332 250 343 q 265 297 265 321 q 246 206 265 247 q 197 126 226 164 q 133 51 167 88 q 69 -26 99 14 q 19 -112 39 -67 q 0 -212 0 -157 q 31 -319 0 -283 q 110 -354 63 -354 q 183 -333 146 -354 q 251 -276 221 -312 q 300 -192 281 -240 q 319 -89 319 -144 q 317 -52 319 -68 q 310 -18 314 -36 q 379 -51 363 -25 q 396 -114 396 -76 q 374 -217 396 -167 q 315 -305 353 -267 q 222 -366 276 -343 q 104 -389 168 -389 q -33 -347 17 -389 q -83 -224 -83 -304 m 275 542 q 306 533 293 542 q 319 506 319 524 q 293 464 319 481 q 239 447 267 447 q 203 478 203 447 q 225 522 203 501 q 275 542 247 542 z "},"\"":{"ha":342,"x_min":168,"x_max":454,"o":"m 288 961 q 230 881 249 921 q 192 800 211 840 q 174 821 179 807 q 168 851 168 835 q 176 899 168 872 q 195 947 183 925 q 222 985 207 969 q 253 1000 238 1000 q 277 988 267 1000 q 288 961 288 976 m 454 961 q 397 881 415 921 q 358 800 378 840 q 340 821 346 807 q 335 851 335 835 q 342 899 335 872 q 362 947 350 925 q 389 985 374 969 q 419 1000 404 1000 q 444 988 433 1000 q 454 961 454 976 z "},"„":{"ha":426,"x_min":-28,"x_max":244,"o":"m 92 39 q 34 -42 53 -1 q -4 -122 15 -82 q -22 -101 -17 -115 q -28 -71 -28 -87 q -20 -24 -28 -50 q -1 25 -12 3 q 26 63 11 47 q 57 78 42 78 q 81 66 71 78 q 92 39 92 54 m 244 39 q 187 -42 206 -1 q 149 -122 168 -82 q 131 -101 136 -115 q 125 -71 125 -87 q 133 -24 125 -50 q 152 25 140 3 q 179 63 164 47 q 210 78 194 78 q 234 66 224 78 q 244 39 244 54 z "},"“":{"ha":354,"x_min":161,"x_max":436,"o":"m 161 961 q 172 988 161 976 q 196 1000 182 1000 q 210 966 200 983 q 233 930 221 949 q 259 892 246 911 q 281 851 272 872 q 283 839 283 843 q 276 817 283 826 q 257 800 268 807 q 228 842 244 819 q 197 886 211 864 q 172 928 182 908 q 161 961 161 947 m 314 961 q 324 988 314 976 q 349 1000 335 1000 q 363 966 353 983 q 386 930 374 949 q 412 892 399 911 q 433 851 425 872 q 436 839 436 843 q 428 817 436 826 q 410 800 421 807 q 381 842 397 819 q 349 886 364 864 q 324 928 335 908 q 314 961 314 947 z "},"”":{"ha":328,"x_min":158,"x_max":433,"o":"m 281 961 q 270 928 281 947 q 245 886 260 908 q 214 842 231 864 q 185 800 197 819 q 166 817 174 807 q 158 839 158 826 q 161 851 158 843 q 183 892 169 872 q 208 930 196 911 q 231 966 221 949 q 246 1000 242 983 q 270 988 260 1000 q 281 961 281 976 m 433 961 q 423 928 433 947 q 398 886 413 908 q 367 842 383 864 q 338 800 350 819 q 319 817 326 807 q 311 839 311 826 q 314 851 311 843 q 335 892 322 872 q 361 930 349 911 q 384 966 374 949 q 399 1000 394 983 q 423 988 413 1000 q 433 961 433 976 z "},"‘":{"ha":201,"x_min":161,"x_max":283,"o":"m 161 961 q 172 988 161 976 q 196 1000 182 1000 q 210 966 200 983 q 233 930 221 949 q 259 892 246 911 q 281 851 272 872 q 283 839 283 843 q 276 817 283 826 q 257 800 268 807 q 228 842 244 819 q 197 886 211 864 q 172 928 182 908 q 161 961 161 947 z "},"’":{"ha":175,"x_min":158,"x_max":281,"o":"m 281 961 q 270 928 281 947 q 245 886 260 908 q 214 842 231 864 q 185 800 197 819 q 166 817 174 807 q 158 839 158 826 q 161 851 158 843 q 183 892 169 872 q 208 930 196 911 q 231 966 221 949 q 246 1000 242 983 q 270 988 260 1000 q 281 961 281 976 z "},"‚":{"ha":274,"x_min":-28,"x_max":92,"o":"m 92 39 q 34 -42 53 -1 q -4 -122 15 -82 q -22 -101 -17 -115 q -28 -71 -28 -87 q -20 -24 -28 -50 q -1 25 -12 3 q 26 63 11 47 q 57 78 42 78 q 81 66 71 78 q 92 39 92 54 z "},"'":{"ha":175,"x_min":168,"x_max":288,"o":"m 288 961 q 230 881 249 921 q 192 800 211 840 q 174 821 179 807 q 168 851 168 835 q 176 899 168 872 q 195 947 183 925 q 222 985 207 969 q 253 1000 238 1000 q 277 988 267 1000 q 288 961 288 976 z "},"r":{"ha":485,"x_min":1,"x_max":531,"o":"m 1 176 q 52 282 21 213 q 114 440 83 351 q 100 474 100 454 q 107 512 100 494 q 124 542 114 529 q 143 561 133 554 q 158 568 153 568 q 176 555 174 568 q 178 535 178 542 q 176 523 178 531 q 170 507 174 515 q 165 492 167 499 q 163 483 163 485 q 185 448 163 464 q 233 412 207 432 q 282 363 260 392 q 304 290 304 335 q 293 226 304 258 q 269 163 282 193 q 246 105 257 132 q 235 56 235 78 q 247 22 235 31 q 276 14 260 14 q 346 35 310 14 q 415 87 382 56 q 474 154 447 118 q 513 221 500 190 l 531 207 q 480 119 511 163 q 410 41 449 75 q 328 -15 371 7 q 240 -36 285 -36 q 166 -11 193 -36 q 139 54 139 14 q 151 119 139 85 q 177 187 163 153 q 203 253 192 221 q 215 314 215 286 q 208 352 215 336 q 190 380 201 368 q 164 401 178 392 q 138 419 150 410 q 104 338 121 378 q 71 264 88 299 q 40 200 54 229 q 14 153 25 171 l 1 176 z "},"®":{"ha":824,"x_min":96,"x_max":779,"o":"m 96 497 q 128 659 96 590 q 210 772 160 728 q 321 839 260 817 q 440 861 382 861 q 559 839 499 861 q 669 772 619 817 q 749 660 718 728 q 779 503 779 593 q 747 341 779 410 q 665 228 715 272 q 554 161 615 183 q 435 139 493 139 q 316 161 376 139 q 206 228 256 183 q 126 340 157 272 q 96 497 96 407 m 740 503 q 719 631 740 572 q 658 732 697 689 q 563 799 618 775 q 440 822 507 822 q 318 799 374 822 q 222 732 263 775 q 158 629 181 689 q 135 497 135 569 q 156 369 135 428 q 217 268 178 311 q 313 201 257 225 q 435 178 368 178 q 557 201 501 178 q 653 268 613 225 q 717 371 694 311 q 740 503 740 431 m 335 706 q 340 718 335 713 q 356 724 346 724 l 443 724 q 527 699 492 724 q 563 607 563 674 q 538 527 563 554 q 479 493 514 500 l 560 321 q 563 311 563 315 q 543 292 563 292 q 521 309 531 292 q 508 332 511 326 l 435 490 l 378 490 l 378 311 q 371 297 378 301 q 357 292 364 292 q 342 297 349 292 q 335 311 335 301 l 335 706 m 378 686 l 378 526 l 443 526 q 499 545 478 526 q 519 607 519 564 q 499 668 519 650 q 443 686 478 686 l 378 686 z "},"˚":{"ha":592,"x_min":168,"x_max":443,"o":"m 338 781 q 419 759 396 781 q 443 706 443 738 q 429 653 443 681 q 391 602 415 625 q 335 565 367 579 q 268 550 303 550 q 191 572 214 550 q 168 625 168 593 q 181 677 168 650 q 217 727 194 704 q 271 765 240 750 q 338 781 301 781 m 331 749 q 290 738 310 749 q 256 710 271 726 q 231 673 240 693 q 222 635 222 653 q 236 597 222 615 q 281 578 250 578 q 321 590 301 578 q 356 619 340 601 q 382 658 372 638 q 392 697 392 679 q 377 733 392 717 q 331 749 363 749 z "},"s":{"ha":481,"x_min":-28,"x_max":518,"o":"m -28 111 q -16 175 -28 153 q 11 208 -4 197 q 41 224 26 219 q 61 236 56 229 q 138 332 103 282 q 199 438 172 382 l 199 454 q 216 527 199 506 q 253 549 233 549 q 275 531 275 549 q 271 508 275 524 q 267 469 267 493 q 278 397 267 435 q 303 316 289 358 q 328 228 317 274 q 339 135 339 182 q 331 67 339 97 q 422 110 379 75 q 506 224 465 144 l 518 210 q 439 94 492 133 q 324 44 386 54 q 253 -43 301 -15 q 146 -71 206 -71 q 64 -54 97 -71 q 10 -11 31 -37 q -19 47 -10 15 q -28 111 -28 79 m 249 133 q 233 263 249 200 q 206 385 217 326 q 138 284 174 332 q 71 204 103 236 q 135 121 92 160 q 243 68 179 82 q 247 97 246 82 q 249 133 249 113 m 149 -22 q 169 -20 157 -22 q 193 -11 181 -18 q 217 9 206 -4 q 236 46 228 22 q 133 91 178 57 q 65 161 88 125 q 35 113 35 160 q 42 63 35 88 q 65 20 50 39 q 100 -10 79 1 q 149 -22 121 -22 z "},"š":{"ha":481,"x_min":-28,"x_max":518,"o":"m -28 111 q -16 175 -28 153 q 11 208 -4 197 q 41 224 26 219 q 61 236 56 229 q 138 332 103 282 q 199 438 172 382 l 199 454 q 216 527 199 506 q 253 549 233 549 q 275 531 275 549 q 271 508 275 524 q 267 469 267 493 q 278 397 267 435 q 303 316 289 358 q 328 228 317 274 q 339 135 339 182 q 331 67 339 97 q 422 110 379 75 q 506 224 465 144 l 518 210 q 439 94 492 133 q 324 44 386 54 q 253 -43 301 -15 q 146 -71 206 -71 q 64 -54 97 -71 q 10 -11 31 -37 q -19 47 -10 15 q -28 111 -28 79 m 249 133 q 233 263 249 200 q 206 385 217 326 q 138 284 174 332 q 71 204 103 236 q 135 121 92 160 q 243 68 179 82 q 247 97 246 82 q 249 133 249 113 m 149 -22 q 169 -20 157 -22 q 193 -11 181 -18 q 217 9 206 -4 q 236 46 228 22 q 133 91 178 57 q 65 161 88 125 q 35 113 35 160 q 42 63 35 88 q 65 20 50 39 q 100 -10 79 1 q 149 -22 121 -22 m 460 754 q 471 742 468 749 q 474 728 474 735 q 454 685 474 707 q 408 647 435 664 q 356 617 382 629 q 315 606 329 606 q 277 622 299 606 q 236 660 256 638 q 203 710 217 683 q 190 760 190 738 q 214 803 190 790 q 258 735 233 763 q 317 675 283 707 q 394 708 360 690 q 460 754 428 726 z "},"§":{"ha":579,"x_min":-4,"x_max":543,"o":"m 361 43 q 341 109 361 81 q 290 162 321 138 q 224 209 260 186 q 157 260 188 232 q 106 322 126 288 q 86 403 86 356 q 100 474 86 439 q 142 537 114 510 q 211 581 169 564 q 308 597 253 597 q 325 597 317 597 q 342 596 333 597 q 290 627 315 611 q 243 663 264 643 q 210 706 222 682 q 197 763 197 731 q 215 840 197 799 q 266 917 233 882 q 344 976 299 953 q 444 999 390 999 q 522 974 501 999 q 543 911 543 950 q 536 858 543 886 q 519 805 529 831 q 497 756 510 779 q 475 715 485 732 q 451 729 457 718 q 446 753 446 740 q 454 797 446 772 q 472 846 463 821 q 489 896 481 871 q 497 940 497 921 q 487 968 497 958 q 449 978 476 978 q 371 958 407 978 q 308 908 335 938 q 267 844 282 878 q 253 781 253 810 q 272 724 253 747 q 317 683 290 701 q 377 645 344 664 q 437 600 410 626 q 483 536 464 574 q 501 444 501 499 q 450 309 501 353 q 311 265 399 265 q 283 267 293 265 q 265 272 274 269 q 245 280 256 275 q 217 292 235 285 q 266 258 232 275 q 335 215 300 240 q 396 155 369 190 q 422 69 422 119 q 400 -10 422 25 q 342 -70 378 -46 q 265 -108 307 -94 q 181 -121 222 -121 q 111 -111 144 -121 q 52 -82 78 -101 q 11 -32 26 -62 q -4 39 -4 -1 q 6 96 -4 74 q 33 132 17 118 q 70 151 50 146 q 108 157 90 157 q 72 101 85 132 q 60 39 60 69 q 92 -48 60 -10 q 196 -86 125 -86 q 256 -78 226 -86 q 308 -53 285 -69 q 347 -13 332 -37 q 361 43 361 11 m 290 321 q 422 439 422 321 q 393 524 422 492 q 301 557 364 557 q 250 550 275 557 q 206 528 225 543 q 176 489 188 513 q 164 431 164 465 q 167 399 164 418 q 183 363 171 381 q 221 333 196 346 q 290 321 246 321 z "},";":{"ha":297,"x_min":-12,"x_max":200,"o":"m 128 333 q 97 342 110 333 q 83 371 83 351 q 110 411 83 394 q 164 428 136 428 q 190 421 181 428 q 200 394 200 414 q 178 353 200 374 q 128 333 156 333 m 107 39 q 49 -42 68 -1 q 11 -122 31 -82 q -7 -101 -1 -115 q -12 -71 -12 -87 q -5 -24 -12 -50 q 15 25 3 3 q 42 63 26 47 q 72 78 57 78 q 97 66 86 78 q 107 39 107 54 z "},"/":{"ha":460,"x_min":-108,"x_max":536,"o":"m 536 1000 q 513 943 531 985 q 472 842 496 901 q 417 709 447 782 q 354 558 386 636 q 290 401 322 479 q 227 252 257 322 q 174 124 197 182 q 135 31 150 67 q 17 -160 82 -94 q -108 -225 -49 -225 q -31 -112 -76 -193 q 64 77 14 -31 q 167 309 114 185 q 267 551 219 433 q 355 772 315 669 q 419 938 394 874 q 436 958 424 947 q 465 978 449 969 q 501 994 482 988 q 536 1000 519 1000 z "}," ":{"ha":361,"x_min":0,"x_max":0,"o":""},"£":{"ha":904,"x_min":-43,"x_max":846,"o":"m 165 354 q 183 402 167 383 q 228 432 200 421 q 292 447 256 443 q 369 451 328 451 l 403 556 q 301 617 338 576 q 265 704 265 657 q 272 742 265 722 q 289 777 278 761 q 316 803 300 793 q 351 814 332 814 q 337 773 340 799 q 333 728 333 747 q 356 640 333 675 q 413 585 378 604 q 469 743 439 668 q 536 875 500 818 q 615 966 572 932 q 711 1000 658 1000 q 756 994 732 1000 q 799 971 779 988 q 833 927 819 954 q 846 858 846 900 q 826 754 846 810 q 765 651 806 699 q 661 571 724 603 q 513 539 599 539 l 490 539 q 460 447 474 494 q 576 435 522 443 q 675 428 631 428 q 650 402 664 411 q 611 389 636 393 q 545 383 586 385 q 436 381 504 382 q 423 345 429 363 q 410 310 417 328 q 538 298 478 306 q 647 289 599 290 q 622 263 636 272 q 581 250 608 254 q 506 244 553 246 q 382 240 460 242 q 338 144 360 190 q 290 61 315 99 q 387 31 338 46 q 483 3 436 15 q 575 -17 531 -10 q 658 -25 619 -25 q 757 -3 714 -25 q 697 -94 733 -68 q 611 -121 661 -121 q 530 -108 574 -121 q 440 -77 486 -96 q 345 -35 393 -58 q 250 8 297 -12 q 178 -52 215 -31 q 96 -74 140 -74 q 36 -61 63 -74 q -8 -31 10 -49 q -34 9 -25 -12 q -43 47 -43 31 q -21 90 -43 72 q 58 108 1 108 q 138 100 94 108 q 229 79 182 92 q 299 236 267 143 q 245 231 272 233 q 185 222 218 228 l 138 215 q 154 261 139 243 q 194 290 169 279 q 253 306 219 301 q 325 313 288 311 l 346 376 q 283 369 314 371 q 213 361 253 367 l 165 354 m 721 965 q 660 933 689 965 q 603 845 631 900 q 551 718 576 790 q 499 565 525 646 q 612 602 561 565 q 698 690 663 639 q 752 798 733 742 q 771 896 771 854 q 756 951 771 936 q 721 965 740 965 m 90 -33 q 147 -17 121 -33 q 197 31 174 0 q 113 60 153 49 q 39 72 72 72 q 3 65 13 72 q -7 46 -7 58 q 0 19 -7 33 q 20 -6 7 6 q 51 -26 33 -18 q 90 -33 69 -33 z "},"t":{"ha":397,"x_min":-6,"x_max":440,"o":"m 422 418 q 178 401 269 401 l 157 401 q 103 250 125 326 q 81 99 81 174 q 99 13 81 38 q 158 -12 117 -12 q 300 51 231 -12 q 422 225 369 115 l 440 211 q 380 102 415 153 q 303 15 344 51 q 214 -43 261 -22 q 118 -64 167 -64 q -6 74 -6 -64 q 17 224 -6 136 q 75 408 39 313 q 49 413 61 411 q 25 419 36 415 l 25 444 q 51 442 36 443 q 86 439 67 440 q 149 584 115 514 q 215 709 182 654 q 277 797 247 764 q 328 829 307 829 q 348 822 339 829 q 357 799 357 814 q 340 745 357 781 q 295 663 322 710 q 235 557 268 615 q 172 435 203 499 l 224 435 q 319 436 269 435 q 422 443 369 438 l 422 418 z "},"þ":{"ha":544,"x_min":-131,"x_max":500,"o":"m 172 -36 q 114 -28 136 -36 q 92 -11 92 -19 q 101 -5 92 -6 q 126 -4 111 -4 q 233 24 182 -4 q 324 95 285 51 q 386 193 363 139 q 410 300 410 247 q 391 376 410 344 q 331 407 372 407 q 258 383 294 407 q 192 325 222 360 q 137 252 161 290 q 100 183 113 214 q 50 -18 75 79 q 2 -192 25 -115 q -40 -320 -21 -269 q -71 -382 -58 -371 q -87 -389 -78 -389 q -104 -381 -96 -389 q -119 -365 -112 -374 q -128 -347 -125 -356 q -131 -336 -131 -339 q -78 -156 -106 -250 q -22 60 -50 -61 q 35 338 7 182 q 89 703 64 494 q 94 721 90 715 q 115 726 99 726 q 167 706 151 726 q 182 663 182 686 q 178 630 182 656 q 170 568 175 604 q 158 489 165 532 q 144 403 151 446 q 131 325 138 361 q 119 267 124 289 q 162 338 138 301 q 217 403 186 374 q 283 452 247 433 q 360 471 319 471 q 461 427 422 471 q 500 313 500 383 q 476 197 500 258 q 408 84 451 136 q 304 -2 364 32 q 172 -36 244 -36 z "},"¾":{"ha":953,"x_min":101,"x_max":864,"o":"m 822 1000 q 786 922 815 981 q 717 783 757 864 q 627 610 676 703 q 530 427 578 517 q 438 260 482 338 q 365 135 394 182 q 231 -51 293 19 q 108 -121 168 -121 q 190 -15 140 -89 q 299 154 240 58 q 419 360 357 250 q 536 578 481 471 q 636 779 592 685 q 706 938 681 874 q 722 958 710 947 q 751 978 735 969 q 787 994 768 988 q 822 1000 806 1000 m 836 524 q 854 504 854 521 q 849 483 854 500 q 836 434 844 467 q 816 351 828 401 q 790 228 804 300 l 814 228 q 837 230 825 228 q 864 235 849 232 q 828 199 849 213 q 793 186 808 186 l 783 186 q 776 147 781 175 q 767 86 772 119 q 758 19 761 53 q 754 -36 754 -15 q 706 -25 724 -33 q 688 0 688 -17 q 689 11 688 1 q 694 42 690 21 q 704 99 697 64 q 722 186 711 133 q 709 187 715 186 q 696 188 703 188 l 672 188 q 594 185 628 188 q 532 175 560 182 q 536 196 532 188 q 546 210 540 204 q 619 274 578 238 q 700 353 660 311 q 776 438 740 394 q 836 524 813 482 m 740 263 q 754 328 747 299 q 771 388 761 358 l 710 328 q 659 279 686 304 q 608 229 632 254 q 635 231 621 231 q 668 232 650 232 q 688 231 679 232 q 707 231 697 231 l 733 231 l 740 263 m 368 908 q 351 959 368 944 q 311 974 333 974 q 260 955 283 974 q 238 901 238 936 q 249 856 238 882 q 234 840 244 847 q 215 833 224 833 q 193 853 200 833 q 186 890 186 872 q 198 935 186 915 q 228 969 210 956 q 271 990 247 983 q 319 997 294 997 q 397 974 363 997 q 431 906 431 951 q 422 859 431 883 q 399 813 414 835 q 363 773 383 790 q 317 747 342 756 q 392 688 371 728 q 414 614 414 649 q 399 549 414 581 q 358 492 385 517 q 297 451 332 467 q 219 436 261 436 q 164 446 186 436 q 128 470 142 456 q 108 503 114 485 q 101 538 101 521 q 117 589 101 564 q 164 614 132 614 q 172 614 168 614 q 183 611 176 614 q 166 583 172 601 q 160 546 160 564 q 177 489 160 514 q 226 464 194 464 q 265 475 246 464 q 299 506 283 486 q 324 553 314 525 q 333 614 333 581 q 315 692 333 654 q 251 740 297 729 q 299 772 278 753 q 336 815 321 792 q 360 863 351 839 q 368 908 368 888 z "},"³":{"ha":410,"x_min":99,"x_max":428,"o":"m 365 908 q 348 959 365 944 q 308 974 331 974 q 258 955 281 974 q 235 901 235 936 q 246 856 235 882 q 231 840 242 847 q 213 833 221 833 q 190 853 197 833 q 183 890 183 872 q 195 935 183 915 q 226 969 207 956 q 268 990 244 983 q 317 997 292 997 q 394 974 360 997 q 428 906 428 951 q 419 859 428 883 q 396 813 411 835 q 360 773 381 790 q 314 747 339 756 q 390 688 368 728 q 411 614 411 649 q 397 549 411 581 q 356 492 382 517 q 294 451 329 467 q 217 436 258 436 q 161 446 183 436 q 125 470 139 456 q 105 503 111 485 q 99 538 99 521 q 114 589 99 564 q 161 614 129 614 q 169 614 165 614 q 181 611 174 614 q 163 583 169 601 q 157 546 157 564 q 174 489 157 514 q 224 464 192 464 q 262 475 243 464 q 296 506 281 486 q 321 553 311 525 q 331 614 331 581 q 313 692 331 654 q 249 740 294 729 q 297 772 275 753 q 333 815 318 792 q 357 863 349 839 q 365 908 365 888 z "},"˜":{"ha":426,"x_min":0,"x_max":426,"o":"m 0 585 q 56 635 28 621 q 115 649 83 649 q 176 639 144 649 q 240 618 207 629 q 310 597 274 607 q 385 588 346 588 q 426 592 406 588 q 374 553 401 564 q 318 542 347 542 q 258 550 289 542 q 194 569 226 558 q 130 588 163 579 q 64 596 97 596 q 0 585 28 596 z "},"™":{"ha":775,"x_min":182,"x_max":810,"o":"m 810 979 q 789 911 801 960 q 764 804 776 863 q 742 688 751 746 q 733 593 733 631 q 734 574 733 581 q 738 561 735 568 l 743 544 q 697 559 708 544 q 686 608 686 574 q 699 736 686 668 q 732 876 713 804 q 696 808 715 847 q 659 730 676 769 q 626 655 642 690 q 603 597 611 619 q 590 592 597 592 q 567 610 572 592 q 561 661 561 628 q 563 715 561 683 q 565 778 564 746 q 568 841 567 810 q 569 896 569 872 l 569 901 q 494 721 524 790 q 444 613 464 651 q 409 559 424 574 q 378 544 394 544 l 406 607 q 468 742 429 658 q 551 929 507 825 q 556 939 554 933 q 558 950 558 944 q 544 961 558 961 q 451 959 500 961 q 371 953 401 957 q 339 867 358 919 q 301 758 319 815 q 270 648 283 701 q 257 560 257 594 q 257 554 257 557 q 260 544 257 551 q 215 556 228 544 q 203 586 203 568 q 215 641 203 600 q 245 735 226 682 q 287 845 264 788 q 333 951 310 903 q 253 950 282 951 q 189 942 224 949 l 182 944 q 204 972 182 961 q 263 987 226 982 q 347 993 299 992 q 450 994 396 994 l 557 994 q 603 969 588 994 q 618 868 618 944 q 617 821 618 847 q 613 769 615 794 q 610 724 611 744 q 608 693 608 703 q 651 777 629 726 q 695 874 672 828 q 740 954 718 921 q 786 988 763 988 q 806 983 793 988 l 810 979 z "},"²":{"ha":493,"x_min":86,"x_max":457,"o":"m 236 774 q 197 794 210 781 q 183 838 183 808 q 194 892 183 865 q 226 938 206 918 q 276 971 247 958 q 338 983 304 983 q 422 946 390 983 q 454 856 454 908 q 438 760 454 810 q 394 664 421 711 q 331 575 367 617 q 258 503 296 533 l 269 500 q 339 485 306 492 q 396 478 372 478 q 420 483 407 478 q 457 503 433 488 q 428 442 446 461 q 378 422 410 422 q 314 435 350 422 q 243 463 278 447 l 217 474 q 139 444 172 444 q 101 456 115 444 q 86 485 86 467 q 143 521 86 521 q 176 518 158 521 q 214 511 193 515 q 277 581 244 539 q 335 670 310 622 q 378 769 361 718 q 394 865 394 819 q 375 938 394 915 q 326 960 356 960 q 261 921 285 960 q 238 824 238 882 q 240 799 238 810 q 247 774 242 789 l 236 774 m 138 469 q 157 474 147 469 q 181 488 167 479 q 138 497 156 497 q 122 492 126 497 q 118 483 118 488 q 124 473 118 476 q 138 469 131 469 z "},"u":{"ha":610,"x_min":0,"x_max":653,"o":"m 383 376 q 400 373 389 375 q 422 367 411 371 q 442 356 433 363 q 450 340 450 349 q 435 303 450 335 q 403 227 421 271 q 372 137 386 183 q 357 56 357 90 q 367 15 357 31 q 403 0 378 0 q 454 15 425 0 q 515 59 483 31 q 578 129 547 88 q 635 225 610 171 l 653 213 q 598 109 631 156 q 528 29 565 63 q 451 -23 490 -4 q 374 -42 411 -42 q 297 -12 318 -42 q 276 61 276 18 q 279 95 276 78 q 286 131 282 113 q 246 65 267 96 q 202 10 225 33 q 155 -28 179 -14 q 104 -42 131 -42 q 28 0 57 -42 q 0 99 0 42 q 13 192 0 138 q 45 296 26 247 q 85 379 64 344 q 122 414 107 414 q 146 406 129 414 q 174 386 163 399 q 147 335 163 368 q 116 264 131 303 q 91 183 101 225 q 81 107 81 142 q 82 83 81 99 q 88 51 83 67 q 103 25 93 36 q 131 14 114 14 q 199 56 163 14 q 269 156 235 97 q 334 276 304 214 q 383 376 364 338 z "},"ú":{"ha":610,"x_min":0,"x_max":653,"o":"m 383 376 q 400 373 389 375 q 422 367 411 371 q 442 356 433 363 q 450 340 450 349 q 435 303 450 335 q 403 227 421 271 q 372 137 386 183 q 357 56 357 90 q 367 15 357 31 q 403 0 378 0 q 454 15 425 0 q 515 59 483 31 q 578 129 547 88 q 635 225 610 171 l 653 213 q 598 109 631 156 q 528 29 565 63 q 451 -23 490 -4 q 374 -42 411 -42 q 297 -12 318 -42 q 276 61 276 18 q 279 95 276 78 q 286 131 282 113 q 246 65 267 96 q 202 10 225 33 q 155 -28 179 -14 q 104 -42 131 -42 q 28 0 57 -42 q 0 99 0 42 q 13 192 0 138 q 45 296 26 247 q 85 379 64 344 q 122 414 107 414 q 146 406 129 414 q 174 386 163 399 q 147 335 163 368 q 116 264 131 303 q 91 183 101 225 q 81 107 81 142 q 82 83 81 99 q 88 51 83 67 q 103 25 93 36 q 131 14 114 14 q 199 56 163 14 q 269 156 235 97 q 334 276 304 214 q 383 376 364 338 m 467 675 q 379 592 417 631 q 311 514 342 554 q 296 531 300 519 q 292 550 292 543 q 306 590 292 563 q 343 647 321 618 q 390 697 365 675 q 436 718 415 718 q 456 709 447 718 q 467 675 464 700 z "},"û":{"ha":610,"x_min":0,"x_max":653,"o":"m 383 376 q 400 373 389 375 q 422 367 411 371 q 442 356 433 363 q 450 340 450 349 q 435 303 450 335 q 403 227 421 271 q 372 137 386 183 q 357 56 357 90 q 367 15 357 31 q 403 0 378 0 q 454 15 425 0 q 515 59 483 31 q 578 129 547 88 q 635 225 610 171 l 653 213 q 598 109 631 156 q 528 29 565 63 q 451 -23 490 -4 q 374 -42 411 -42 q 297 -12 318 -42 q 276 61 276 18 q 279 95 276 78 q 286 131 282 113 q 246 65 267 96 q 202 10 225 33 q 155 -28 179 -14 q 104 -42 131 -42 q 28 0 57 -42 q 0 99 0 42 q 13 192 0 138 q 45 296 26 247 q 85 379 64 344 q 122 414 107 414 q 146 406 129 414 q 174 386 163 399 q 147 335 163 368 q 116 264 131 303 q 91 183 101 225 q 81 107 81 142 q 82 83 81 99 q 88 51 83 67 q 103 25 93 36 q 131 14 114 14 q 199 56 163 14 q 269 156 235 97 q 334 276 304 214 q 383 376 364 338 m 256 613 q 244 625 247 618 q 242 639 242 632 q 261 681 242 660 q 307 720 281 703 q 360 749 333 738 q 400 761 386 761 q 438 745 417 761 q 479 706 460 729 q 512 656 499 683 q 525 607 525 629 q 519 582 525 593 q 501 564 514 571 q 457 632 482 604 q 399 692 432 660 q 322 658 356 676 q 256 613 288 640 z "},"ü":{"ha":610,"x_min":0,"x_max":653,"o":"m 383 376 q 400 373 389 375 q 422 367 411 371 q 442 356 433 363 q 450 340 450 349 q 435 303 450 335 q 403 227 421 271 q 372 137 386 183 q 357 56 357 90 q 367 15 357 31 q 403 0 378 0 q 454 15 425 0 q 515 59 483 31 q 578 129 547 88 q 635 225 610 171 l 653 213 q 598 109 631 156 q 528 29 565 63 q 451 -23 490 -4 q 374 -42 411 -42 q 297 -12 318 -42 q 276 61 276 18 q 279 95 276 78 q 286 131 282 113 q 246 65 267 96 q 202 10 225 33 q 155 -28 179 -14 q 104 -42 131 -42 q 28 0 57 -42 q 0 99 0 42 q 13 192 0 138 q 45 296 26 247 q 85 379 64 344 q 122 414 107 414 q 146 406 129 414 q 174 386 163 399 q 147 335 163 368 q 116 264 131 303 q 91 183 101 225 q 81 107 81 142 q 82 83 81 99 q 88 51 83 67 q 103 25 93 36 q 131 14 114 14 q 199 56 163 14 q 269 156 235 97 q 334 276 304 214 q 383 376 364 338 m 226 606 q 190 615 206 606 q 175 647 175 625 q 183 672 175 660 q 206 692 192 683 q 235 707 219 701 q 267 713 251 713 q 297 704 286 713 q 308 674 308 696 q 301 649 308 661 q 283 628 294 638 q 256 612 271 618 q 226 606 242 606 m 426 576 q 390 586 406 576 q 375 618 375 596 q 383 642 375 631 q 406 663 392 654 q 435 678 419 672 q 467 683 451 683 q 497 675 486 683 q 508 644 508 667 q 501 620 508 632 q 483 599 494 608 q 456 583 471 589 q 426 576 442 576 z "},"ù":{"ha":610,"x_min":0,"x_max":653,"o":"m 383 376 q 400 373 389 375 q 422 367 411 371 q 442 356 433 363 q 450 340 450 349 q 435 303 450 335 q 403 227 421 271 q 372 137 386 183 q 357 56 357 90 q 367 15 357 31 q 403 0 378 0 q 454 15 425 0 q 515 59 483 31 q 578 129 547 88 q 635 225 610 171 l 653 213 q 598 109 631 156 q 528 29 565 63 q 451 -23 490 -4 q 374 -42 411 -42 q 297 -12 318 -42 q 276 61 276 18 q 279 95 276 78 q 286 131 282 113 q 246 65 267 96 q 202 10 225 33 q 155 -28 179 -14 q 104 -42 131 -42 q 28 0 57 -42 q 0 99 0 42 q 13 192 0 138 q 45 296 26 247 q 85 379 64 344 q 122 414 107 414 q 146 406 129 414 q 174 386 163 399 q 147 335 163 368 q 116 264 131 303 q 91 183 101 225 q 81 107 81 142 q 82 83 81 99 q 88 51 83 67 q 103 25 93 36 q 131 14 114 14 q 199 56 163 14 q 269 156 235 97 q 334 276 304 214 q 383 376 364 338 m 228 731 q 239 765 231 756 q 258 774 247 774 q 304 752 279 774 q 351 702 329 731 q 388 646 374 674 q 403 606 403 618 q 399 587 403 599 q 383 569 394 575 q 315 648 353 610 q 228 731 278 686 z "},"_":{"ha":1175,"x_min":-42,"x_max":981,"o":"m -42 -92 q 1 -35 -37 -57 q 103 0 39 -12 q 256 17 168 13 q 447 22 344 22 q 568 20 515 22 q 664 16 621 18 q 744 10 707 14 q 817 4 781 7 q 892 -1 853 1 q 981 -3 932 -3 q 921 -35 951 -22 q 861 -54 890 -47 q 804 -63 832 -61 q 754 -65 776 -65 q 517 -66 614 -65 q 351 -67 419 -67 q 234 -69 282 -68 q 144 -72 186 -69 q 60 -80 103 -75 q -42 -92 17 -85 z "},"­":{"ha":674,"x_min":35,"x_max":531,"o":"m 35 200 q 66 234 43 221 q 124 255 89 247 q 203 265 158 263 q 297 268 247 268 q 436 263 372 268 q 531 256 500 258 q 496 237 515 244 q 445 224 476 229 q 366 217 414 219 q 247 215 318 215 q 190 215 215 215 q 141 213 165 214 q 92 208 117 211 q 35 200 67 206 z "}}}
